<svg width="70" height="70" viewBox="0 0 70 70" fill="none" xmlns="http://www.w3.org/2000/svg">
<g id="cable 1" clip-path="url(#clip0_42_295)">
<path id="Vector" d="M35.0657 0.273438C35.0438 0.273438 35.0224 0.273438 35 0.273438C15.8327 0.273438 0.0133599 15.869 8.44652e-06 35.2483C-0.00640024 44.6066 3.63427 53.4052 10.2512 60.0222C11.3194 61.0898 13.0502 61.0898 14.1184 60.0222C15.1859 58.9541 15.1859 57.2227 14.1184 56.1551C8.53532 50.572 5.46342 43.1486 5.46876 35.2521C5.48051 19.0883 18.6584 5.74219 35.0005 5.74219H35.0555C51.3085 5.77263 64.5312 19.0199 64.5312 35.2734C64.5312 49.1931 54.6571 61.352 41.0525 64.1846C39.3616 64.536 37.7344 63.2773 37.7344 61.5122V54.139C43.9674 52.869 48.6719 47.3447 48.6719 40.7422V32.5391H50.0391C51.5494 32.5391 52.7734 31.315 52.7734 29.8047C52.7734 28.2944 51.5494 27.0703 50.0391 27.0703H43.2031V18.8672C43.2031 17.3569 41.9791 16.1328 40.4688 16.1328C38.9584 16.1328 37.7344 17.3569 37.7344 18.8672V27.0703H32.2656V18.8672C32.2656 17.3569 31.0416 16.1328 29.5313 16.1328C28.0209 16.1328 26.7969 17.3569 26.7969 18.8672V27.0703H19.9609C18.4506 27.0703 17.2266 28.2944 17.2266 29.8047C17.2266 31.315 18.4506 32.5391 19.9609 32.5391H21.3281V40.7422C21.3281 47.3447 26.0326 52.869 32.2656 54.139V61.5122C32.2656 66.7235 37.0625 70.6013 42.1676 69.538C58.0259 66.2365 70 52.1705 70 35.2734C70 15.9587 54.3884 0.309219 35.0657 0.273438ZM26.7969 40.7422V32.5391H43.2031V40.7422C43.2031 45.2656 39.5235 48.9453 35 48.9453C30.4771 48.9453 26.7969 45.2656 26.7969 40.7422Z" fill="#FBF5F5"/>
</g>
<defs>
<clipPath id="clip0_42_295">
<rect width="70" height="70" fill="white"/>
</clipPath>
</defs>
</svg>
