<svg width="70" height="70" viewBox="0 0 70 70" fill="none" xmlns="http://www.w3.org/2000/svg">
<g id="restaurante 1" clip-path="url(#clip0_69_24)">
<g id="Group">
<g id="Group_2">
<path id="Vector" d="M64.0961 47.1929C61.6976 44.7943 57.7947 44.7941 55.3961 47.193L49.1012 53.488C48.2254 51.1562 45.9736 49.4922 43.3398 49.4922H36.6844C35.7401 49.4922 35.3228 48.975 34.3663 48.1334C31.3838 45.5088 27.404 44.2298 23.4484 44.6264C19.7779 44.9938 16.4756 46.7101 14.0446 49.4922H6.15234C5.01977 49.4922 4.10156 50.4104 4.10156 51.543V67.9492C4.10156 69.0818 5.01977 70 6.15234 70C7.87664 70 45.7121 70 47.4414 70C49.0844 70 50.6293 69.3599 51.7914 68.1977L64.0961 55.893C66.4947 53.4944 66.4947 49.5915 64.0961 47.1929ZM12.5781 65.8985H8.20312V53.5938H12.5781V65.8985ZM61.1959 52.9928L48.8912 65.2974C48.5093 65.6794 47.9809 65.8985 47.4414 65.8985C46.7681 65.8985 17.3389 65.8985 16.6797 65.8985V52.7468C18.4572 50.4275 21.0037 48.9929 23.8569 48.7074C26.6829 48.4247 29.5265 49.3376 31.6568 51.2124C32.696 52.1271 34.0707 53.5938 36.6844 53.5938H43.3398C44.4706 53.5938 45.3906 54.5138 45.3906 55.6446C45.3906 56.7754 44.4706 57.6953 43.3398 57.6953H34.9619C32.9937 57.6953 31.13 58.6474 29.9767 60.2421C29.3129 61.1599 29.5188 62.4419 30.4366 63.1057C31.3541 63.7695 32.6363 63.5636 33.3002 62.6458C33.6846 62.1142 34.3059 61.7969 34.9619 61.7969C37.155 61.7969 43.5136 61.7969 45.7431 61.7969C46.2871 61.7969 46.8085 61.5807 47.1931 61.1961L58.2962 50.0931C59.0957 49.2937 60.3963 49.2937 61.1959 50.0931C61.9954 50.8926 61.9954 52.1934 61.1959 52.9928Z" fill="#FBF5F5"/>
</g>
</g>
<g id="Group_3">
<g id="Group_4">
<path id="Vector_2" d="M67.9492 37.1875H65.8299C64.9 22.8944 54.2754 11.236 40.7265 8.71801C41.0866 7.93652 41.2891 7.06781 41.2891 6.15234C41.2891 2.75994 38.5291 0 35.1367 0C31.7443 0 28.9844 2.75994 28.9844 6.15234C28.9844 7.06672 29.1864 7.93447 29.5457 8.71527C15.9996 11.216 5.1223 22.8428 4.17143 37.1875H2.05078C0.918203 37.1875 0 38.1057 0 39.2383C0 40.3709 0.918203 41.2891 2.05078 41.2891H67.9492C69.0818 41.2891 70 40.3709 70 39.2383C70 38.1057 69.0818 37.1875 67.9492 37.1875ZM35.1367 4.10156C36.2675 4.10156 37.1875 5.02154 37.1875 6.15234C37.1875 7.28314 36.2675 8.20312 35.1367 8.20312C34.0059 8.20312 33.0859 7.28314 33.0859 6.15234C33.0859 5.02154 34.0059 4.10156 35.1367 4.10156ZM8.28461 37.1875C9.37248 23.5021 21.2261 12.2773 35.1367 12.2773C49.1544 12.2773 60.6796 23.2906 61.7202 37.1875H8.28461Z" fill="#FBF5F5"/>
</g>
</g>
</g>
<defs>
<clipPath id="clip0_69_24">
<rect width="70" height="70" fill="white"/>
</clipPath>
</defs>
</svg>
