<svg width="95" height="63" viewBox="0 0 95 63" fill="none" xmlns="http://www.w3.org/2000/svg">
<g id="coche 1" clip-path="url(#clip0_42_83)">
<g id="Group">
<g id="Group_2">
<path id="Vector" d="M90.7336 31.982L83.1025 28.511L76.3668 17.807C74.4201 14.7044 70.9939 12.8234 67.3146 12.8428H38.62C35.2911 12.8428 32.1374 14.3747 30.1128 17.0119L21.411 28.3558L6.90796 32.3116C3.22867 33.32 0.678467 36.6747 0.678467 40.4754V46.0019C0.678467 50.6752 4.41616 54.5341 9.10775 54.5341H10.3537C11.8526 60.2933 17.7512 63.7449 23.5329 62.2518C27.329 61.2628 30.3075 58.3153 31.2809 54.5341H63.9857C65.4847 60.2933 71.3832 63.7449 77.165 62.2518C80.9611 61.2628 83.9396 58.3153 84.9129 54.5341H87.249C91.9406 54.5341 95.6783 50.6752 95.6783 46.0019V39.6997C95.6977 36.3838 93.751 33.3588 90.7336 31.982ZM20.8075 58.6838C16.992 58.6838 13.8967 55.6006 13.8967 51.7999C13.8967 47.9992 16.992 44.916 20.8075 44.916C24.6231 44.916 27.7184 47.9992 27.7184 51.7999C27.7378 55.5812 24.6426 58.6644 20.8075 58.6838ZM74.4396 58.6838C70.624 58.6838 67.5287 55.6006 67.5287 51.7999C67.5287 47.9992 70.624 44.916 74.4396 44.916C78.2551 44.916 81.3504 47.9992 81.3504 51.7999C81.3699 55.5812 78.2746 58.6644 74.4396 58.6838ZM87.249 50.6558H85.1855C84.5431 44.7415 79.1896 40.4754 73.2521 41.1347C68.2101 41.6776 64.2388 45.6528 63.6937 50.6558H31.5534C30.911 44.7415 25.5575 40.4754 19.62 41.1347C14.578 41.6776 10.6067 45.6528 10.0616 50.6558H9.08829C6.53809 50.6558 4.55243 48.5421 4.55243 46.0019V40.4754C4.53297 38.4005 5.91514 36.5971 7.92026 36.0348L23.0852 31.9044C23.494 31.7881 23.8639 31.5554 24.1169 31.2063L33.1886 19.3583C34.4929 17.6906 36.4981 16.7211 38.62 16.7211H67.3146C69.6507 16.7017 71.8504 17.8845 73.0769 19.8624L80.124 31.0706C80.3187 31.4003 80.6301 31.6523 80.9611 31.8075L89.0984 35.5112C90.7336 36.2675 91.7848 37.8963 91.7654 39.6997V46.0019H91.7848C91.7848 48.5421 89.7992 50.6558 87.249 50.6558Z" fill="#FBF5F5"/>
</g>
</g>
</g>
<defs>
<clipPath id="clip0_42_83">
<rect width="95" height="63" fill="white"/>
</clipPath>
</defs>
</svg>
