<svg xmlns="http://www.w3.org/2000/svg" xmlns:xlink="http://www.w3.org/1999/xlink" width="153.462" height="149.489" viewBox="0 0 173.462 149.489">
  <defs>
    <clipPath id="clip-path">
      <rect id="Rectángulo_6" data-name="Rectángulo 6" width="153.462" height="149.489" fill="none"/>
    </clipPath>
  </defs>
  <g id="Grupo_6" data-name="Grupo 6" opacity="0.08">
    <g id="Grupo_5" data-name="Grupo 5">
      <g id="Grupo_4" data-name="Grupo 4" clip-path="url(#clip-path)">
        <path id="Trazado_17" data-name="Trazado 17" d="M9619.808,629.4a25.658,25.658,0,1,1-32.021-17.056,25.621,25.621,0,0,1,32.021,17.056" transform="translate(-9467.467 -586.029)" fill="#e9e9e9"/>
        <path id="Trazado_18" data-name="Trazado 18" d="M9538.965,670.728a11.482,11.482,0,1,1-14.329-7.633,11.465,11.465,0,0,1,14.329,7.633" transform="translate(-9454.181 -599.325)" fill="#e9e9e9"/>
        <path id="Trazado_19" data-name="Trazado 19" d="M9508.451,726.72c-22.909,0-37.56-9.655-40.213-11.548-29.766-18.382-33.864-50.691-34.188-53.743a73.669,73.669,0,0,1,22.468-63.436c20.824-19.075,42.746-21.69,57.472-20.526a75.608,75.608,0,0,1,27.477,7.37,8.094,8.094,0,0,1-7.639,14.272c-1.5-.787-35.131-17.863-66.429,10.873l-.229.2a57.316,57.316,0,0,0-17.04,49.239l.035.31c.023.24,3.032,27.27,26.816,41.81l.359.219.334.254c.57.423,15.309,11.11,39.592,7.937l.067-.008c.175-.023,20.02-2.718,32.853-16.783l.049-.052c.105-.114,11.435-12.5,14.788-25.615a8.1,8.1,0,0,1,15.7,4c-4.336,16.964-17.719,31.654-18.583,32.588-16.767,18.355-41.214,21.715-42.793,21.914a84.258,84.258,0,0,1-10.9.716" transform="translate(-9433.385 -577.232)" fill="#e9e9e9"/>
      </g>
    </g>
  </g>
</svg>
