<svg xmlns="http://www.w3.org/2000/svg" width="54.656" height="54.749" viewBox="0 0 54.656 54.749">
  <g id="Grupo_98" data-name="Grupo 98" transform="translate(0.525 0.528)">
    <path id="Trazado_140" data-name="Trazado 140" d="M942.673,1691.588a16.692,16.692,0,0,1-.536-32.835,2.658,2.658,0,0,1,1.23,1.876,2.61,2.61,0,0,1-.506,1.851,12.885,12.885,0,0,0,.416,25.358,2.643,2.643,0,0,1,.526,2.108,2.593,2.593,0,0,1-1.13,1.641" transform="translate(-922.009 -1658.753)" fill="none" stroke="#e9e9e9" stroke-miterlimit="10" stroke-width="1"/>
    <path id="Trazado_141" data-name="Trazado 141" d="M948.033,1683.132a16.933,16.933,0,0,1,5.65-10.163,16.3,16.3,0,0,1,10.73-4,16.66,16.66,0,0,1,16.088,13.526,2.629,2.629,0,0,1-1.852,1.249,2.544,2.544,0,0,1-1.832-.506,12.694,12.694,0,0,0-25.074.495,2.473,2.473,0,0,1-3.709-.6" transform="translate(-926.897 -1661.252)" fill="none" stroke="#e9e9e9" stroke-miterlimit="10" stroke-width="1"/>
    <path id="Trazado_142" data-name="Trazado 142" d="M963.928,1686.386a16.692,16.692,0,0,1,1.207,32.817,2.656,2.656,0,0,1-1.268-1.851,2.616,2.616,0,0,1,.468-1.861,12.885,12.885,0,0,0-.934-25.344,2.641,2.641,0,0,1-.569-2.1,2.6,2.6,0,0,1,1.1-1.665" transform="translate(-930.632 -1665.512)" fill="none" stroke="#e9e9e9" stroke-miterlimit="10" stroke-width="1"/>
    <path id="Trazado_143" data-name="Trazado 143" d="M952.212,1707.192a16.931,16.931,0,0,1-5.844,10.051,16.3,16.3,0,0,1-10.8,3.788,16.67,16.67,0,0,1-15.825-13.84,2.628,2.628,0,0,1,1.876-1.213,2.552,2.552,0,0,1,1.823.542,12.694,12.694,0,0,0,25.078,0,2.473,2.473,0,0,1,3.7.673" transform="translate(-919.738 -1670.301)" fill="none" stroke="#e9e9e9" stroke-miterlimit="10" stroke-width="1"/>
  </g>
</svg>
