<svg xmlns="http://www.w3.org/2000/svg" width="11.496" height="9.647" viewBox="0 0 37.496 32.647">
  <g id="Grupo_42" data-name="Grupo 42" transform="translate(0)">
    <g id="Grupo_41" data-name="Grupo 41" transform="translate(0 0)">
      <path id="Trazado_65" data-name="Trazado 65" d="M6189.654,613.1v28.871a1.283,1.283,0,0,1-1.219.8q-14.239-.009-28.479-.005a1.1,1.1,0,0,1-1.2-1.2c0-.931,0-1.862,0-2.792v-.362h-.453q-2.471,0-4.942,0a1.111,1.111,0,0,1-1.122-.708,1.061,1.061,0,0,1,.352-1.238,12.9,12.9,0,0,0,2.442-2.922,25.2,25.2,0,0,0,3.71-13.053c.054-2.32.012-4.641.015-6.962A1.113,1.113,0,0,1,6160,612.3q2.507,0,5.014,0h.4c0-.353,0-.654,0-.956a1.1,1.1,0,1,1,2.2-.016c0,.321,0,.641,0,.95h5.493c0-.331,0-.643,0-.955a1.1,1.1,0,1,1,2.2-.01c0,.321,0,.643,0,.957h5.565c0-.353,0-.679,0-1.005a1.1,1.1,0,1,1,2.194,0c.006.335,0,.67,0,1.037h.431c1.562,0,3.124.021,4.684-.01A1.4,1.4,0,0,1,6189.654,613.1Zm-28.717,7.922a26.333,26.333,0,0,1-5.161,15.219h.354q12.558,0,25.115-.009a.781.781,0,0,0,.5-.212,16.923,16.923,0,0,0,2.941-4.131,24.98,24.98,0,0,0,2.616-8.92c.07-.642.1-1.288.145-1.947Zm.028-2.216h26.462v-4.307h-4.365c0,.343,0,.667,0,.991a1.1,1.1,0,1,1-2.2.011c0-.334,0-.667,0-.994H6175.3c0,.354,0,.68,0,1.005a1.1,1.1,0,1,1-2.194,0c-.006-.335,0-.67,0-1.013h-5.493c0,.336,0,.648,0,.96a1.1,1.1,0,1,1-2.2-.005c0-.321,0-.642,0-.959h-4.45Zm26.476,12.426c-.1.2-.153.313-.207.427a20.848,20.848,0,0,1-4.286,6.264,1.72,1.72,0,0,1-1.278.5q-10.14-.017-20.281-.007h-.424v2.157h26.476Z" transform="translate(-6152.158 -610.122)" fill="#e9e9e9"/>
    </g>
  </g>
</svg>
