<svg xmlns="http://www.w3.org/2000/svg" xmlns:xlink="http://www.w3.org/1999/xlink" width="109.174" height="109.174" viewBox="0 0 109.174 109.174">
  <defs>
    <linearGradient id="linear-gradient" y1="0.5" x2="1" y2="0.5" gradientUnits="objectBoundingBox">
      <stop offset="0" stop-color="#8da1fa"/>
      <stop offset="0.249" stop-color="#8da1fa"/>
      <stop offset="0.8" stop-color="#4de2bb"/>
      <stop offset="0.979" stop-color="#4de2bb"/>
      <stop offset="1" stop-color="#4de2bb"/>
    </linearGradient>
  </defs>
  <path id="Trazado_88" data-name="Trazado 88" d="M4189.644,597.844h-63.216a22.979,22.979,0,0,1-22.979-22.979V511.649a22.979,22.979,0,0,1,22.979-22.979h63.216a22.979,22.979,0,0,1,22.979,22.979v63.216a22.979,22.979,0,0,1-22.979,22.979" transform="translate(-4103.449 -488.67)" fill="url(#linear-gradient)" style="mix-blend-mode: soft-light;isolation: isolate"/>
  <g id="Grupo_57" data-name="Grupo 57" transform="translate(-4103.449 -488.67)">
    <path id="Trazado_89" data-name="Trazado 89" d="M4152.484,549.552a17.748,17.748,0,0,1-10.663-6.035,17.452,17.452,0,0,1-4.171-11.415,17.653,17.653,0,0,1,14.264-17.056,2.794,2.794,0,0,1,1.308,1.972,2.726,2.726,0,0,1-.538,1.946,13.515,13.515,0,0,0,.442,26.648,2.644,2.644,0,0,1-.642,3.94" fill="#e9e9e9"/>
    <path id="Trazado_90" data-name="Trazado 90" d="M4152.986,538.039a17.746,17.746,0,0,1,6-10.68,17.439,17.439,0,0,1,11.4-4.2,17.651,17.651,0,0,1,17.1,14.214,2.794,2.794,0,0,1-1.968,1.313,2.721,2.721,0,0,1-1.947-.532,13.515,13.515,0,0,0-26.647.52,2.645,2.645,0,0,1-3.942-.631" fill="#e9e9e9"/>
    <path id="Trazado_91" data-name="Trazado 91" d="M4165.909,536.982a17.745,17.745,0,0,1,10.785,5.813,17.446,17.446,0,0,1,4.406,11.327,17.653,17.653,0,0,1-13.908,17.347,2.8,2.8,0,0,1-1.348-1.945,2.726,2.726,0,0,1,.5-1.956,13.515,13.515,0,0,0-.993-26.633,2.754,2.754,0,0,1-.6-2.2,2.727,2.727,0,0,1,1.165-1.749" fill="#e9e9e9"/>
    <path id="Trazado_92" data-name="Trazado 92" d="M4165.035,553.814a17.748,17.748,0,0,1-6.211,10.562,17.447,17.447,0,0,1-11.482,3.981,17.651,17.651,0,0,1-16.817-14.544,2.8,2.8,0,0,1,1.993-1.275,2.727,2.727,0,0,1,1.936.57,13.515,13.515,0,0,0,26.652,0,2.758,2.758,0,0,1,2.224-.521,2.725,2.725,0,0,1,1.705,1.229" fill="#e9e9e9"/>
  </g>
</svg>
