<svg xmlns="http://www.w3.org/2000/svg" xmlns:xlink="http://www.w3.org/1999/xlink" width="109.174" height="109.174" viewBox="0 0 109.174 109.174">
  <defs>
    <linearGradient id="linear-gradient" y1="0.5" x2="1" y2="0.5" gradientUnits="objectBoundingBox">
      <stop offset="0" stop-color="#8da1fa"/>
      <stop offset="0.249" stop-color="#8da1fa"/>
      <stop offset="0.8" stop-color="#4de2bb"/>
      <stop offset="0.979" stop-color="#4de2bb"/>
      <stop offset="1" stop-color="#4de2bb"/>
    </linearGradient>
  </defs>
  <path id="Trazado_101" data-name="Trazado 101" d="M5080.7,597.844h-63.216a22.979,22.979,0,0,1-22.979-22.979V511.649a22.979,22.979,0,0,1,22.979-22.979H5080.7a22.979,22.979,0,0,1,22.979,22.979v63.216a22.979,22.979,0,0,1-22.979,22.979" transform="translate(-4994.509 -488.67)" fill="url(#linear-gradient)" style="mix-blend-mode: soft-light;isolation: isolate"/>
  <g id="Grupo_65" data-name="Grupo 65" transform="translate(-4994.509 -488.67)">
    <path id="Trazado_102" data-name="Trazado 102" d="M5049.434,572.383a1.367,1.367,0,0,1-1.367-1.367V515.5a1.367,1.367,0,1,1,2.734,0v55.518a1.367,1.367,0,0,1-1.367,1.367" fill="#e9e9e9"/>
    <path id="Trazado_103" data-name="Trazado 103" d="M5035.462,569.236a1.366,1.366,0,0,1-1.189-2.037l27.265-48.362a1.367,1.367,0,1,1,2.381,1.342l-27.265,48.362a1.367,1.367,0,0,1-1.192.7" fill="#e9e9e9"/>
    <path id="Trazado_104" data-name="Trazado 104" d="M5025.527,558.711a1.367,1.367,0,0,1-.7-2.544l47.816-28.213a1.367,1.367,0,0,1,1.389,2.355l-47.816,28.212a1.348,1.348,0,0,1-.693.19" fill="#e9e9e9"/>
    <path id="Trazado_105" data-name="Trazado 105" d="M5021.344,545.246a1.367,1.367,0,0,1-.031-2.733l55.5-1.283a1.367,1.367,0,0,1,.063,2.733l-55.5,1.283h-.031" fill="#e9e9e9"/>
    <path id="Trazado_106" data-name="Trazado 106" d="M5073.192,558.617a1.361,1.361,0,0,1-.686-.186l-47.99-27.915a1.367,1.367,0,0,1,1.374-2.363l47.99,27.916a1.366,1.366,0,0,1-.688,2.548" fill="#e9e9e9"/>
    <path id="Trazado_107" data-name="Trazado 107" d="M5064.438,569.706a1.367,1.367,0,0,1-1.173-.662l-28.654-47.552a1.367,1.367,0,0,1,2.342-1.411l28.653,47.553a1.366,1.366,0,0,1-1.168,2.072" fill="#e9e9e9"/>
  </g>
</svg>
