<svg id="Grupo_102" data-name="Grupo 102" xmlns="http://www.w3.org/2000/svg" width="78.595" height="78.725" viewBox="0 0 78.595 78.725">
  <path id="Trazado_164" data-name="Trazado 164" d="M610.749,2586.393a24.474,24.474,0,0,1-.786-48.144,3.9,3.9,0,0,1,1.8,2.751,3.837,3.837,0,0,1-.742,2.716,18.893,18.893,0,0,0,.609,37.18,3.871,3.871,0,0,1,.772,3.091,3.8,3.8,0,0,1-1.657,2.406" transform="translate(-580.452 -2538.249)" fill="#e9e9e9"/>
  <path id="Trazado_165" data-name="Trazado 165" d="M618.61,2573.994a24.829,24.829,0,0,1,8.284-14.9,23.9,23.9,0,0,1,15.733-5.865,24.427,24.427,0,0,1,23.589,19.831,3.857,3.857,0,0,1-2.715,1.833,3.725,3.725,0,0,1-2.686-.742,18.613,18.613,0,0,0-36.765.726,3.625,3.625,0,0,1-5.439-.881" transform="translate(-587.62 -2541.913)" fill="#e9e9e9"/>
  <path id="Trazado_166" data-name="Trazado 166" d="M641.916,2578.766a24.474,24.474,0,0,1,1.77,48.118,3.893,3.893,0,0,1-1.86-2.713,3.832,3.832,0,0,1,.686-2.729,18.893,18.893,0,0,0-1.37-37.16,3.874,3.874,0,0,1-.834-3.075,3.808,3.808,0,0,1,1.607-2.441" transform="translate(-593.096 -2548.16)" fill="#e9e9e9"/>
  <path id="Trazado_167" data-name="Trazado 167" d="M624.737,2609.273a24.818,24.818,0,0,1-8.569,14.737,23.9,23.9,0,0,1-15.842,5.554,24.442,24.442,0,0,1-23.2-20.293,3.859,3.859,0,0,1,2.75-1.779,3.736,3.736,0,0,1,2.671.8,18.613,18.613,0,0,0,36.772,0,3.627,3.627,0,0,1,5.421.987" transform="translate(-577.123 -2555.181)" fill="#e9e9e9"/>
</svg>
