<svg xmlns="http://www.w3.org/2000/svg" xmlns:xlink="http://www.w3.org/1999/xlink" width="109.174" height="109.174" viewBox="0 0 109.174 109.174">
  <defs>
    <linearGradient id="linear-gradient" y1="0.5" x2="1" y2="0.5" gradientUnits="objectBoundingBox">
      <stop offset="0" stop-color="#8da1fa"/>
      <stop offset="0.249" stop-color="#8da1fa"/>
      <stop offset="0.8" stop-color="#4de2bb"/>
      <stop offset="0.979" stop-color="#4de2bb"/>
      <stop offset="1" stop-color="#4de2bb"/>
    </linearGradient>
  </defs>
  <g id="Grupo_64" data-name="Grupo 64" transform="translate(-5428.489 -488.67)">
    <path id="Trazado_95" data-name="Trazado 95" d="M5514.684,597.844h-63.216a22.979,22.979,0,0,1-22.979-22.979V511.649a22.979,22.979,0,0,1,22.979-22.979h63.216a22.979,22.979,0,0,1,22.979,22.979v63.216a22.979,22.979,0,0,1-22.979,22.979" fill="url(#linear-gradient)" style="mix-blend-mode: soft-light;isolation: isolate"/>
    <g id="Grupo_63" data-name="Grupo 63">
      <path id="Trazado_96" data-name="Trazado 96" d="M5490.671,525.723a8.6,8.6,0,1,1-8.595-8.6,8.595,8.595,0,0,1,8.595,8.6" fill="#e9e9e9"/>
      <g id="Grupo_60" data-name="Grupo 60">
        <path id="Trazado_97" data-name="Trazado 97" d="M5457.959,569.386a10.6,10.6,0,1,1,10.6-10.595A10.608,10.608,0,0,1,5457.959,569.386Zm0-17.19a6.6,6.6,0,1,0,6.6,6.6A6.6,6.6,0,0,0,5457.959,552.2Z" fill="#e9e9e9"/>
      </g>
      <g id="Grupo_61" data-name="Grupo 61">
        <path id="Trazado_98" data-name="Trazado 98" d="M5483.076,569.386a10.6,10.6,0,1,1,10.595-10.595A10.608,10.608,0,0,1,5483.076,569.386Zm0-17.19a6.6,6.6,0,1,0,6.595,6.6A6.6,6.6,0,0,0,5483.076,552.2Z" fill="#e9e9e9"/>
      </g>
      <g id="Grupo_62" data-name="Grupo 62">
        <path id="Trazado_99" data-name="Trazado 99" d="M5508.194,569.386a10.6,10.6,0,1,1,10.6-10.595A10.607,10.607,0,0,1,5508.194,569.386Zm0-17.19a6.6,6.6,0,1,0,6.6,6.6A6.6,6.6,0,0,0,5508.194,552.2Z" fill="#e9e9e9"/>
      </g>
      <path id="Trazado_100" data-name="Trazado 100" d="M5502.165,527.225a20.661,20.661,0,0,1-7.231,12.3,20.315,20.315,0,0,1-13.368,4.635,20.552,20.552,0,0,1-19.579-16.933,3.253,3.253,0,0,1,2.321-1.483,3.165,3.165,0,0,1,2.254.663,15.734,15.734,0,0,0,31.028,0,3.215,3.215,0,0,1,2.591-.606,3.179,3.179,0,0,1,1.984,1.43" fill="#e9e9e9"/>
    </g>
  </g>
</svg>
