<svg xmlns="http://www.w3.org/2000/svg" width="383.159" height="27.811" viewBox="0 0 520.159 37.811">
  <g id="Grupo_56" data-name="Grupo 56" transform="translate(-4081.621 -80.044)">
    <path id="Trazado_74" data-name="Trazado 74" d="M4098.583,117.854a22.611,22.611,0,0,1-8.717-1.549,12.79,12.79,0,0,1-5.856-4.7,15.189,15.189,0,0,1-2.337-7.982q-.053-2.152-.052-4.621t.052-4.727a14.854,14.854,0,0,1,2.39-7.9A13.208,13.208,0,0,1,4090,81.619a22.025,22.025,0,0,1,8.586-1.575,24.827,24.827,0,0,1,6.486.814,17.036,17.036,0,0,1,5.383,2.468,12.271,12.271,0,0,1,3.728,4.1,11.906,11.906,0,0,1,1.418,5.7,1.027,1.027,0,0,1-.342.788,1.159,1.159,0,0,1-.813.314h-8.875a1.753,1.753,0,0,1-1.156-.314,2.468,2.468,0,0,1-.63-1.1,5.078,5.078,0,0,0-2-3.046,6.124,6.124,0,0,0-3.2-.788,5.277,5.277,0,0,0-3.676,1.234q-1.366,1.234-1.471,4.333-.157,4.306,0,8.822.105,3.1,1.471,4.333a5.273,5.273,0,0,0,3.676,1.234,5.956,5.956,0,0,0,3.23-.84,5.009,5.009,0,0,0,1.969-2.993,1.949,1.949,0,0,1,.6-1.13,1.994,1.994,0,0,1,1.182-.289h8.875a1.159,1.159,0,0,1,.813.315,1.029,1.029,0,0,1,.342.788,11.9,11.9,0,0,1-1.418,5.7,12.271,12.271,0,0,1-3.728,4.1,17.014,17.014,0,0,1-5.383,2.468,24.827,24.827,0,0,1-6.486.814" fill="#e9e9e9"/>
    <path id="Trazado_75" data-name="Trazado 75" d="M4128.358,117.854a11.745,11.745,0,0,1-5.172-1.1,8.946,8.946,0,0,1-3.571-2.967,7.169,7.169,0,0,1-1.287-4.175,6.923,6.923,0,0,1,3.072-5.961,19.553,19.553,0,0,1,8.219-3.019l6.039-.946v-.367a4.765,4.765,0,0,0-.5-2.442,2.257,2.257,0,0,0-2.075-.814,3.37,3.37,0,0,0-1.785.42,4.54,4.54,0,0,0-1.26,1.208,1.763,1.763,0,0,1-1.365.578h-7.4a1.207,1.207,0,0,1-.893-.316.984.984,0,0,1-.262-.84,5.261,5.261,0,0,1,.787-2.232,9.1,9.1,0,0,1,2.285-2.52,12.862,12.862,0,0,1,4.017-2.048,19.045,19.045,0,0,1,5.934-.814,20.387,20.387,0,0,1,6.039.787,11.389,11.389,0,0,1,4.149,2.206,8.66,8.66,0,0,1,2.415,3.44,12.261,12.261,0,0,1,.788,4.49v15.544a1.346,1.346,0,0,1-1.365,1.365H4137.5a1.343,1.343,0,0,1-.945-.394,1.274,1.274,0,0,1-.421-.971v-1.68a6.681,6.681,0,0,1-1.811,1.837,9.6,9.6,0,0,1-2.626,1.26,11.012,11.012,0,0,1-3.335.473m3.046-6.879a4.547,4.547,0,0,0,2.284-.552,3.889,3.889,0,0,0,1.55-1.706,6.441,6.441,0,0,0,.577-2.888v-.368l-3.781.735a5.767,5.767,0,0,0-2.731,1.077,2.067,2.067,0,0,0-.787,1.549,1.747,1.747,0,0,0,.367,1.1,2.574,2.574,0,0,0,1.024.761,3.677,3.677,0,0,0,1.5.289" fill="#e9e9e9"/>
    <path id="Trazado_76" data-name="Trazado 76" d="M4153.092,117.329a1.344,1.344,0,0,1-1.365-1.365V91.387a1.344,1.344,0,0,1,1.365-1.366h7.615a1.345,1.345,0,0,1,1.365,1.366V93.33a12.276,12.276,0,0,1,3.6-2.416,10.885,10.885,0,0,1,4.438-.893h2.363a1.413,1.413,0,0,1,1,.394,1.28,1.28,0,0,1,.42.972v6.774a1.435,1.435,0,0,1-1.418,1.418h-5.881a3.974,3.974,0,0,0-2.889.972,3.819,3.819,0,0,0-1,2.862v12.551a1.344,1.344,0,0,1-1.365,1.365Z" fill="#e9e9e9"/>
    <path id="Trazado_77" data-name="Trazado 77" d="M4178.613,117.329a1.344,1.344,0,0,1-1.365-1.365V81.409a1.344,1.344,0,0,1,1.365-1.365h7.825a1.346,1.346,0,0,1,.945.394,1.278,1.278,0,0,1,.42.971v34.555a1.277,1.277,0,0,1-.42.971,1.346,1.346,0,0,1-.945.394Z" fill="#e9e9e9"/>
    <path id="Trazado_78" data-name="Trazado 78" d="M4206.971,117.854a19.753,19.753,0,0,1-7.8-1.365,10.444,10.444,0,0,1-4.858-4.017,13.087,13.087,0,0,1-1.891-6.38q-.052-1.1-.052-2.417t.052-2.415a12.387,12.387,0,0,1,2-6.407,11.168,11.168,0,0,1,4.962-3.991,21.779,21.779,0,0,1,15.178,0,11.179,11.179,0,0,1,4.962,3.991,12.4,12.4,0,0,1,2,6.407q.1,1.1.1,2.415t-.1,2.417a13.108,13.108,0,0,1-1.891,6.38,10.452,10.452,0,0,1-4.858,4.017,19.759,19.759,0,0,1-7.8,1.365m0-7.4a2.924,2.924,0,0,0,2.678-1.156,7.157,7.157,0,0,0,.84-3.465q.053-.788.053-2.154t-.053-2.152a7.219,7.219,0,0,0-.84-3.44,2.9,2.9,0,0,0-2.678-1.182,2.842,2.842,0,0,0-2.626,1.182,7.6,7.6,0,0,0-.892,3.44q-.054.786-.053,2.152t.053,2.154a7.514,7.514,0,0,0,.892,3.465,2.865,2.865,0,0,0,2.626,1.156" fill="#e9e9e9"/>
    <path id="Trazado_79" data-name="Trazado 79" d="M4238.164,117.854a21.289,21.289,0,0,1-6.092-.761,13.856,13.856,0,0,1-4.122-1.917,8.286,8.286,0,0,1-2.337-2.389,4.936,4.936,0,0,1-.788-2.18,1.157,1.157,0,0,1,.342-.971,1.205,1.205,0,0,1,.866-.394h7.615a.755.755,0,0,1,.157.026.485.485,0,0,1,.21.131,4,4,0,0,1,1.287.683,7.53,7.53,0,0,0,1.365.841,4.127,4.127,0,0,0,1.812.367,3.251,3.251,0,0,0,1.6-.394,1.232,1.232,0,0,0,.708-1.129,1.672,1.672,0,0,0-.393-1.1,3.949,3.949,0,0,0-1.654-.919,30.328,30.328,0,0,0-4.044-.971,20.037,20.037,0,0,1-4.7-1.549,8.61,8.61,0,0,1-3.361-2.757,7.318,7.318,0,0,1,.184-8.4,10.276,10.276,0,0,1,4.227-3.282,16.558,16.558,0,0,1,6.906-1.286,18.688,18.688,0,0,1,5.488.735,15.479,15.479,0,0,1,4.043,1.837,9.188,9.188,0,0,1,2.521,2.364,4.555,4.555,0,0,1,.919,2.258,1.2,1.2,0,0,1-.315.972,1.124,1.124,0,0,1-.84.393h-6.88a2.345,2.345,0,0,1-.341-.026.486.486,0,0,1-.289-.132,3.411,3.411,0,0,1-1.339-.6,13.618,13.618,0,0,0-1.287-.84,3.425,3.425,0,0,0-1.733-.394,2.321,2.321,0,0,0-1.444.42,1.322,1.322,0,0,0-.551,1.1,1.668,1.668,0,0,0,.367,1.05,3.6,3.6,0,0,0,1.681.893,32.558,32.558,0,0,0,4.149.893,16.225,16.225,0,0,1,5.881,1.916,8.3,8.3,0,0,1,3.151,3.125,7.572,7.572,0,0,1,.946,3.571,7.248,7.248,0,0,1-1.6,4.673,10.075,10.075,0,0,1-4.726,3.073,23.474,23.474,0,0,1-7.589,1.076" fill="#e9e9e9"/>
    <path id="Trazado_80" data-name="Trazado 80" d="M4268.162,117.33a1.167,1.167,0,0,1-1.208-1.208V85.243h-10.083a1.167,1.167,0,0,1-1.208-1.208V81.83a1.239,1.239,0,0,1,.341-.919,1.178,1.178,0,0,1,.867-.341h25.312a1.175,1.175,0,0,1,1.26,1.26v2.205a1.174,1.174,0,0,1-.341.867,1.241,1.241,0,0,1-.919.341h-10.03v30.879a1.178,1.178,0,0,1-.341.867,1.247,1.247,0,0,1-.92.341Z" fill="#e9e9e9"/>
    <path id="Trazado_81" data-name="Trazado 81" d="M4299.513,117.854a11.384,11.384,0,0,1-8.612-3.334,13.745,13.745,0,0,1-3.519-9.111q-.052-.682-.052-1.76t.052-1.759a15.356,15.356,0,0,1,1.733-6.538,10.821,10.821,0,0,1,4.175-4.332,12.273,12.273,0,0,1,6.223-1.524,12.469,12.469,0,0,1,6.7,1.681,10.711,10.711,0,0,1,4.122,4.779,17.279,17.279,0,0,1,1.418,7.247v.893a1.156,1.156,0,0,1-.341.892,1.23,1.23,0,0,1-.867.315h-18.17v.473a10.959,10.959,0,0,0,.946,4.017,7.471,7.471,0,0,0,2.415,3.02,6.213,6.213,0,0,0,3.781,1.155,7.562,7.562,0,0,0,3.151-.577,8.063,8.063,0,0,0,2.048-1.287,7.923,7.923,0,0,0,1.051-1.077,2.651,2.651,0,0,1,.735-.813,1.977,1.977,0,0,1,.84-.132h2.521a1.3,1.3,0,0,1,.866.289.889.889,0,0,1,.289.814,4.065,4.065,0,0,1-.84,1.917,10.148,10.148,0,0,1-2.258,2.232,12.68,12.68,0,0,1-3.571,1.812,15.123,15.123,0,0,1-4.832.708m-7.142-16.174h14.389v-.157a9.739,9.739,0,0,0-.866-4.2,7.006,7.006,0,0,0-2.5-2.915,6.9,6.9,0,0,0-3.886-1.076,6.768,6.768,0,0,0-3.859,1.076,6.868,6.868,0,0,0-2.442,2.915,9.992,9.992,0,0,0-.841,4.2Z" fill="#e9e9e9"/>
    <path id="Trazado_82" data-name="Trazado 82" d="M4319.258,117.33a1.167,1.167,0,0,1-1.208-1.208V91.283a1.267,1.267,0,0,1,.341-.894,1.136,1.136,0,0,1,.867-.367h2.416a1.253,1.253,0,0,1,1.26,1.261v2.31a6.67,6.67,0,0,1,2.888-2.679,10.035,10.035,0,0,1,4.412-.892h2.1a1.091,1.091,0,0,1,.841.341,1.236,1.236,0,0,1,.314.867v2.153a1.083,1.083,0,0,1-1.155,1.155h-3.15a5.978,5.978,0,0,0-4.465,1.655,6.119,6.119,0,0,0-1.627,4.489v15.44a1.133,1.133,0,0,1-.368.867,1.267,1.267,0,0,1-.893.341Z" fill="#e9e9e9"/>
    <path id="Trazado_83" data-name="Trazado 83" d="M4337.48,117.33a1.168,1.168,0,0,1-1.208-1.208v-1.838a1.793,1.793,0,0,1,.237-.893,8.776,8.776,0,0,1,.5-.788L4351.5,94.171h-13.548a1.227,1.227,0,0,1-.866-.316,1.147,1.147,0,0,1-.342-.892V91.23a1.168,1.168,0,0,1,1.208-1.208h18.695a1.167,1.167,0,0,1,1.208,1.208v1.943a1.525,1.525,0,0,1-.236.84q-.237.369-.5.788l-14.337,18.38H4357.7a1.23,1.23,0,0,1,.867.315,1.157,1.157,0,0,1,.341.893v1.733a1.167,1.167,0,0,1-1.208,1.208Z" fill="#e9e9e9"/>
    <path id="Trazado_84" data-name="Trazado 84" d="M4372.35,117.854a10.756,10.756,0,0,1-4.779-1.05,9.226,9.226,0,0,1-3.466-2.836,6.652,6.652,0,0,1-1.313-4.043,6.8,6.8,0,0,1,2.941-5.777,16.886,16.886,0,0,1,7.667-2.835l7.825-1.1V98.686a5.268,5.268,0,0,0-1.444-3.938q-1.446-1.419-4.7-1.418a6.855,6.855,0,0,0-3.808.945,5.075,5.075,0,0,0-2.021,2.416,1.118,1.118,0,0,1-1.1.788h-2.364a1.066,1.066,0,0,1-.866-.342,1.215,1.215,0,0,1-.289-.814,4.413,4.413,0,0,1,.6-1.943,7.975,7.975,0,0,1,1.865-2.258,10.741,10.741,0,0,1,3.229-1.864,13.382,13.382,0,0,1,4.8-.762,15.1,15.1,0,0,1,5.3.814,8.55,8.55,0,0,1,3.387,2.18,8.355,8.355,0,0,1,1.786,3.1,11.524,11.524,0,0,1,.551,3.518v17.016a1.169,1.169,0,0,1-1.208,1.208h-2.415a1.152,1.152,0,0,1-.893-.342,1.226,1.226,0,0,1-.315-.866v-2.259a9.6,9.6,0,0,1-4.726,3.387,13.02,13.02,0,0,1-4.254.6m1.1-3.938a8.471,8.471,0,0,0,3.938-.919,6.536,6.536,0,0,0,2.81-2.862,10.408,10.408,0,0,0,1.024-4.885v-1.47l-6.092.894a14.053,14.053,0,0,0-5.619,1.758,3.645,3.645,0,0,0-1.891,3.125,3.529,3.529,0,0,0,.867,2.442,5.217,5.217,0,0,0,2.206,1.444,8.226,8.226,0,0,0,2.757.473" fill="#e9e9e9"/>
    <path id="Trazado_85" data-name="Trazado 85" d="M4394.93,117.33a1.167,1.167,0,0,1-1.208-1.208V91.23a1.167,1.167,0,0,1,1.208-1.208h2.468a1.167,1.167,0,0,1,1.208,1.208v2.311a10.714,10.714,0,0,1,3.44-2.915,11.088,11.088,0,0,1,5.33-1.129,10.729,10.729,0,0,1,5.8,1.5,9.355,9.355,0,0,1,3.6,4.149,14.763,14.763,0,0,1,1.208,6.171v14.809a1.23,1.23,0,0,1-.315.867,1.091,1.091,0,0,1-.84.341H4414.2a1.167,1.167,0,0,1-1.208-1.208V101.575a8.536,8.536,0,0,0-1.785-5.75,6.551,6.551,0,0,0-5.252-2.075,6.868,6.868,0,0,0-5.225,2.075,8.015,8.015,0,0,0-1.969,5.75v14.547a1.167,1.167,0,0,1-1.208,1.208Z" fill="#e9e9e9"/>
    <path id="Trazado_86" data-name="Trazado 86" d="M4436.731,117.855a13.33,13.33,0,0,1-6.669-1.523,10.239,10.239,0,0,1-4.1-4.227,14.543,14.543,0,0,1-1.576-6.171q-.053-.893-.052-2.284t.052-2.232a14.206,14.206,0,0,1,1.6-6.2,10.46,10.46,0,0,1,4.123-4.2,15.134,15.134,0,0,1,13.233,0,10.476,10.476,0,0,1,4.122,4.2,14.226,14.226,0,0,1,1.6,6.2q.053.84.053,2.232t-.053,2.284a14.557,14.557,0,0,1-1.575,6.171,10.245,10.245,0,0,1-4.1,4.227,13.337,13.337,0,0,1-6.67,1.523m0-4.044a6.784,6.784,0,0,0,5.2-2.074,9.112,9.112,0,0,0,2.1-6.066q.053-.787.053-1.995t-.053-2a9.111,9.111,0,0,0-2.1-6.065,6.784,6.784,0,0,0-5.2-2.074,6.868,6.868,0,0,0-5.225,2.074,8.838,8.838,0,0,0-2.074,6.065q-.054.789-.053,2t.053,1.995a8.839,8.839,0,0,0,2.074,6.066,6.868,6.868,0,0,0,5.225,2.074" fill="#e9e9e9"/>
    <path id="Trazado_87" data-name="Trazado 87" d="M4464.533,110.531a5.671,5.671,0,1,1-7.076-3.774,5.671,5.671,0,0,1,7.076,3.774" fill="#e9e9e9"/>
  </g>
</svg>
