<svg xmlns="http://www.w3.org/2000/svg" width="57.369" height="58.184" viewBox="0 0 57.369 58.184">
  <path id="Trazado_138" data-name="Trazado 138" d="M1496.095,1711.309c-15.3.256-29.178-12.8-28.308-30.132.713-14.2,12.457-27.375,28.841-27.042a28.353,28.353,0,0,1,27.48,29.234c-.234,15.183-12.622,28.088-28.012,27.94m-18.229-12.5.049.207c.014-.009.043-.024.042-.027-.025-.064-.052-.127-.079-.19-.063-.32-.112-.644-.191-.959a23.969,23.969,0,0,1-.619-9.485,16.862,16.862,0,0,1,4-8.673,22.467,22.467,0,0,1,7.491-5.677,16.791,16.791,0,0,1,9.384-1.579,18.229,18.229,0,0,1,7.073,2.471,21.519,21.519,0,0,1,7.173,6.57c2.708,4.1,3.293,8.64,2.6,13.43-.184,1.278-.538,2.517-.746,3.787-.028.063-.055.125-.08.19,0,0,.028.018.042.027.017-.069.034-.137.05-.207a.458.458,0,0,0,.347-.265,18.428,18.428,0,0,0,1.686-3.34,22.089,22.089,0,0,0,1.05-11.748,21.519,21.519,0,0,0-5.9-11.385,21.191,21.191,0,0,0-6.888-4.753,21.01,21.01,0,0,0-19.159,1.209,21.927,21.927,0,0,0-8.542,9.148,21.619,21.619,0,0,0-2.119,7.211,22.194,22.194,0,0,0,.123,6.021,20.073,20.073,0,0,0,1.816,5.814,5.538,5.538,0,0,0,1.4,2.2m-4.122-2.663c.017.069.033.138.05.207.014-.009.043-.024.042-.027-.025-.064-.052-.127-.08-.19a2.312,2.312,0,0,0-.063-.339,28.461,28.461,0,0,1-1.412-7.222,22.07,22.07,0,0,1,.358-5.517,24.1,24.1,0,0,1,7.435-13.527,22.37,22.37,0,0,1,6.18-4.087,23.673,23.673,0,0,1,24.359,3.061,23.736,23.736,0,0,1,6.494,8.023,22.779,22.779,0,0,1,2.412,8.788,25.026,25.026,0,0,1-.835,8.634c-.244.839-.478,1.682-.716,2.522a13.555,13.555,0,0,0,2.131-3.729,26.61,26.61,0,0,0,1.885-8.339,25.194,25.194,0,0,0-.309-5.969,26.038,26.038,0,0,0-23.6-22.03,25.1,25.1,0,0,0-5.915.183,26.052,26.052,0,0,0-16.148,9.1,26.581,26.581,0,0,0-6.133,15.542,27.081,27.081,0,0,0,.188,5.013,24.244,24.244,0,0,0,2.659,8.479,3.23,3.23,0,0,0,1.017,1.425m39.275-4.215a17.2,17.2,0,0,0-17.04-17.285,17.281,17.281,0,0,0-.25,34.553,17.24,17.24,0,0,0,17.29-17.268" transform="translate(-1467.243 -1653.629)" fill="none" stroke="#e9e9e9" stroke-miterlimit="10" stroke-width="1"/>
</svg>
