<svg xmlns="http://www.w3.org/2000/svg" width="54.336" height="54.95" viewBox="0 0 54.336 54.95">
  <path id="Trazado_139" data-name="Trazado 139" d="M414.567,1681.368l-20.293.474,17.747-10.589a1.273,1.273,0,0,0,.442-1.733,1.244,1.244,0,0,0-1.714-.447l-17.994,10.736,10-17.938a1.274,1.274,0,0,0-.476-1.724,1.244,1.244,0,0,0-1.7.481l-9.834,17.639v-20.731a1.252,1.252,0,1,0-2.5,0v21.326l-10.178-17.082a1.244,1.244,0,0,0-1.718-.431,1.273,1.273,0,0,0-.426,1.737l9.971,16.734-17.958-10.564a1.245,1.245,0,0,0-1.712.458,1.274,1.274,0,0,0,.453,1.731l18.055,10.62-20.989.49a1.266,1.266,0,0,0,.028,2.531h.029l20.938-.489-17.773,10.6a1.274,1.274,0,0,0-.442,1.734,1.249,1.249,0,0,0,1.08.622,1.233,1.233,0,0,0,.634-.176l17.764-10.6L375.6,1705.418a1.273,1.273,0,0,0,.476,1.724,1.232,1.232,0,0,0,.613.164,1.252,1.252,0,0,0,1.092-.644l10.452-18.75v21.042a1.252,1.252,0,1,0,2.5,0v-20.985l11.416,19.16a1.242,1.242,0,0,0,1.718.431,1.274,1.274,0,0,0,.427-1.738l-11.229-18.845L410.62,1697.3a1.241,1.241,0,0,0,1.711-.458,1.274,1.274,0,0,0-.453-1.731l-18.226-10.721,20.973-.49a1.266,1.266,0,0,0-.058-2.531Z" transform="translate(-362.012 -1655.77)" fill="none" stroke="#e9e9e9" stroke-miterlimit="10" stroke-width="1"/>
</svg>
