<?xml version="1.0" encoding="UTF-8"?>
<svg id="Layer_1" data-name="Layer 1" xmlns="http://www.w3.org/2000/svg" viewBox="0 0 983 288">
  <defs>
    <style>
      .cls-1 {
        fill: #fff;
        font-family: Manrope-ExtraBold, Manrope;
        font-size: 33.7px;
        font-variation-settings: 'wght' 800;
        font-weight: 700;
      }

      .cls-2 {
        fill: #c3996b;
        stroke-width: 0px;
      }
    </style>
  </defs>
  <g>
    <path class="cls-2" d="M140.51,91.67c0,.44-.09.85-.26,1.25-.18.39-.44.72-.79.98-.35.26-.74.44-1.18.52-10.23,1.14-19.76,3.06-28.58,5.77-9.79,43.09-17.44,77.93-22.95,104.5-1.83,8.3-4.46,14.97-7.87,20-3.41,5.03-7.43,8.11-12.06,9.24-1.22.35-2.49.52-3.8.52-6.12,0-11.76-3.1-16.91-9.31-3.76-4.55-6.6-10.64-8.52-18.29-1.92-7.65-2.54-16.39-1.83-26.22.7-9.83,2.88-19.34,6.56-28.52,6.56-16.08,17-29.37,31.34-39.86,9.18-6.64,19.8-11.97,31.86-16,3.67-16.26,6.82-29.76,9.44-40.51,1.4-5.68,2.23-10.49,2.49-14.42.26-3.93.2-6.53-.2-7.8-.39-1.27-.85-1.99-1.38-2.16-1.05-.35-2.54.24-4.46,1.77-1.92,1.53-3.98,3.85-6.16,6.95-2.19,3.1-3.93,6.45-5.24,10.03-.61,1.66-1.09,3.3-1.44,4.92-.35,1.62-.52,3.39-.52,5.31s.5,3.69,1.51,5.31c1,1.62,2.47,2.86,4.39,3.74.61.26,1.05.72,1.31,1.38.26.66.26,1.29,0,1.9-.26.61-.72,1.05-1.38,1.31-.66.26-1.33.26-2.03,0-4.28-1.92-7.02-5.16-8.2-9.7-1.18-4.54-.63-9.88,1.64-16,2.18-5.94,5.51-11.34,9.96-16.19,4.46-4.85,8.48-6.71,12.06-5.57,6.12,1.84,6.95,11.98,2.49,30.42-2.45,10.14-5.38,22.68-8.79,37.63,8.3-2.36,17.22-4.06,26.75-5.11.61-.09,1.2.09,1.77.52.57.44.9,1.01.98,1.7ZM81.77,203.64c5.33-25.44,12.8-59.31,22.42-101.62-8.13,2.88-15.49,6.38-22.09,10.49-6.6,4.11-12.13,8.54-16.59,13.31-4.46,4.77-8.15,9.42-11.08,13.96-2.93,4.55-5.4,9.31-7.41,14.29-2.88,7.08-4.83,14.84-5.83,23.27-1.01,8.43-.79,16.76.66,24.98,1.44,8.21,4.13,14.73,8.06,19.54,2.45,2.97,5.05,5.07,7.8,6.29,2.75,1.22,5.4,1.53,7.93.92,3.67-.87,6.88-3.5,9.64-7.87,2.75-4.37,4.92-10.23,6.49-17.57Z"/>
    <path class="cls-2" d="M181.68,123.59c.7-.13,1.33-.02,1.9.33.57.35.94.88,1.12,1.57.17.7.09,1.31-.26,1.84-1.05,1.66-2.19,3.43-3.41,5.31-1.22,1.88-3.04,4.44-5.44,7.67-2.41,3.24-4.7,6.05-6.88,8.46-2.19,2.41-4.55,4.52-7.08,6.36-2.54,1.83-4.72,2.75-6.56,2.75-.7,0-1.31-.13-1.84-.39-4.2-1.57-5.38-8.26-3.54-20.06-2.88,3.93-5.51,6.91-7.87,8.92-3.41,2.88-6.38,3.24-8.92,1.05-2.36-1.92-3.43-5.33-3.21-10.23.22-4.89,1.64-9.62,4.26-14.16.35-.61.87-1,1.57-1.18.7-.17,1.35-.09,1.97.26.61.35,1,.85,1.18,1.51.17.66.09,1.29-.26,1.9-1.49,2.45-2.51,5.03-3.08,7.74-.57,2.71-.74,4.96-.52,6.75.22,1.79.63,2.95,1.25,3.47.44.44,1.27.13,2.49-.92,2.27-1.92,5.11-5.38,8.52-10.36.61-.79,1.07-1.38,1.38-1.77.3-.39.68-.87,1.11-1.44.44-.57.79-.94,1.05-1.11.26-.17.57-.37.92-.59.35-.22.7-.31,1.05-.26.35.04.74.15,1.18.33,1.14.44,1.75,1.42,1.84,2.95.09,1.53-.13,3.52-.66,5.97-.96,4.81-1.33,8.48-1.12,11.01.22,2.54.41,4.09.59,4.65.17.57.39.85.66.85.26.17.72.11,1.38-.2.66-.31,1.44-.81,2.36-1.51.92-.7,1.94-1.59,3.08-2.69,1.13-1.09,2.43-2.43,3.87-4,1.44-1.57,2.91-3.3,4.39-5.18,1.49-1.88,3.1-4.06,4.85-6.56,1.75-2.49,3.45-5.13,5.11-7.93.35-.61.87-.98,1.57-1.12Z"/>
    <path class="cls-2" d="M216.03,29.39c1.83,2.71.94,9.11-2.69,19.21-3.63,10.1-9.51,21.61-17.63,34.55l-.26.26c-5.51,22.03-10.77,45-15.8,68.9s-8.24,40.93-9.64,51.07h.26c.7.26,1.2.7,1.51,1.31.31.61.33,1.27.07,1.97-.52,1.49-.94,2.6-1.25,3.34-.3.74-.76,1.46-1.38,2.16-.61.7-1.27,1.05-1.97,1.05-.26,0-.57-.05-.92-.13-1.22-.44-1.88-1.64-1.97-3.61-.09-1.97.52-6.8,1.84-14.49,1.57-9.44,3.93-21.77,7.08-36.97,7.25-34.62,14.47-65.47,21.63-92.57.61-2.27,1.27-4.66,1.97-7.15.7-2.49,1.71-5.62,3.02-9.38,1.31-3.76,2.6-7.06,3.87-9.9,1.27-2.84,2.69-5.38,4.26-7.6,1.57-2.23,3.06-3.43,4.46-3.61,1.49-.26,2.67.26,3.54,1.57ZM200.04,65.84c6.99-13.2,10.93-23.56,11.8-31.07-3.85,5.77-7.78,16.13-11.8,31.07Z"/>
    <path class="cls-2" d="M233.93,122.09c.66-.17,1.29-.09,1.9.26.61.35.98.88,1.12,1.57.13.7.02,1.36-.33,1.97-2.45,3.85-5.4,7.85-8.85,12-3.45,4.15-7.34,7.89-11.67,11.21-4.33,3.32-7.98,4.98-10.95,4.98-1.05,0-1.97-.18-2.75-.52-5.85-2.53-6.47-12.8-1.83-30.81.17-.7.57-1.22,1.18-1.57.61-.35,1.25-.44,1.9-.26.66.18,1.16.57,1.51,1.18.35.61.44,1.23.26,1.84-1.05,4.2-1.81,7.89-2.29,11.08-.48,3.19-.7,5.62-.66,7.28.04,1.66.22,3.04.52,4.13.31,1.09.57,1.75.79,1.97.22.22.41.37.59.46,2.27.96,6.4-1.31,12.39-6.82,5.99-5.51,11.17-11.8,15.54-18.88.44-.53.98-.87,1.64-1.05ZM204.89,111.86c-2.54-.17-3.32-1.22-2.36-3.15.87-1.57,2.01-2.62,3.41-3.15,2.18-.7,3.5-.13,3.93,1.71.44,1.75-.22,3.06-1.97,3.93-.87.44-1.88.66-3.02.66Z"/>
    <path class="cls-2" d="M243.04,146.74c1.66,1.22,2.49,2.93,2.49,5.11s-.94,4.72-2.82,7.34c-1.88,2.62-4.09,4.89-6.62,6.82-.44.35-.96.52-1.57.52-.88,0-1.53-.35-1.97-1.05-.44-.52-.61-1.14-.52-1.84.09-.7.44-1.27,1.05-1.71,2.01-1.57,3.76-3.34,5.25-5.31,1.49-1.97,2.23-3.56,2.23-4.79,0-.44-.18-.79-.52-1.05-.61-.44-.96-.98-1.05-1.64-.09-.66.07-1.27.46-1.84.39-.57.94-.92,1.64-1.05.7-.13,1.35.02,1.97.46Z"/>
    <path class="cls-2" d="M400.77,98.62c5.07,6.38,7.84,14.27,8.33,23.67.48,9.4-1.42,18.99-5.7,28.78-6.38,14.77-16.48,26.68-30.29,35.73-13.81,9.05-29.76,14.23-47.86,15.54h-.13c-.7,0-1.29-.22-1.77-.66-.48-.44-.72-1.01-.72-1.7-.09-.7.11-1.31.59-1.84.48-.52,1.03-.79,1.64-.79,17.13-1.23,32.23-6.1,45.3-14.62,13.07-8.52,22.62-19.73,28.65-33.63,3.93-9,5.7-17.74,5.31-26.22-.39-8.48-2.82-15.51-7.28-21.11-4.9-6.03-11.63-9.62-20.19-10.75-7.43,7.69-16.3,14.86-26.62,21.5-10.32,6.64-18.27,10.32-23.86,11.01-9.96,49.74-15.56,80.94-16.78,93.62.17-.44.35-.87.52-1.31.26-.7.72-1.18,1.38-1.44.66-.26,1.31-.26,1.97,0,.66.26,1.11.72,1.38,1.38.26.66.26,1.29,0,1.9-1.49,3.67-2.73,6.27-3.74,7.8-1.01,1.53-2.08,2.29-3.21,2.29-.35,0-.7-.09-1.05-.26-.96-.26-1.62-.9-1.97-1.9-.35-1.01-.46-3.37-.33-7.08.13-3.72.81-9.29,2.03-16.72,1.22-7.43,3.04-17.62,5.44-30.55,2.4-12.94,5.57-29.24,9.51-48.91-1.23-1.13-1.62-2.67-1.18-4.59.87-3.15,2.18-6.16,3.93-9.05,1.57-7.78,3.28-16.3,5.11-25.57,5.51-26.83,9.09-44.71,10.75-53.63-4.11,1.05-7.96,2.49-11.54,4.33-6.38,3.06-11.56,7.01-15.54,11.87-3.98,4.85-6.6,10.27-7.87,16.26-1.27,5.99-1.16,12.52.33,19.6.17.7.07,1.33-.33,1.9-.39.57-.92.94-1.57,1.11-.66.18-1.29.07-1.9-.33-.61-.39-.96-.94-1.05-1.64-2.62-11.71-1.68-22.22,2.82-31.53,4.5-9.31,12.13-16.59,22.88-21.83,4.63-2.27,9.57-3.98,14.82-5.11.17-1.05.35-1.88.53-2.49,0-.44.15-.83.46-1.18.31-.35.68-.59,1.12-.72.44-.13.87-.15,1.31-.07.7.09,1.25.42,1.64.98.39.57.5,1.2.33,1.9v.52c9-1.31,17.55-.87,25.63,1.31,8.08,2.19,14.23,5.86,18.42,11.01,2.53,3.06,4.22,6.42,5.05,10.1.83,3.67,1,7.17.52,10.49-.48,3.32-1.46,6.8-2.95,10.42-1.49,3.63-3.04,6.75-4.65,9.37-1.62,2.62-3.39,5.2-5.31,7.74-.7,1.05-1.53,2.1-2.49,3.15,8.48,1.75,15.21,5.73,20.19,11.93ZM327.21,118.28c4.54-1.31,11.1-4.59,19.67-9.83,8.57-5.25,16.26-11.14,23.08-17.7-3.41,0-6.99.39-10.75,1.18-6.03,1.22-11.82,3.41-17.37,6.56-5.55,3.15-9.9,7.17-13.05,12.06-.61,3.15-1.14,5.73-1.57,7.74ZM374.68,85.77c1.66-1.75,3.15-3.5,4.46-5.24,6.38-8.65,10.23-16.56,11.54-23.73,1.31-7.17-.04-13.2-4.06-18.09-3.85-4.63-9.57-7.87-17.18-9.7-7.61-1.83-15.65-2.01-24.13-.52-1.66,9-5.38,27.54-11.14,55.59-1.31,6.38-2.41,11.8-3.28,16.26,7.17-6.73,16.3-11.19,27.4-13.37,5.77-1.13,11.23-1.53,16.39-1.18Z"/>
    <path class="cls-2" d="M463.44,122.54c.7-.13,1.33,0,1.9.39.57.39.9.94.98,1.64.09.7-.04,1.31-.39,1.84-9.88,13.81-18.88,23.6-27.01,29.37-3.23,2.27-6.42,3.41-9.57,3.41-2.45,0-4.59-.66-6.42-1.97-1.05-.79-1.99-1.84-2.82-3.15-.83-1.31-1.55-3.15-2.16-5.51-.61-2.36-.72-5.46-.33-9.31.39-3.85,1.38-8.22,2.95-13.11v-.13c2.45-7.95,5.42-14.25,8.92-18.88,3.5-4.63,6.64-6.99,9.44-7.08,2.01-.09,3.32.79,3.93,2.62.96,2.54-.18,6.12-3.41,10.75-3.23,4.63-8,9.62-14.29,14.95-1.05,3.41-1.79,6.56-2.23,9.44-.44,2.88-.59,5.18-.46,6.88.13,1.7.44,3.19.92,4.46.48,1.27.92,2.16,1.31,2.69s.81.96,1.25,1.31c2.62,1.92,5.99,1.4,10.1-1.57,7.69-5.42,16.26-14.77,25.7-28.06.44-.52,1-.85,1.71-.98ZM438.01,105.57c-3.06,1.92-6.08,6.08-9.05,12.46,5.07-5.07,8.08-9.22,9.05-12.46Z"/>
    <path class="cls-2" d="M497.66,29.39c1.83,2.71.94,9.11-2.69,19.21-3.63,10.1-9.51,21.61-17.63,34.55l-.26.26c-5.51,22.03-10.77,45-15.8,68.9s-8.24,40.93-9.64,51.07h.26c.7.26,1.2.7,1.51,1.31.31.61.33,1.27.07,1.97-.52,1.49-.94,2.6-1.25,3.34-.3.74-.76,1.46-1.38,2.16-.61.7-1.27,1.05-1.97,1.05-.26,0-.57-.05-.92-.13-1.22-.44-1.88-1.64-1.97-3.61-.09-1.97.52-6.8,1.84-14.49,1.57-9.44,3.93-21.77,7.08-36.97,7.25-34.62,14.47-65.47,21.63-92.57.61-2.27,1.27-4.66,1.97-7.15.7-2.49,1.71-5.62,3.02-9.38,1.31-3.76,2.6-7.06,3.87-9.9,1.27-2.84,2.69-5.38,4.26-7.6,1.57-2.23,3.06-3.43,4.46-3.61,1.49-.26,2.67.26,3.54,1.57ZM481.67,65.84c6.99-13.2,10.93-23.56,11.8-31.07-3.85,5.77-7.78,16.13-11.8,31.07Z"/>
    <path class="cls-2" d="M529.39,123.59c.7-.13,1.33-.02,1.9.33.57.35.94.88,1.12,1.57.17.7.09,1.31-.26,1.84-1.05,1.66-2.19,3.43-3.41,5.31-1.22,1.88-3.04,4.44-5.44,7.67-2.41,3.24-4.7,6.05-6.88,8.46-2.19,2.41-4.55,4.52-7.08,6.36-2.54,1.83-4.72,2.75-6.56,2.75-.7,0-1.31-.13-1.84-.39-4.2-1.57-5.38-8.26-3.54-20.06-2.88,3.93-5.51,6.91-7.87,8.92-3.41,2.88-6.38,3.24-8.92,1.05-2.36-1.92-3.43-5.33-3.21-10.23.22-4.89,1.64-9.62,4.26-14.16.35-.61.87-1,1.57-1.18.7-.17,1.35-.09,1.97.26.61.35,1,.85,1.18,1.51.17.66.09,1.29-.26,1.9-1.49,2.45-2.51,5.03-3.08,7.74-.57,2.71-.74,4.96-.52,6.75.22,1.79.63,2.95,1.25,3.47.44.44,1.27.13,2.49-.92,2.27-1.92,5.11-5.38,8.52-10.36.61-.79,1.07-1.38,1.38-1.77.3-.39.68-.87,1.11-1.44.44-.57.79-.94,1.05-1.11.26-.17.57-.37.92-.59.35-.22.7-.31,1.05-.26.35.04.74.15,1.18.33,1.14.44,1.75,1.42,1.84,2.95.09,1.53-.13,3.52-.66,5.97-.96,4.81-1.33,8.48-1.12,11.01.22,2.54.41,4.09.59,4.65.17.57.39.85.66.85.26.17.72.11,1.38-.2.66-.31,1.44-.81,2.36-1.51.92-.7,1.94-1.59,3.08-2.69,1.13-1.09,2.43-2.43,3.87-4,1.44-1.57,2.91-3.3,4.39-5.18,1.49-1.88,3.1-4.06,4.85-6.56,1.75-2.49,3.45-5.13,5.11-7.93.35-.61.87-.98,1.57-1.12Z"/>
    <path class="cls-2" d="M628.77,122.28c.7.13,1.25.48,1.64,1.05.39.57.5,1.2.33,1.9-.18.7-.52,1.22-1.05,1.57-15.47,10.05-28.15,20.06-38.02,30.03-5.16,30.86-10.8,55.9-16.91,75.13-7.26,22.64-14.29,34.92-21.11,36.84-.61.17-1.27.26-1.97.26-2.01,0-3.76-.88-5.25-2.62-2.45-3.15-3.78-8.35-4-15.6-.22-7.26.92-15.82,3.41-25.7,2.49-9.88,6.1-19.41,10.82-28.58,8.31-15.82,18.44-29.89,30.42-42.22,1.31-8.21,2.62-16.83,3.93-25.83-2.71,4.11-5.24,7.56-7.6,10.36-3.85,4.72-7.52,6.03-11.01,3.93-2.88-1.75-4.42-5.4-4.59-10.95-.18-5.55,1.09-11.6,3.8-18.16.26-.61.72-1.05,1.38-1.31.66-.26,1.29-.26,1.9,0,.61.26,1.07.7,1.38,1.31.31.61.33,1.27.07,1.97-2.36,6.38-3.52,11.58-3.47,15.6.04,4.02.76,6.42,2.16,7.21.96.61,2.45-.3,4.46-2.75,4.37-5.25,8.87-11.89,13.5-19.93.7-1.22,1.7-1.59,3.02-1.11,1.31.48,1.88,1.38,1.71,2.69-1.49,10.93-3.02,21.29-4.59,31.07,9-8.39,20.28-17,33.83-25.83.52-.35,1.13-.46,1.84-.33ZM569.9,230.52c5.59-17.48,10.79-39.82,15.6-67-9.44,10.49-17.57,22.29-24.39,35.4-3.76,7.17-6.75,14.49-8.98,21.96-2.23,7.47-3.61,14.01-4.13,19.6-.52,5.59-.57,10.4-.13,14.42.44,4.02,1.27,6.77,2.49,8.26.61.7,1.23.96,1.84.79.44-.09.92-.31,1.44-.66.52-.35,1.4-1.25,2.62-2.69,1.23-1.44,2.45-3.28,3.67-5.51,1.22-2.23,2.75-5.49,4.59-9.77,1.84-4.28,3.63-9.22,5.38-14.82Z"/>
    <path class="cls-2" d="M783.49,24.8c2.36,1.57,4.39,3.56,6.1,5.97,1.7,2.41,3.1,5.46,4.2,9.18,1.09,3.72,1.33,8.37.72,13.96-.61,5.6-2.14,11.85-4.59,18.75-8.04,22.29-18.71,39.77-31.99,52.45-5.33,5.07-10.82,9-16.46,11.8-5.64,2.8-10.99,4.2-16.06,4.2-.53,0-1.05-.04-1.57-.13-7.96-.52-13.59-4.28-16.91-11.28-11.01,45.71-17.35,74.78-19.01,87.19.17-.35.35-.74.52-1.18.26-.61.72-1.05,1.38-1.31.66-.26,1.29-.24,1.9.07.61.31,1.05.79,1.31,1.44.26.66.26,1.29,0,1.9-1.66,3.58-3.02,6.14-4.06,7.67-1.05,1.53-2.14,2.29-3.28,2.29-.35,0-.7-.09-1.05-.26-1.31-.44-2.06-1.68-2.23-3.74-.18-2.05.31-6.4,1.44-13.05,1.31-7.96,3.63-19.36,6.95-34.22,4.11-18.36,11.54-49.47,22.29-93.36,6.12-25.09,10.23-42.04,12.33-50.87-11.98,5.07-22.25,11.36-30.81,18.88-4.37,3.85-7.96,7.69-10.75,11.54-2.8,3.85-4.74,7.28-5.83,10.29-1.09,3.02-1.7,6.01-1.83,8.98-.13,2.97.04,5.44.52,7.41.48,1.97,1.16,3.87,2.03,5.7.35.61.41,1.25.2,1.9-.22.66-.63,1.14-1.25,1.44-.61.31-1.25.35-1.9.13-.66-.22-1.16-.63-1.51-1.25-3.85-7.69-4.31-15.91-1.38-24.65,2.93-8.74,9.02-17.18,18.29-25.31,10.05-8.74,21.94-15.78,35.66-21.11.35-1.75.7-3.32,1.05-4.72.09-.61.44-1.11,1.05-1.51.61-.39,1.25-.52,1.9-.39.66.13,1.18.5,1.57,1.12.39.61.5,1.27.33,1.97-.09.26-.18.74-.26,1.44,2.18-.7,4.37-1.35,6.56-1.97,9.35-2.53,17.85-3.58,25.5-3.15,7.65.44,13.96,2.36,18.95,5.77ZM785.06,70.95c1.14-3.15,2.08-6.16,2.82-9.05.74-2.88,1.27-6.01,1.57-9.37.31-3.36.26-6.42-.13-9.18-.39-2.75-1.31-5.42-2.75-8-1.44-2.58-3.43-4.74-5.97-6.49-4.28-2.88-9.94-4.48-16.98-4.79-7.04-.3-14.79.68-23.27,2.95-3.06.88-6.16,1.88-9.31,3.02-2.01,9-6.34,27.1-12.98,54.28-3.93,15.82-6.99,28.23-9.18,37.24.61.35,1,.88,1.18,1.57.87,3.93,2.51,6.99,4.92,9.18,2.4,2.19,5.44,3.41,9.11,3.67,4.46.26,9.35-.87,14.68-3.41,5.33-2.53,10.58-6.25,15.73-11.14,12.67-12.06,22.86-28.89,30.55-50.48Z"/>
    <path class="cls-2" d="M833.25,122.94c.66-.22,1.29-.17,1.9.13.61.31,1.03.79,1.25,1.44.22.66.2,1.29-.07,1.9-9.35,19.32-17.7,28.98-25.04,28.98-.44,0-.92-.04-1.44-.13-5.86-1.14-9.49-9-10.88-23.6-4.28,5.77-8.09,10.49-11.41,14.16-2.97,3.15-5.51,4.24-7.6,3.28-2.1-.79-3.1-3.06-3.02-6.82,0-3.15.7-6.9,2.1-11.28,1.4-4.37,3.45-8.61,6.16-12.72,2.71-4.11,5.64-6.69,8.79-7.74,4.63-1.66,8.92-.13,12.85,4.59.44.52.63,1.14.59,1.84-.04.7-.33,1.27-.85,1.71-.52.44-1.14.63-1.83.59-.7-.04-1.27-.33-1.71-.85-3.06-3.67-6.16-4.37-9.31-2.1-3.58,2.54-6.58,7.1-8.98,13.7-2.41,6.6-3.34,11.3-2.82,14.1.52-.44,1.13-1,1.83-1.71,3.5-3.76,7.78-9.13,12.85-16.13,1.13-1.57,1.92-2.67,2.36-3.28.7-.87,1.62-1.16,2.75-.85,1.14.31,1.75,1.07,1.84,2.29.17,4.28.52,8.09,1.05,11.41.52,3.32,1.05,5.83,1.57,7.54.52,1.71,1.14,3.13,1.84,4.26.7,1.14,1.25,1.86,1.64,2.16.39.31.81.46,1.25.46,1.22.26,2.77-.33,4.65-1.77,1.88-1.44,4.28-4.24,7.21-8.39,2.93-4.15,5.92-9.42,8.98-15.8.35-.7.85-1.16,1.51-1.38Z"/>
    <path class="cls-2" d="M883.2,122.54c.66-.13,1.29-.02,1.9.33.61.35,1,.88,1.18,1.57.17.7.04,1.31-.39,1.84-3.5,5.68-7.65,10.91-12.46,15.67-4.81,4.77-9.75,8.74-14.82,11.93-5.07,3.19-9.64,5.77-13.7,7.74s-8.15,3.65-12.26,5.05c-1.22.44-2.19.09-2.88-1.05-1.4,3.5-2.62,6.95-3.67,10.36-.35,1.13-1.18,1.7-2.49,1.7h-.39c-.61-.09-1.11-.37-1.51-.85-.39-.48-.59-1.03-.59-1.64.09-2.01,2.21-12.41,6.36-31.21,4.15-18.79,8.33-37.15,12.52-55.07,0-.26.04-.52.13-.79,1.49-6.29,2.71-11.36,3.67-15.21,2.97-12.06,6.4-22.36,10.29-30.88,3.89-8.52,7.23-13.05,10.03-13.57,1.49-.26,2.62.18,3.41,1.31,1.92,2.54.83,9.27-3.28,20.19-4.11,10.93-10.54,24.26-19.27,39.99-4.72,19.84-9.18,39.47-13.37,58.87,2.45-5.07,4.81-9.18,7.08-12.33,6.82-9.53,12.24-13.68,16.26-12.46,2.62.79,3.98,3.1,4.06,6.95,0,1.84-.29,3.91-.85,6.23-.57,2.32-1.51,4.87-2.82,7.67-1.31,2.8-2.88,5.46-4.72,8,13.64-8.04,23.99-17.79,31.08-29.24.35-.61.85-.98,1.51-1.12ZM831.21,161.81c3.15-1.14,6.1-2.82,8.85-5.05,2.75-2.23,5.03-4.65,6.82-7.28,1.79-2.62,3.23-5.18,4.33-7.67,1.09-2.49,1.86-4.83,2.29-7.01.61-3.06.61-5.03,0-5.9-.35,0-.81.15-1.38.46-.57.31-1.73,1.31-3.47,3.02-1.75,1.71-3.67,4.04-5.77,7.01-3.76,5.25-7.65,12.72-11.67,22.42ZM863.21,35.68c-4.72,6.99-9.18,18.4-13.37,34.22,7.6-15.38,12.06-26.79,13.37-34.22Z"/>
    <path class="cls-2" d="M917.62,29.39c1.83,2.71.94,9.11-2.69,19.21-3.63,10.1-9.51,21.61-17.63,34.55l-.26.26c-5.51,22.03-10.77,45-15.8,68.9s-8.24,40.93-9.64,51.07h.26c.7.26,1.2.7,1.51,1.31.31.61.33,1.27.07,1.97-.52,1.49-.94,2.6-1.25,3.34-.3.74-.76,1.46-1.38,2.16-.61.7-1.27,1.05-1.97,1.05-.26,0-.57-.05-.92-.13-1.22-.44-1.88-1.64-1.97-3.61-.09-1.97.52-6.8,1.84-14.49,1.57-9.44,3.93-21.77,7.08-36.97,7.25-34.62,14.47-65.47,21.63-92.57.61-2.27,1.27-4.66,1.97-7.15.7-2.49,1.71-5.62,3.02-9.38,1.31-3.76,2.6-7.06,3.87-9.9,1.27-2.84,2.69-5.38,4.26-7.6,1.57-2.23,3.06-3.43,4.46-3.61,1.49-.26,2.67.26,3.54,1.57ZM901.62,65.84c6.99-13.2,10.93-23.56,11.8-31.07-3.85,5.77-7.78,16.13-11.8,31.07Z"/>
    <path class="cls-2" d="M944.63,123.14c.7-.09,1.33.09,1.9.52.57.44.9,1.01.98,1.7.09.7-.09,1.31-.52,1.84-3.59,4.63-7.87,8.26-12.85,10.88-4.98,2.62-9.66,3.45-14.03,2.49-1.23,2.97-2.93,5.31-5.11,7.01-2.19,1.7-4.46,2.56-6.82,2.56h-.13c-2.36-.09-4.44-.9-6.23-2.43-1.79-1.53-3.04-3.65-3.74-6.36-1.13-4.28-.94-8.37.59-12.26,1.53-3.89,3.74-6.75,6.62-8.59.61-.44,1.31-.52,2.1-.26.79-1.92,1.9-3.41,3.34-4.46s2.95-1.44,4.52-1.18c.87.18,1.68.55,2.43,1.12.74.57,1.49,1.46,2.23,2.69.74,1.23,1.29,3.1,1.64,5.64.35,2.54.44,5.55.26,9.05-.09.87-.22,1.75-.39,2.62,3.32.7,7.01-.13,11.08-2.49,4.06-2.36,7.54-5.42,10.42-9.18.44-.52,1-.83,1.7-.92ZM908.18,145.03c1.22,0,2.51-.57,3.87-1.71,1.35-1.13,2.47-2.67,3.34-4.59-5.68-3.15-8.65-7.43-8.92-12.85-1.75,1.66-2.95,3.89-3.61,6.69-.66,2.8-.63,5.25.07,7.34.96,3.41,2.71,5.11,5.25,5.11ZM916.7,132.84c.17-2.1.2-3.91.07-5.44-.13-1.53-.29-2.77-.46-3.74-.18-.96-.39-1.75-.66-2.36-.26-.61-.5-1.05-.72-1.31-.22-.26-.37-.39-.46-.39h-.13c-.35,0-.79.29-1.31.85-.52.57-.92,1.33-1.18,2.29-.52,1.83-.44,3.72.26,5.64.7,1.92,2.23,3.67,4.59,5.25v-.79Z"/>
  </g>
  <g>
    <text class="cls-1" transform="translate(-3197.03 4834.22) rotate(-58.22)"><tspan x="0" y="0">C</tspan></text>
    <text class="cls-1" transform="translate(-3184.18 4813.64) rotate(-49.24)"><tspan x="0" y="0">o</tspan></text>
    <text class="cls-1" transform="translate(-3170.92 4798.17) rotate(-41.08)"><tspan x="0" y="0">n</tspan></text>
    <text class="cls-1" transform="translate(-3155.64 4784.75) rotate(-32.94)"><tspan x="0" y="0">o</tspan></text>
    <text class="cls-1" transform="translate(-3138.57 4773.68) rotate(-24.98)"><tspan x="0" y="0">c</tspan></text>
    <text class="cls-1" transform="translate(-3121.96 4765.82) rotate(-17.36)"><tspan x="0" y="0">e</tspan></text>
    <text class="cls-1" transform="translate(-3103.62 4759.97) rotate(-9.41)"><tspan x="0" y="0">n</tspan></text>
    <text class="cls-1" transform="translate(-3083.6 4756.58) rotate(-1.32)"><tspan x="0" y="0">o</tspan></text>
    <text class="cls-1" transform="translate(-3063.72 4756.13) rotate(6.11)"><tspan x="0" y="0">s</tspan></text>
  </g>
</svg>