<?xml version="1.0" encoding="utf-8"?>
<!-- Generator: Adobe Illustrator 28.2.0, SVG Export Plug-In . SVG Version: 6.00 Build 0)  -->
<svg version="1.1" id="Layer_1" xmlns="http://www.w3.org/2000/svg" xmlns:xlink="http://www.w3.org/1999/xlink" x="0px" y="0px"
	 viewBox="0 0 1041 332" style="enable-background:new 0 0 1041 332;" xml:space="preserve">
<style type="text/css">
	.st0{enable-background:new    ;}
	.st1{fill:#C1976B;}
</style>
<g class="st0">
	<path class="st1" d="M173.8,128c5.1,6.4,7.8,14.3,8.3,23.7c0.5,9.4-1.4,19-5.7,28.8c-6.4,14.8-16.5,26.7-30.3,35.7
		c-13.8,9-29.8,14.2-47.9,15.5h-0.1c-0.7,0-1.3-0.2-1.8-0.7c-0.5-0.4-0.7-1-0.7-1.7c-0.1-0.7,0.1-1.3,0.6-1.8c0.5-0.5,1-0.8,1.6-0.8
		c17.1-1.2,32.2-6.1,45.3-14.6c13.1-8.5,22.6-19.7,28.6-33.6c3.9-9,5.7-17.7,5.3-26.2c-0.4-8.5-2.8-15.5-7.3-21.1
		c-4.9-6-11.6-9.6-20.2-10.8c-7.4,7.7-16.3,14.9-26.6,21.5c-10.3,6.6-18.3,10.3-23.9,11c-10,49.7-15.6,80.9-16.8,93.6
		c0.2-0.4,0.3-0.9,0.5-1.3c0.3-0.7,0.7-1.2,1.4-1.4c0.7-0.3,1.3-0.3,2,0c0.7,0.3,1.1,0.7,1.4,1.4c0.3,0.7,0.3,1.3,0,1.9
		c-1.5,3.7-2.7,6.3-3.7,7.8c-1,1.5-2.1,2.3-3.2,2.3c-0.4,0-0.7-0.1-1-0.3c-1-0.3-1.6-0.9-2-1.9c-0.4-1-0.5-3.4-0.3-7.1
		c0.1-3.7,0.8-9.3,2-16.7c1.2-7.4,3-17.6,5.4-30.6c2.4-12.9,5.6-29.2,9.5-48.9c-1.2-1.1-1.6-2.7-1.2-4.6c0.9-3.1,2.2-6.2,3.9-9
		c1.6-7.8,3.3-16.3,5.1-25.6c5.5-26.8,9.1-44.7,10.8-53.6c-4.1,1-8,2.5-11.5,4.3c-6.4,3.1-11.6,7-15.5,11.9
		c-4,4.9-6.6,10.3-7.9,16.3c-1.3,6-1.2,12.5,0.3,19.6c0.2,0.7,0.1,1.3-0.3,1.9c-0.4,0.6-0.9,0.9-1.6,1.1c-0.7,0.2-1.3,0.1-1.9-0.3
		c-0.6-0.4-1-0.9-1-1.6c-2.6-11.7-1.7-22.2,2.8-31.5c4.5-9.3,12.1-16.6,22.9-21.8c4.6-2.3,9.6-4,14.8-5.1c0.2-1,0.3-1.9,0.5-2.5
		c0-0.4,0.2-0.8,0.5-1.2c0.3-0.3,0.7-0.6,1.1-0.7c0.4-0.1,0.9-0.2,1.3-0.1c0.7,0.1,1.2,0.4,1.6,1c0.4,0.6,0.5,1.2,0.3,1.9
		c0,0.1,0,0.3,0,0.5c9-1.3,17.5-0.9,25.6,1.3c8.1,2.2,14.2,5.9,18.4,11c2.5,3.1,4.2,6.4,5,10.1c0.8,3.7,1,7.2,0.5,10.5
		c-0.5,3.3-1.5,6.8-3,10.4c-1.5,3.6-3,6.8-4.7,9.4c-1.6,2.6-3.4,5.2-5.3,7.7c-0.7,1-1.5,2.1-2.5,3.1
		C162.1,117.8,168.8,121.8,173.8,128z M100.2,147.7c4.5-1.3,11.1-4.6,19.7-9.8c8.6-5.2,16.3-11.1,23.1-17.7c-3.4,0-7,0.4-10.8,1.2
		c-6,1.2-11.8,3.4-17.4,6.6c-5.6,3.1-9.9,7.2-13,12.1C101.2,143.1,100.7,145.7,100.2,147.7z M147.7,115.2c1.7-1.7,3.1-3.5,4.5-5.2
		c6.4-8.7,10.2-16.6,11.5-23.7c1.3-7.2,0-13.2-4.1-18.1c-3.8-4.6-9.6-7.9-17.2-9.7s-15.6-2-24.1-0.5c-1.7,9-5.4,27.5-11.1,55.6
		c-1.3,6.4-2.4,11.8-3.3,16.3c7.2-6.7,16.3-11.2,27.4-13.4C137.1,115.2,142.5,114.8,147.7,115.2z"/>
	<path class="st1" d="M236.4,152c0.7-0.1,1.3,0,1.9,0.4c0.6,0.4,0.9,0.9,1,1.6c0.1,0.7,0,1.3-0.4,1.8c-9.9,13.8-18.9,23.6-27,29.4
		c-3.2,2.3-6.4,3.4-9.6,3.4c-2.4,0-4.6-0.7-6.4-2c-1-0.8-2-1.8-2.8-3.1c-0.8-1.3-1.6-3.1-2.2-5.5c-0.6-2.4-0.7-5.5-0.3-9.3
		c0.4-3.8,1.4-8.2,3-13.1v-0.1c2.4-8,5.4-14.2,8.9-18.9c3.5-4.6,6.6-7,9.4-7.1c2-0.1,3.3,0.8,3.9,2.6c1,2.5-0.2,6.1-3.4,10.8
		c-3.2,4.6-8,9.6-14.3,14.9c-1,3.4-1.8,6.6-2.2,9.4c-0.4,2.9-0.6,5.2-0.5,6.9c0.1,1.7,0.4,3.2,0.9,4.5c0.5,1.3,0.9,2.2,1.3,2.7
		c0.4,0.5,0.8,1,1.2,1.3c2.6,1.9,6,1.4,10.1-1.6c7.7-5.4,16.3-14.8,25.7-28.1C235.2,152.4,235.7,152.1,236.4,152z M211,135
		c-3.1,1.9-6.1,6.1-9,12.5C207,142.4,210,138.2,211,135z"/>
	<path class="st1" d="M270.7,58.8c1.8,2.7,0.9,9.1-2.7,19.2c-3.6,10.1-9.5,21.6-17.6,34.5c-0.1,0.1-0.2,0.2-0.3,0.3
		c-5.5,22-10.8,45-15.8,68.9c-5,23.9-8.2,40.9-9.6,51.1c0.1,0,0.2,0,0.3,0c0.7,0.3,1.2,0.7,1.5,1.3c0.3,0.6,0.3,1.3,0.1,2
		c-0.5,1.5-0.9,2.6-1.2,3.3c-0.3,0.7-0.8,1.5-1.4,2.2c-0.6,0.7-1.3,1-2,1c-0.3,0-0.6,0-0.9-0.1c-1.2-0.4-1.9-1.6-2-3.6
		c-0.1-2,0.5-6.8,1.8-14.5c1.6-9.4,3.9-21.8,7.1-37c7.3-34.6,14.5-65.5,21.6-92.6c0.6-2.3,1.3-4.7,2-7.1c0.7-2.5,1.7-5.6,3-9.4
		c1.3-3.8,2.6-7.1,3.9-9.9c1.3-2.8,2.7-5.4,4.3-7.6c1.6-2.2,3.1-3.4,4.5-3.6C268.6,57,269.8,57.5,270.7,58.8z M254.7,95.3
		c7-13.2,10.9-23.6,11.8-31.1C262.6,69.9,258.7,80.3,254.7,95.3z"/>
	<path class="st1" d="M302.4,153c0.7-0.1,1.3,0,1.9,0.3c0.6,0.4,0.9,0.9,1.1,1.6c0.2,0.7,0.1,1.3-0.3,1.8c-1,1.7-2.2,3.4-3.4,5.3
		c-1.2,1.9-3,4.4-5.4,7.7c-2.4,3.2-4.7,6.1-6.9,8.5c-2.2,2.4-4.5,4.5-7.1,6.4c-2.5,1.8-4.7,2.8-6.6,2.8c-0.7,0-1.3-0.1-1.8-0.4
		c-4.2-1.6-5.4-8.3-3.5-20.1c-2.9,3.9-5.5,6.9-7.9,8.9c-3.4,2.9-6.4,3.2-8.9,1c-2.4-1.9-3.4-5.3-3.2-10.2c0.2-4.9,1.6-9.6,4.3-14.2
		c0.3-0.6,0.9-1,1.6-1.2c0.7-0.2,1.4-0.1,2,0.3c0.6,0.3,1,0.9,1.2,1.5c0.2,0.7,0.1,1.3-0.3,1.9c-1.5,2.4-2.5,5-3.1,7.7
		c-0.6,2.7-0.7,5-0.5,6.8c0.2,1.8,0.6,3,1.2,3.5c0.4,0.4,1.3,0.1,2.5-0.9c2.3-1.9,5.1-5.4,8.5-10.4c0.6-0.8,1.1-1.4,1.4-1.8
		c0.3-0.4,0.7-0.9,1.1-1.4c0.4-0.6,0.8-0.9,1-1.1c0.3-0.2,0.6-0.4,0.9-0.6c0.3-0.2,0.7-0.3,1-0.3c0.3,0,0.7,0.2,1.2,0.3
		c1.1,0.4,1.7,1.4,1.8,3c0.1,1.5-0.1,3.5-0.7,6c-1,4.8-1.3,8.5-1.1,11c0.2,2.5,0.4,4.1,0.6,4.7c0.2,0.6,0.4,0.9,0.7,0.9
		c0.3,0.2,0.7,0.1,1.4-0.2c0.7-0.3,1.4-0.8,2.4-1.5c0.9-0.7,1.9-1.6,3.1-2.7c1.1-1.1,2.4-2.4,3.9-4s2.9-3.3,4.4-5.2
		c1.5-1.9,3.1-4.1,4.9-6.6c1.7-2.5,3.5-5.1,5.1-7.9C301.2,153.5,301.7,153.1,302.4,153z"/>
	<path class="st1" d="M311.4,176.2c1.7,1.2,2.5,2.9,2.5,5.1c0,2.3-0.9,4.7-2.8,7.3c-1.9,2.6-4.1,4.9-6.6,6.8c-0.4,0.3-1,0.5-1.6,0.5
		c-0.9,0-1.5-0.4-2-1c-0.4-0.5-0.6-1.1-0.5-1.8c0.1-0.7,0.4-1.3,1-1.7c2-1.6,3.8-3.3,5.2-5.3c1.5-2,2.2-3.6,2.2-4.8
		c0-0.4-0.2-0.8-0.5-1c-0.6-0.4-1-1-1-1.6c-0.1-0.7,0.1-1.3,0.5-1.8c0.4-0.6,0.9-0.9,1.6-1C310.2,175.6,310.8,175.7,311.4,176.2z"/>
	<path class="st1" d="M479.9,54.2c2.4,1.6,4.4,3.6,6.1,6c1.7,2.4,3.1,5.5,4.2,9.2c1.1,3.7,1.3,8.4,0.7,14
		c-0.6,5.6-2.1,11.8-4.6,18.8c-8,22.3-18.7,39.8-32,52.4c-5.3,5.1-10.8,9-16.5,11.8c-5.6,2.8-11,4.2-16.1,4.2c-0.5,0-1,0-1.6-0.1
		c-8-0.5-13.6-4.3-16.9-11.3c-11,45.7-17.4,74.8-19,87.2c0.2-0.4,0.3-0.7,0.5-1.2c0.3-0.6,0.7-1,1.4-1.3c0.7-0.3,1.3-0.2,1.9,0.1
		c0.6,0.3,1,0.8,1.3,1.4c0.3,0.7,0.3,1.3,0,1.9c-1.7,3.6-3,6.1-4.1,7.7c-1,1.5-2.1,2.3-3.3,2.3c-0.4,0-0.7-0.1-1-0.3
		c-1.3-0.4-2.1-1.7-2.2-3.7c-0.2-2.1,0.3-6.4,1.4-13c1.3-8,3.6-19.4,6.9-34.2c4.1-18.4,11.5-49.5,22.3-93.4
		c6.1-25.1,10.2-42,12.3-50.9c-12,5.1-22.2,11.4-30.8,18.9c-4.4,3.8-8,7.7-10.8,11.5c-2.8,3.8-4.7,7.3-5.8,10.3c-1.1,3-1.7,6-1.8,9
		c-0.1,3,0,5.4,0.5,7.4c0.5,2,1.2,3.9,2,5.7c0.3,0.6,0.4,1.2,0.2,1.9c-0.2,0.7-0.6,1.1-1.2,1.4c-0.6,0.3-1.2,0.4-1.9,0.1
		c-0.7-0.2-1.2-0.6-1.5-1.2c-3.8-7.7-4.3-15.9-1.4-24.7c2.9-8.7,9-17.2,18.3-25.3c10.1-8.7,21.9-15.8,35.7-21.1
		c0.3-1.7,0.7-3.3,1-4.7c0.1-0.6,0.4-1.1,1-1.5c0.6-0.4,1.2-0.5,1.9-0.4c0.7,0.1,1.2,0.5,1.6,1.1c0.4,0.6,0.5,1.3,0.3,2
		c-0.1,0.3-0.2,0.7-0.3,1.4c2.2-0.7,4.4-1.4,6.6-2c9.4-2.5,17.9-3.6,25.5-3.1C468.6,48.9,474.9,50.8,479.9,54.2z M481.5,100.4
		c1.1-3.1,2.1-6.2,2.8-9c0.7-2.9,1.3-6,1.6-9.4c0.3-3.4,0.3-6.4-0.1-9.2c-0.4-2.8-1.3-5.4-2.8-8c-1.4-2.6-3.4-4.7-6-6.5
		c-4.3-2.9-9.9-4.5-17-4.8c-7-0.3-14.8,0.7-23.3,3c-3.1,0.9-6.2,1.9-9.3,3c-2,9-6.3,27.1-13,54.3c-3.9,15.8-7,28.2-9.2,37.2
		c0.6,0.3,1,0.9,1.2,1.6c0.9,3.9,2.5,7,4.9,9.2c2.4,2.2,5.4,3.4,9.1,3.7c4.5,0.3,9.4-0.9,14.7-3.4c5.3-2.5,10.6-6.2,15.7-11.1
		C463.6,138.8,473.8,122,481.5,100.4z"/>
</g>
<g class="st0">
	<path class="st1" d="M529.7,152.4c0.7-0.2,1.3-0.2,1.9,0.1c0.6,0.3,1,0.8,1.2,1.4c0.2,0.7,0.2,1.3-0.1,1.9c-9.4,19.3-17.7,29-25,29
		c-0.4,0-0.9,0-1.4-0.1c-5.9-1.1-9.5-9-10.9-23.6c-4.3,5.8-8.1,10.5-11.4,14.2c-3,3.1-5.5,4.2-7.6,3.3c-2.1-0.8-3.1-3.1-3-6.8
		c0-3.1,0.7-6.9,2.1-11.3c1.4-4.4,3.5-8.6,6.2-12.7c2.7-4.1,5.6-6.7,8.8-7.7c4.6-1.7,8.9-0.1,12.8,4.6c0.4,0.5,0.6,1.1,0.6,1.8
		c0,0.7-0.3,1.3-0.9,1.7c-0.5,0.4-1.1,0.6-1.8,0.6c-0.7,0-1.3-0.3-1.7-0.9c-3.1-3.7-6.2-4.4-9.3-2.1c-3.6,2.5-6.6,7.1-9,13.7
		c-2.4,6.6-3.3,11.3-2.8,14.1c0.5-0.4,1.1-1,1.8-1.7c3.5-3.8,7.8-9.1,12.8-16.1c1.1-1.6,1.9-2.7,2.4-3.3c0.7-0.9,1.6-1.2,2.8-0.9
		c1.1,0.3,1.7,1.1,1.8,2.3c0.2,4.3,0.5,8.1,1,11.4c0.5,3.3,1,5.8,1.6,7.5s1.1,3.1,1.8,4.3c0.7,1.1,1.2,1.9,1.6,2.2
		c0.4,0.3,0.8,0.5,1.2,0.5c1.2,0.3,2.8-0.3,4.7-1.8c1.9-1.4,4.3-4.2,7.2-8.4c2.9-4.2,5.9-9.4,9-15.8
		C528.5,153,529,152.6,529.7,152.4z"/>
</g>
<g class="st0">
	<path class="st1" d="M579.6,152c0.7-0.1,1.3,0,1.9,0.3c0.6,0.4,1,0.9,1.2,1.6c0.2,0.7,0,1.3-0.4,1.8c-3.5,5.7-7.6,10.9-12.5,15.7
		c-4.8,4.8-9.7,8.7-14.8,11.9c-5.1,3.2-9.6,5.8-13.7,7.7s-8.2,3.6-12.3,5c-1.2,0.4-2.2,0.1-2.9-1c-1.4,3.5-2.6,6.9-3.7,10.4
		c-0.3,1.1-1.2,1.7-2.5,1.7c-0.1,0-0.2,0-0.4,0c-0.6-0.1-1.1-0.4-1.5-0.9c-0.4-0.5-0.6-1-0.6-1.6c0.1-2,2.2-12.4,6.4-31.2
		c4.2-18.8,8.3-37.1,12.5-55.1c0-0.3,0-0.5,0.1-0.8c1.5-6.3,2.7-11.4,3.7-15.2c3-12.1,6.4-22.4,10.3-30.9c3.9-8.5,7.2-13,10-13.6
		c1.5-0.3,2.6,0.2,3.4,1.3c1.9,2.5,0.8,9.3-3.3,20.2c-4.1,10.9-10.5,24.3-19.3,40c-4.7,19.8-9.2,39.5-13.4,58.9
		c2.4-5.1,4.8-9.2,7.1-12.3c6.8-9.5,12.2-13.7,16.3-12.5c2.6,0.8,4,3.1,4.1,6.9c0,1.8-0.3,3.9-0.9,6.2c-0.6,2.3-1.5,4.9-2.8,7.7
		c-1.3,2.8-2.9,5.5-4.7,8c13.6-8,24-17.8,31.1-29.2C578.5,152.5,579,152.1,579.6,152z M527.6,191.2c3.1-1.1,6.1-2.8,8.9-5
		c2.8-2.2,5-4.7,6.8-7.3c1.8-2.6,3.2-5.2,4.3-7.7c1.1-2.5,1.9-4.8,2.3-7c0.6-3.1,0.6-5,0-5.9c-0.3,0-0.8,0.2-1.4,0.5
		c-0.6,0.3-1.7,1.3-3.5,3c-1.7,1.7-3.7,4-5.8,7C535.6,174.1,531.7,181.5,527.6,191.2z M559.6,65.1c-4.7,7-9.2,18.4-13.4,34.2
		C553.9,83.9,558.3,72.5,559.6,65.1z"/>
	<path class="st1" d="M614,58.8c1.8,2.7,0.9,9.1-2.7,19.2c-3.6,10.1-9.5,21.6-17.6,34.5c-0.1,0.1-0.2,0.2-0.3,0.3
		c-5.5,22-10.8,45-15.8,68.9c-5,23.9-8.2,40.9-9.6,51.1c0.1,0,0.2,0,0.3,0c0.7,0.3,1.2,0.7,1.5,1.3c0.3,0.6,0.3,1.3,0.1,2
		c-0.5,1.5-0.9,2.6-1.2,3.3c-0.3,0.7-0.8,1.5-1.4,2.2c-0.6,0.7-1.3,1-2,1c-0.3,0-0.6,0-0.9-0.1c-1.2-0.4-1.9-1.6-2-3.6
		c-0.1-2,0.5-6.8,1.8-14.5c1.6-9.4,3.9-21.8,7.1-37c7.3-34.6,14.5-65.5,21.6-92.6c0.6-2.3,1.3-4.7,2-7.1c0.7-2.5,1.7-5.6,3-9.4
		c1.3-3.8,2.6-7.1,3.9-9.9c1.3-2.8,2.7-5.4,4.3-7.6c1.6-2.2,3.1-3.4,4.5-3.6C612,57,613.2,57.5,614,58.8z M598.1,95.3
		c7-13.2,10.9-23.6,11.8-31.1C606,69.9,602.1,80.3,598.1,95.3z"/>
	<path class="st1" d="M641.1,152.6c0.7-0.1,1.3,0.1,1.9,0.5c0.6,0.4,0.9,1,1,1.7c0.1,0.7-0.1,1.3-0.5,1.8
		c-3.6,4.6-7.9,8.3-12.8,10.9c-5,2.6-9.7,3.5-14,2.5c-1.2,3-2.9,5.3-5.1,7c-2.2,1.7-4.5,2.6-6.8,2.6h-0.1c-2.4-0.1-4.4-0.9-6.2-2.4
		c-1.8-1.5-3-3.6-3.7-6.4c-1.1-4.3-0.9-8.4,0.6-12.3c1.5-3.9,3.7-6.8,6.6-8.6c0.6-0.4,1.3-0.5,2.1-0.3c0.8-1.9,1.9-3.4,3.3-4.5
		s3-1.4,4.5-1.2c0.9,0.2,1.7,0.5,2.4,1.1c0.7,0.6,1.5,1.5,2.2,2.7c0.7,1.2,1.3,3.1,1.6,5.6c0.3,2.5,0.4,5.6,0.3,9
		c-0.1,0.9-0.2,1.8-0.4,2.6c3.3,0.7,7-0.1,11.1-2.5s7.5-5.4,10.4-9.2C639.8,152.9,640.4,152.6,641.1,152.6z M604.6,174.4
		c1.2,0,2.5-0.6,3.9-1.7c1.4-1.1,2.5-2.7,3.3-4.6c-5.7-3.1-8.7-7.4-8.9-12.9c-1.7,1.7-3,3.9-3.6,6.7c-0.7,2.8-0.6,5.2,0.1,7.3
		C600.3,172.7,602.1,174.4,604.6,174.4z M613.1,162.3c0.2-2.1,0.2-3.9,0.1-5.4c-0.1-1.5-0.3-2.8-0.5-3.7c-0.2-1-0.4-1.7-0.7-2.4
		c-0.3-0.6-0.5-1-0.7-1.3c-0.2-0.3-0.4-0.4-0.5-0.4h-0.1c-0.4,0-0.8,0.3-1.3,0.9c-0.5,0.6-0.9,1.3-1.2,2.3c-0.5,1.8-0.4,3.7,0.3,5.6
		c0.7,1.9,2.2,3.7,4.6,5.2C613.1,162.8,613.1,162.5,613.1,162.3z"/>
	<path class="st1" d="M740.2,151.7c0.7,0.1,1.2,0.5,1.6,1c0.4,0.6,0.5,1.2,0.3,1.9c-0.2,0.7-0.5,1.2-1,1.6
		c-15.5,10.1-28.1,20.1-38,30c-5.2,30.9-10.8,55.9-16.9,75.1c-7.3,22.6-14.3,34.9-21.1,36.8c-0.6,0.2-1.3,0.3-2,0.3
		c-2,0-3.8-0.9-5.2-2.6c-2.4-3.1-3.8-8.3-4-15.6c-0.2-7.3,0.9-15.8,3.4-25.7c2.5-9.9,6.1-19.4,10.8-28.6
		c8.3-15.8,18.4-29.9,30.4-42.2c1.3-8.2,2.6-16.8,3.9-25.8c-2.7,4.1-5.2,7.6-7.6,10.4c-3.8,4.7-7.5,6-11,3.9
		c-2.9-1.7-4.4-5.4-4.6-10.9c-0.2-5.6,1.1-11.6,3.8-18.2c0.3-0.6,0.7-1,1.4-1.3c0.7-0.3,1.3-0.3,1.9,0c0.6,0.3,1.1,0.7,1.4,1.3
		c0.3,0.6,0.3,1.3,0.1,2c-2.4,6.4-3.5,11.6-3.5,15.6c0,4,0.8,6.4,2.2,7.2c1,0.6,2.4-0.3,4.5-2.8c4.4-5.2,8.9-11.9,13.5-19.9
		c0.7-1.2,1.7-1.6,3-1.1c1.3,0.5,1.9,1.4,1.7,2.7c-1.5,10.9-3,21.3-4.6,31.1c9-8.4,20.3-17,33.8-25.8
		C738.9,151.7,739.5,151.6,740.2,151.7z M681.3,259.9c5.6-17.5,10.8-39.8,15.6-67c-9.4,10.5-17.6,22.3-24.4,35.4
		c-3.8,7.2-6.8,14.5-9,22c-2.2,7.5-3.6,14-4.1,19.6c-0.5,5.6-0.6,10.4-0.1,14.4c0.4,4,1.3,6.8,2.5,8.3c0.6,0.7,1.2,1,1.8,0.8
		c0.4-0.1,0.9-0.3,1.4-0.7c0.5-0.4,1.4-1.2,2.6-2.7c1.2-1.4,2.4-3.3,3.7-5.5c1.2-2.2,2.8-5.5,4.6-9.8
		C677.8,270.5,679.6,265.5,681.3,259.9z"/>
	<path class="st1" d="M887.4,121.1c0,0.4-0.1,0.9-0.3,1.2c-0.2,0.4-0.4,0.7-0.8,1c-0.4,0.3-0.7,0.4-1.2,0.5
		c-10.2,1.1-19.8,3.1-28.6,5.8c-9.8,43.1-17.4,77.9-22.9,104.5c-1.8,8.3-4.5,15-7.9,20c-3.4,5-7.4,8.1-12.1,9.2
		c-1.2,0.3-2.5,0.5-3.8,0.5c-6.1,0-11.8-3.1-16.9-9.3c-3.8-4.5-6.6-10.6-8.5-18.3c-1.9-7.6-2.5-16.4-1.8-26.2
		c0.7-9.8,2.9-19.3,6.6-28.5c6.6-16.1,17-29.4,31.3-39.9c9.2-6.6,19.8-12,31.9-16c3.7-16.3,6.8-29.8,9.4-40.5
		c1.4-5.7,2.2-10.5,2.5-14.4c0.3-3.9,0.2-6.5-0.2-7.8c-0.4-1.3-0.9-2-1.4-2.2c-1-0.3-2.5,0.2-4.5,1.8c-1.9,1.5-4,3.8-6.2,6.9
		c-2.2,3.1-3.9,6.4-5.2,10c-0.6,1.7-1.1,3.3-1.4,4.9c-0.3,1.6-0.5,3.4-0.5,5.3c0,1.9,0.5,3.7,1.5,5.3c1,1.6,2.5,2.9,4.4,3.7
		c0.6,0.3,1,0.7,1.3,1.4c0.3,0.7,0.3,1.3,0,1.9c-0.3,0.6-0.7,1-1.4,1.3c-0.7,0.3-1.3,0.3-2,0c-4.3-1.9-7-5.2-8.2-9.7
		c-1.2-4.5-0.6-9.9,1.6-16c2.2-5.9,5.5-11.3,10-16.2c4.5-4.9,8.5-6.7,12.1-5.6c6.1,1.8,6.9,12,2.5,30.4c-2.4,10.1-5.4,22.7-8.8,37.6
		c8.3-2.4,17.2-4.1,26.7-5.1c0.6-0.1,1.2,0.1,1.8,0.5C887,119.8,887.3,120.4,887.4,121.1z M828.7,233.1
		c5.3-25.4,12.8-59.3,22.4-101.6c-8.1,2.9-15.5,6.4-22.1,10.5c-6.6,4.1-12.1,8.5-16.6,13.3c-4.5,4.8-8.2,9.4-11.1,14
		c-2.9,4.5-5.4,9.3-7.4,14.3c-2.9,7.1-4.8,14.8-5.8,23.3c-1,8.4-0.8,16.8,0.7,25c1.4,8.2,4.1,14.7,8.1,19.5c2.4,3,5,5.1,7.8,6.3
		c2.8,1.2,5.4,1.5,7.9,0.9c3.7-0.9,6.9-3.5,9.6-7.9C825,246.3,827.1,240.4,828.7,233.1z"/>
</g>
<g class="st0">
	<path class="st1" d="M928.6,153c0.7-0.1,1.3,0,1.9,0.3c0.6,0.4,0.9,0.9,1.1,1.6c0.2,0.7,0.1,1.3-0.3,1.8c-1,1.7-2.2,3.4-3.4,5.3
		c-1.2,1.9-3,4.4-5.4,7.7c-2.4,3.2-4.7,6.1-6.9,8.5c-2.2,2.4-4.5,4.5-7.1,6.4c-2.5,1.8-4.7,2.8-6.6,2.8c-0.7,0-1.3-0.1-1.8-0.4
		c-4.2-1.6-5.4-8.3-3.5-20.1c-2.9,3.9-5.5,6.9-7.9,8.9c-3.4,2.9-6.4,3.2-8.9,1c-2.4-1.9-3.4-5.3-3.2-10.2c0.2-4.9,1.6-9.6,4.3-14.2
		c0.3-0.6,0.9-1,1.6-1.2c0.7-0.2,1.4-0.1,2,0.3c0.6,0.3,1,0.9,1.2,1.5c0.2,0.7,0.1,1.3-0.3,1.9c-1.5,2.4-2.5,5-3.1,7.7
		c-0.6,2.7-0.7,5-0.5,6.8c0.2,1.8,0.6,3,1.2,3.5c0.4,0.4,1.3,0.1,2.5-0.9c2.3-1.9,5.1-5.4,8.5-10.4c0.6-0.8,1.1-1.4,1.4-1.8
		c0.3-0.4,0.7-0.9,1.1-1.4c0.4-0.6,0.8-0.9,1-1.1c0.3-0.2,0.6-0.4,0.9-0.6c0.3-0.2,0.7-0.3,1-0.3c0.3,0,0.7,0.2,1.2,0.3
		c1.1,0.4,1.7,1.4,1.8,3c0.1,1.5-0.1,3.5-0.7,6c-1,4.8-1.3,8.5-1.1,11c0.2,2.5,0.4,4.1,0.6,4.7c0.2,0.6,0.4,0.9,0.7,0.9
		c0.3,0.2,0.7,0.1,1.4-0.2c0.7-0.3,1.4-0.8,2.4-1.5c0.9-0.7,1.9-1.6,3.1-2.7c1.1-1.1,2.4-2.4,3.9-4s2.9-3.3,4.4-5.2
		c1.5-1.9,3.1-4.1,4.9-6.6c1.7-2.5,3.5-5.1,5.1-7.9C927.4,153.5,927.9,153.1,928.6,153z"/>
</g>
<g class="st0">
	<path class="st1" d="M962.9,58.8c1.8,2.7,0.9,9.1-2.7,19.2c-3.6,10.1-9.5,21.6-17.6,34.5c-0.1,0.1-0.2,0.2-0.3,0.3
		c-5.5,22-10.8,45-15.8,68.9c-5,23.9-8.2,40.9-9.6,51.1c0.1,0,0.2,0,0.3,0c0.7,0.3,1.2,0.7,1.5,1.3c0.3,0.6,0.3,1.3,0.1,2
		c-0.5,1.5-0.9,2.6-1.2,3.3c-0.3,0.7-0.8,1.5-1.4,2.2c-0.6,0.7-1.3,1-2,1c-0.3,0-0.6,0-0.9-0.1c-1.2-0.4-1.9-1.6-2-3.6
		c-0.1-2,0.5-6.8,1.8-14.5c1.6-9.4,3.9-21.8,7.1-37c7.3-34.6,14.5-65.5,21.6-92.6c0.6-2.3,1.3-4.7,2-7.1c0.7-2.5,1.7-5.6,3-9.4
		c1.3-3.8,2.6-7.1,3.9-9.9c1.3-2.8,2.7-5.4,4.3-7.6c1.6-2.2,3.1-3.4,4.5-3.6C960.9,57,962.1,57.5,962.9,58.8z M946.9,95.3
		c7-13.2,10.9-23.6,11.8-31.1C954.9,69.9,951,80.3,946.9,95.3z"/>
	<path class="st1" d="M980.8,151.5c0.7-0.2,1.3-0.1,1.9,0.3c0.6,0.4,1,0.9,1.1,1.6c0.1,0.7,0,1.4-0.3,2c-2.4,3.8-5.4,7.8-8.9,12
		c-3.5,4.2-7.3,7.9-11.7,11.2c-4.3,3.3-8,5-10.9,5c-1,0-2-0.2-2.8-0.5c-5.9-2.5-6.5-12.8-1.8-30.8c0.2-0.7,0.6-1.2,1.2-1.6
		c0.6-0.3,1.2-0.4,1.9-0.3c0.7,0.2,1.2,0.6,1.5,1.2c0.3,0.6,0.4,1.2,0.3,1.8c-1,4.2-1.8,7.9-2.3,11.1c-0.5,3.2-0.7,5.6-0.7,7.3
		c0,1.7,0.2,3,0.5,4.1c0.3,1.1,0.6,1.8,0.8,2c0.2,0.2,0.4,0.4,0.6,0.5c2.3,1,6.4-1.3,12.4-6.8c6-5.5,11.2-11.8,15.5-18.9
		C979.6,152,980.2,151.7,980.8,151.5z M951.8,141.3c-2.5-0.2-3.3-1.2-2.4-3.1c0.9-1.6,2-2.6,3.4-3.1c2.2-0.7,3.5-0.1,3.9,1.7
		c0.4,1.8-0.2,3.1-2,3.9C953.9,141.1,952.9,141.3,951.8,141.3z"/>
</g>
</svg>
