<svg width="80" height="63" viewBox="0 0 80 63" fill="none" xmlns="http://www.w3.org/2000/svg">
<g id="Group 11">
<path id="Vector" d="M40.001 62.4866C33.6928 62.4866 27.3827 61.8541 21.1173 60.5909C20.1081 60.3888 19.4564 59.4007 19.6575 58.3883C19.8586 57.3759 20.8398 56.7172 21.849 56.9212C33.8939 59.3502 46.1082 59.3502 58.153 56.9212C59.1604 56.7191 60.1397 57.3741 60.3445 58.3883C60.5456 59.4026 59.894 60.3888 58.8848 60.5909C52.6194 61.8541 46.3111 62.4866 40.001 62.4866Z" fill="#FBF5F5"/>
<path id="Vector_2" d="M63.1709 54.9208C62.1412 54.9208 61.309 54.0824 61.309 53.0494V49.4602C61.309 48.4272 62.1412 47.5889 63.1709 47.5889C64.2005 47.5889 65.0328 48.4272 65.0328 49.4602V53.0476C65.0328 54.0824 64.2005 54.9208 63.1709 54.9208Z" fill="#FBF5F5"/>
<path id="Vector_3" d="M16.8311 54.9207C15.8033 54.9207 14.9691 54.0824 14.9691 53.0494V49.4601C14.9691 42.2181 18.6613 35.1818 24.6084 31.0967C31.4417 26.3996 41.5185 25.3741 50.277 28.4843C51.2471 28.8286 51.7554 29.8972 51.4109 30.8721C51.0683 31.8471 50.007 32.358 49.037 32.0136C41.3565 29.2871 32.5961 30.1386 26.7105 34.1863C21.7652 37.5846 18.693 43.4382 18.693 49.462V53.0494C18.693 54.0824 17.8588 54.9207 16.8311 54.9207Z" fill="#FBF5F5"/>
<path id="Vector_4" d="M58.516 60.6282C57.6465 60.6282 56.87 60.0144 56.6932 59.1256C56.4921 58.1132 57.1438 57.127 58.1511 56.923C59.9813 56.5543 61.3089 54.9244 61.3089 53.0493C61.3089 52.0163 62.1412 51.178 63.1708 51.178C64.2005 51.178 65.0328 52.0163 65.0328 53.0493C65.0328 56.7003 62.4465 59.8722 58.8847 60.5927C58.7618 60.617 58.6389 60.6282 58.516 60.6282Z" fill="#FBF5F5"/>
<path id="Vector_5" d="M21.4859 60.6283C21.3649 60.6283 21.242 60.6171 21.1172 60.5909C17.5535 59.8704 14.9691 56.6985 14.9691 53.0475C14.9691 52.0145 15.8033 51.1761 16.8311 51.1761C17.8588 51.1761 18.693 52.0145 18.693 53.0475C18.693 54.9226 20.0206 56.5525 21.8508 56.9212C22.86 57.1251 23.5135 58.1113 23.3106 59.1237C23.13 60.0145 22.3536 60.6283 21.4859 60.6283Z" fill="#FBF5F5"/>
<path id="Vector_6" d="M63.1709 53.5303C62.1542 53.5303 61.3238 52.7087 61.3089 51.6851C61.294 50.6521 62.117 49.8026 63.1448 49.7876C66.7402 49.7389 70.3523 49.3534 73.8826 48.6404C74.888 48.4402 75.8693 49.0933 76.0741 50.1076C76.2752 51.1218 75.6235 52.1062 74.6143 52.3101C70.8625 53.0662 67.0213 53.4779 63.1969 53.5303C63.1876 53.5303 63.1783 53.5303 63.1709 53.5303Z" fill="#FBF5F5"/>
<path id="Vector_7" d="M77.2394 48.6779C76.2097 48.6779 75.3774 47.8396 75.3774 46.8066V44.5011C75.3774 43.4681 76.2097 42.6298 77.2394 42.6298C78.269 42.6298 79.1013 43.4681 79.1013 44.5011V46.8066C79.1013 47.8396 78.269 48.6779 77.2394 48.6779Z" fill="#FBF5F5"/>
<path id="Vector_8" d="M74.2477 52.3477C73.3782 52.3477 72.6017 51.7339 72.4248 50.845C72.2238 49.8307 72.8754 48.8445 73.8846 48.6424C74.7485 48.4665 75.3779 47.6937 75.3779 46.8066C75.3779 45.7737 76.2102 44.9353 77.2398 44.9353C78.2695 44.9353 79.1017 45.7737 79.1017 46.8066C79.1017 49.4714 77.2137 51.7863 74.6145 52.3103C74.4897 52.3346 74.3687 52.3477 74.2477 52.3477Z" fill="#FBF5F5"/>
<path id="Vector_9" d="M2.7622 48.6779C1.73442 48.6779 0.900269 47.8396 0.900269 46.8066V44.5011C0.900269 43.4681 1.73442 42.6298 2.7622 42.6298C3.78999 42.6298 4.62414 43.4681 4.62414 44.5011V46.8066C4.62414 47.8396 3.78999 48.6779 2.7622 48.6779Z" fill="#FBF5F5"/>
<path id="Vector_10" d="M16.831 53.5304C16.8217 53.5304 16.8142 53.5304 16.8049 53.5304C12.9824 53.478 9.1412 53.0663 5.38753 52.3103C4.37837 52.1082 3.72669 51.1201 3.92778 50.1077C4.12887 49.0953 5.10452 48.4366 6.11928 48.6406C9.64951 49.3517 13.2598 49.7372 16.8552 49.7877C17.883 49.8027 18.706 50.6504 18.6911 51.6853C18.678 52.7089 17.8476 53.5304 16.831 53.5304Z" fill="#FBF5F5"/>
<path id="Vector_11" d="M5.75425 52.3477C5.63322 52.3477 5.51033 52.3365 5.38558 52.3103C2.78632 51.7863 0.898315 49.4714 0.898315 46.8066C0.898315 45.7737 1.73246 44.9353 2.76025 44.9353C3.78804 44.9353 4.62219 45.7737 4.62219 46.8066C4.62219 47.6955 5.25152 48.4665 6.11732 48.6406C7.12649 48.8445 7.78003 49.8307 7.57708 50.8431C7.40206 51.732 6.62377 52.3477 5.75425 52.3477Z" fill="#FBF5F5"/>
<path id="Vector_12" d="M54.5928 34.6858C53.9132 34.6858 53.2559 34.3097 52.9282 33.6585C52.4646 32.7359 52.8314 31.6112 53.7493 31.1434C58.2738 28.8435 64.0384 28.5609 69.1699 30.3836C70.14 30.728 70.6464 31.7984 70.3019 32.7715C69.9593 33.7446 68.8887 34.2573 67.928 33.9111C63.7368 32.4197 59.0633 32.6349 55.4288 34.4819C55.1625 34.6203 54.8739 34.6858 54.5928 34.6858Z" fill="#FBF5F5"/>
<path id="Vector_13" d="M25.4089 34.6859C25.1259 34.6859 24.8391 34.6204 24.5691 34.4838C20.9365 32.6368 16.2649 32.4216 12.0718 33.9131C11.1036 34.2593 10.0405 33.7484 9.696 32.7734C9.3534 31.7984 9.86171 30.7299 10.8299 30.3856C15.9633 28.5573 21.7297 28.8417 26.2523 31.1454C27.1703 31.6132 27.5371 32.7379 27.0716 33.6604C26.7439 34.3117 26.0885 34.6859 25.4089 34.6859Z" fill="#FBF5F5"/>
<path id="Vector_14" d="M62.3439 32.9512C56.7935 32.9512 52.1033 28.2373 52.1033 22.6588C52.1033 17.0804 56.7935 12.3665 62.3439 12.3665C67.8944 12.3665 72.5846 17.0804 72.5846 22.6588C72.5846 28.2373 67.8944 32.9512 62.3439 32.9512ZM62.3439 16.1091C58.8118 16.1091 55.8271 19.1089 55.8271 22.6588C55.8271 26.2088 58.8118 29.2085 62.3439 29.2085C65.876 29.2085 68.8607 26.2088 68.8607 22.6588C68.8607 19.1089 65.876 16.1091 62.3439 16.1091Z" fill="#FBF5F5"/>
<path id="Vector_15" d="M77.2397 46.3706C76.21 46.3706 75.3777 45.5323 75.3777 44.4993C75.3777 39.7498 72.3856 35.4963 67.93 33.9131C66.9599 33.5688 66.4516 32.5002 66.7961 31.5253C67.1386 30.5522 68.1981 30.0394 69.17 30.3856C75.1096 32.4965 79.1016 38.1685 79.1016 44.4993C79.1016 45.5323 78.2693 46.3706 77.2397 46.3706Z" fill="#FBF5F5"/>
<path id="Vector_16" d="M2.7622 46.3706C1.73442 46.3706 0.900269 45.5322 0.900269 44.4992C0.900269 38.1666 4.8904 32.4946 10.83 30.3856C11.7982 30.0394 12.8632 30.5503 13.2058 31.5252C13.5484 32.5002 13.0401 33.5687 12.0719 33.9131C7.61627 35.4962 4.62414 39.7498 4.62414 44.4992C4.62414 45.5322 3.78999 46.3706 2.7622 46.3706Z" fill="#FBF5F5"/>
<path id="Vector_17" d="M17.6576 32.9512C12.1072 32.9512 7.41699 28.2373 7.41699 22.6588C7.41699 17.0804 12.1072 12.3665 17.6576 12.3665C23.2081 12.3665 27.8983 17.0804 27.8983 22.6588C27.8983 28.2373 23.2081 32.9512 17.6576 32.9512ZM17.6576 16.1091C14.1255 16.1091 11.1409 19.1089 11.1409 22.6588C11.1409 26.2088 14.1255 29.2085 17.6576 29.2085C21.1897 29.2085 24.1744 26.2088 24.1744 22.6588C24.1744 19.1089 21.1897 16.1091 17.6576 16.1091Z" fill="#FBF5F5"/>
<path id="Vector_18" d="M63.171 51.3315C62.1414 51.3315 61.3091 50.4932 61.3091 49.4602C61.3091 41.6324 56.3768 34.6223 49.0352 32.0137C48.0651 31.6694 47.5568 30.6008 47.9013 29.6259C48.2439 28.6528 49.3052 28.1382 50.2752 28.4862C59.1027 31.6226 65.033 40.053 65.033 49.4621C65.033 50.4932 64.2007 51.3315 63.171 51.3315Z" fill="#FBF5F5"/>
<path id="Vector_19" d="M40.0007 30.4549C31.9274 30.4549 25.1052 23.5983 25.1052 15.4841C25.1052 7.37002 31.9274 0.513428 40.0007 0.513428C48.0759 0.513428 54.8962 7.37002 54.8962 15.4841C54.8962 23.5983 48.0759 30.4549 40.0007 30.4549ZM40.0007 4.25611C33.9457 4.25611 28.8291 9.39855 28.8291 15.4841C28.8291 21.5697 33.9457 26.7122 40.0007 26.7122C46.0557 26.7122 51.1723 21.5697 51.1723 15.4841C51.1723 9.39855 46.0557 4.25611 40.0007 4.25611Z" fill="#FBF5F5"/>
</g>
</svg>
