<svg xmlns="http://www.w3.org/2000/svg" viewBox="-130.686 75.08 1118.603 221.47"><path fill="#fff" d="M-110.014 123.08c-4.586 0-8.416-1.024-11.488-3.072-3.05-2.048-5.344-4.875-6.88-8.48-1.536-3.605-2.304-7.755-2.304-12.448 0-4.693.768-8.843 2.304-12.448 1.536-3.605 3.83-6.432 6.88-8.48 3.072-2.048 6.902-3.072 11.488-3.072 5.376 0 9.707 1.408 12.992 4.224 3.286 2.795 5.504 6.528 6.656 11.2l-2.816.64c-1.024-4.075-2.944-7.317-5.76-9.728-2.794-2.432-6.485-3.648-11.072-3.648-3.946 0-7.232.907-9.856 2.72-2.602 1.813-4.565 4.331-5.888 7.552-1.322 3.2-2.005 6.88-2.048 11.04-.042 4.16.598 7.84 1.92 11.04 1.323 3.2 3.307 5.717 5.952 7.552 2.667 1.813 5.974 2.72 9.92 2.72 4.587 0 8.278-1.216 11.072-3.648 2.816-2.432 4.736-5.675 5.76-9.728l2.816.64c-1.152 4.672-3.37 8.416-6.656 11.232-3.285 2.795-7.616 4.192-12.992 4.192Zm28.621-.96V87.56h2.496v8.256l-.832-1.088c.362-.939.821-1.813 1.376-2.624.554-.811 1.098-1.472 1.632-1.984a9.253 9.253 0 0 1 3.328-2.08 12.786 12.786 0 0 1 3.904-.832c1.301-.085 2.453.032 3.456.352v2.56c-1.43-.32-2.944-.373-4.544-.16-1.6.192-3.094.928-4.48 2.208-1.216 1.131-2.08 2.432-2.592 3.904a18.266 18.266 0 0 0-.896 4.576 64.987 64.987 0 0 0-.16 4.448v17.024h-2.688Zm36.62.96c-3.264 0-6.08-.736-8.448-2.208-2.346-1.472-4.16-3.573-5.44-6.304-1.28-2.731-1.92-5.973-1.92-9.728 0-3.776.63-7.029 1.888-9.76 1.28-2.731 3.094-4.821 5.44-6.272 2.368-1.472 5.195-2.208 8.48-2.208 3.307 0 6.134.747 8.48 2.24 2.347 1.493 4.139 3.659 5.376 6.496 1.259 2.837 1.888 6.261 1.888 10.272h-2.88v-.896c-.128-4.971-1.301-8.779-3.52-11.424-2.197-2.667-5.312-4-9.344-4-4.096 0-7.274 1.365-9.536 4.096-2.261 2.709-3.392 6.528-3.392 11.456s1.131 8.757 3.392 11.488c2.262 2.709 5.44 4.064 9.536 4.064 2.859 0 5.366-.672 7.52-2.016 2.155-1.344 3.872-3.275 5.152-5.792l2.24 1.28c-1.408 2.944-3.402 5.216-5.984 6.816-2.581 1.6-5.557 2.4-8.928 2.4Zm-14.08-17.472v-2.688h28.16v2.688h-28.16Zm48.223 17.472c-2.688 0-4.918-.469-6.688-1.408-1.771-.939-3.094-2.176-3.968-3.712a9.915 9.915 0 0 1-1.312-4.992c0-2.027.437-3.701 1.312-5.024a9.57 9.57 0 0 1 3.488-3.168 16.956 16.956 0 0 1 4.608-1.664 94.586 94.586 0 0 1 6.432-1.056c2.304-.32 4.426-.587 6.368-.8 1.941-.213 3.392-.384 4.352-.512l-.96.64c.106-4.075-.64-7.104-2.24-9.088-1.579-2.005-4.374-3.008-8.384-3.008-2.902 0-5.238.651-7.008 1.952-1.75 1.28-2.976 3.253-3.68 5.92l-2.944-.768c.768-3.2 2.336-5.632 4.704-7.296 2.389-1.664 5.408-2.496 9.056-2.496 3.2 0 5.866.651 8 1.952 2.133 1.301 3.584 3.061 4.352 5.28.298.853.512 1.888.64 3.104.128 1.216.192 2.4.192 3.552v21.632H3.194v-9.472l1.28.064c-.918 3.285-2.742 5.835-5.472 7.648-2.731 1.813-5.942 2.72-9.632 2.72Zm-.128-2.688c2.496 0 4.693-.448 6.592-1.344 1.92-.896 3.466-2.187 4.64-3.872 1.194-1.707 1.952-3.744 2.272-6.112.17-1.195.256-2.475.256-3.84v-2.944l1.408 1.088c-1.131.107-2.699.256-4.704.448-1.984.171-4.086.405-6.304.704-2.219.277-4.224.64-6.016 1.088-1.046.256-2.123.661-3.232 1.216a8.029 8.029 0 0 0-2.816 2.336c-.747 1.003-1.12 2.293-1.12 3.872 0 1.109.277 2.229.832 3.36.554 1.131 1.482 2.08 2.784 2.848 1.322.768 3.125 1.152 5.408 1.152Zm67.711 1.728.064-23.808c0-2.88-.843-5.141-2.528-6.784-1.685-1.664-3.765-2.496-6.24-2.496-1.365 0-2.752.309-4.16.928-1.387.619-2.56 1.664-3.52 3.136-.939 1.472-1.408 3.488-1.408 6.048h-2.368c-.107-2.539.331-4.747 1.312-6.624 1.003-1.877 2.4-3.328 4.192-4.352 1.792-1.045 3.84-1.568 6.144-1.568 3.264 0 5.952 1.024 8.064 3.072 2.133 2.048 3.2 4.864 3.2 8.448l-.064 24h-2.688Zm-41.024 0V87.56h2.496v7.04h.192v27.52h-2.688Zm20.544 0 .064-23.36c0-2.987-.832-5.355-2.496-7.104-1.643-1.749-3.776-2.624-6.4-2.624-2.688 0-4.864.917-6.528 2.752-1.664 1.835-2.496 4.288-2.496 7.36l-2.368-1.024c0-2.219.501-4.192 1.504-5.92a10.73 10.73 0 0 1 4.128-4.096c1.771-1.003 3.797-1.504 6.08-1.504 1.941 0 3.765.416 5.472 1.248 1.707.811 3.083 2.08 4.128 3.808 1.067 1.728 1.6 3.947 1.6 6.656l-.064 23.808h-2.624Zm47.389.96c-3.413 0-6.293-.779-8.64-2.336-2.347-1.557-4.128-3.712-5.344-6.464-1.216-2.752-1.824-5.92-1.824-9.504 0-3.627.619-6.805 1.856-9.536s3.029-4.853 5.376-6.368c2.368-1.515 5.227-2.272 8.576-2.272 3.435 0 6.325.779 8.672 2.336 2.347 1.536 4.117 3.669 5.312 6.4 1.216 2.731 1.824 5.877 1.824 9.44 0 3.648-.608 6.848-1.824 9.6-1.216 2.731-3.008 4.864-5.376 6.4-2.347 1.536-5.216 2.304-8.608 2.304Zm0-2.688c4.352 0 7.595-1.44 9.728-4.32 2.133-2.901 3.2-6.667 3.2-11.296 0-4.715-1.077-8.469-3.232-11.264-2.133-2.816-5.365-4.224-9.696-4.224-2.923 0-5.344.661-7.264 1.984-1.899 1.323-3.317 3.147-4.256 5.472-.939 2.325-1.408 5.003-1.408 8.032 0 4.693 1.088 8.469 3.264 11.328 2.197 2.859 5.419 4.288 9.664 4.288Zm37.39 2.624c-3.904 0-7.147-.811-9.728-2.432-2.581-1.643-4.181-3.904-4.8-6.784l2.752-.512c.576 2.133 1.92 3.84 4.032 5.12 2.133 1.28 4.736 1.92 7.808 1.92 3.136 0 5.621-.672 7.456-2.016 1.856-1.344 2.784-3.168 2.784-5.472 0-1.259-.277-2.283-.832-3.072-.555-.811-1.643-1.547-3.264-2.208-1.6-.661-3.968-1.419-7.104-2.272-3.285-.896-5.845-1.76-7.68-2.592-1.813-.853-3.093-1.803-3.84-2.848-.725-1.067-1.088-2.368-1.088-3.904 0-1.835.544-3.456 1.632-4.864 1.088-1.408 2.592-2.507 4.512-3.296 1.92-.789 4.139-1.184 6.656-1.184 2.539 0 4.821.427 6.848 1.28 2.048.832 3.691 2.005 4.928 3.52 1.259 1.493 1.984 3.221 2.176 5.184l-2.752.512c-.405-2.411-1.643-4.309-3.712-5.696-2.048-1.408-4.608-2.112-7.68-2.112-2.88-.043-5.237.544-7.072 1.76-1.813 1.216-2.72 2.805-2.72 4.768 0 1.088.309 2.027.928 2.816.619.768 1.696 1.472 3.232 2.112 1.536.64 3.669 1.301 6.4 1.984 3.456.875 6.144 1.76 8.064 2.656 1.941.896 3.296 1.941 4.064 3.136.789 1.195 1.184 2.677 1.184 4.448 0 3.136-1.173 5.6-3.52 7.392-2.347 1.771-5.568 2.656-9.664 2.656Zm36.919-.896V87.56h2.496v8.256l-.832-1.088c.363-.939.822-1.813 1.376-2.624.555-.811 1.099-1.472 1.632-1.984a9.262 9.262 0 0 1 3.328-2.08 12.799 12.799 0 0 1 3.904-.832c1.302-.085 2.454.032 3.456.352v2.56c-1.429-.32-2.944-.373-4.544-.16-1.6.192-3.093.928-4.48 2.208-1.216 1.131-2.08 2.432-2.592 3.904a18.356 18.356 0 0 0-.896 4.576 65.632 65.632 0 0 0-.16 4.448v17.024h-2.688Zm36.621.96c-3.264 0-6.08-.736-8.448-2.208-2.347-1.472-4.16-3.573-5.44-6.304-1.28-2.731-1.92-5.973-1.92-9.728 0-3.776.629-7.029 1.888-9.76 1.28-2.731 3.093-4.821 5.44-6.272 2.368-1.472 5.195-2.208 8.48-2.208 3.307 0 6.133.747 8.48 2.24 2.347 1.493 4.139 3.659 5.376 6.496 1.259 2.837 1.888 6.261 1.888 10.272h-2.88v-.896c-.128-4.971-1.301-8.779-3.52-11.424-2.197-2.667-5.312-4-9.344-4-4.096 0-7.275 1.365-9.536 4.096-2.261 2.709-3.392 6.528-3.392 11.456s1.131 8.757 3.392 11.488c2.261 2.709 5.44 4.064 9.536 4.064 2.859 0 5.365-.672 7.52-2.016 2.155-1.344 3.872-3.275 5.152-5.792l2.24 1.28c-1.408 2.944-3.403 5.216-5.984 6.816-2.581 1.6-5.557 2.4-8.928 2.4Zm-14.08-17.472v-2.688h28.16v2.688h-28.16ZM233.4 123.08c-3.435 0-6.315-.768-8.64-2.304-2.326-1.536-4.086-3.669-5.28-6.4-1.195-2.752-1.824-5.931-1.888-9.536.064-3.691.693-6.901 1.888-9.632 1.216-2.731 2.986-4.843 5.312-6.336 2.325-1.515 5.194-2.272 8.608-2.272 3.2 0 6.048.768 8.544 2.304 2.517 1.515 4.298 3.605 5.344 6.272l-2.56 1.088c-.96-2.219-2.443-3.936-4.448-5.152-1.984-1.216-4.278-1.824-6.88-1.824-2.902 0-5.302.661-7.2 1.984-1.899 1.301-3.318 3.125-4.256 5.472-.939 2.325-1.43 5.024-1.472 8.096.064 4.693 1.173 8.459 3.328 11.296 2.154 2.837 5.354 4.256 9.6 4.256 2.538 0 4.789-.587 6.752-1.76 1.962-1.173 3.466-2.891 4.512-5.152l2.624 1.152c-1.43 2.773-3.318 4.875-5.664 6.304-2.347 1.429-5.088 2.144-8.224 2.144Zm35.907-.192c-1.749 0-3.36-.245-4.832-.736a12.811 12.811 0 0 1-3.904-2.112 12.905 12.905 0 0 1-2.88-3.424c-.789-1.344-1.386-2.869-1.792-4.576-.405-1.728-.608-3.616-.608-5.664V87.56h2.688v18.304c0 2.453.246 4.587.736 6.4.512 1.813 1.259 3.317 2.24 4.512a9.16 9.16 0 0 0 3.552 2.624c1.408.576 3.008.864 4.8.864 2.112 0 3.904-.363 5.376-1.088 1.494-.747 2.699-1.76 3.616-3.04.918-1.28 1.59-2.752 2.016-4.416.427-1.664.64-3.424.64-5.28l2.496-.064c0 3.947-.65 7.136-1.952 9.568-1.301 2.411-3.029 4.171-5.184 5.28-2.133 1.109-4.469 1.664-7.008 1.664Zm11.84-.768v-7.04h-.192V87.56h2.688v34.56h-2.496Zm27.28.96c-3.264 0-6.08-.736-8.448-2.208-2.347-1.472-4.16-3.573-5.44-6.304-1.28-2.731-1.92-5.973-1.92-9.728 0-3.776.629-7.029 1.888-9.76 1.28-2.731 3.093-4.821 5.44-6.272 2.368-1.472 5.195-2.208 8.48-2.208 3.307 0 6.133.747 8.48 2.24 2.347 1.493 4.139 3.659 5.376 6.496 1.259 2.837 1.888 6.261 1.888 10.272h-2.88v-.896c-.128-4.971-1.301-8.779-3.52-11.424-2.197-2.667-5.312-4-9.344-4-4.096 0-7.275 1.365-9.536 4.096-2.261 2.709-3.392 6.528-3.392 11.456s1.131 8.757 3.392 11.488c2.261 2.709 5.44 4.064 9.536 4.064 2.859 0 5.365-.672 7.52-2.016 2.155-1.344 3.872-3.275 5.152-5.792l2.24 1.28c-1.408 2.944-3.403 5.216-5.984 6.816-2.581 1.6-5.557 2.4-8.928 2.4Zm-14.08-17.472v-2.688h28.16v2.688h-28.16Zm38.799 16.512V87.56h2.496v8.256l-.832-1.088c.363-.939.822-1.813 1.376-2.624.555-.811 1.099-1.472 1.632-1.984a9.262 9.262 0 0 1 3.328-2.08 12.799 12.799 0 0 1 3.904-.832c1.302-.085 2.454.032 3.456.352v2.56c-1.429-.32-2.944-.373-4.544-.16-1.6.192-3.093.928-4.48 2.208-1.216 1.131-2.08 2.432-2.592 3.904a18.356 18.356 0 0 0-.896 4.576 65.632 65.632 0 0 0-.16 4.448v17.024h-2.688Zm35.853.96c-3.264 0-6.016-.8-8.256-2.4-2.219-1.621-3.904-3.808-5.056-6.56-1.152-2.773-1.728-5.888-1.728-9.344 0-3.392.565-6.464 1.696-9.216 1.131-2.752 2.773-4.928 4.928-6.528 2.176-1.621 4.811-2.432 7.904-2.432 3.221 0 5.931.789 8.128 2.368 2.219 1.557 3.893 3.712 5.024 6.464 1.131 2.731 1.696 5.845 1.696 9.344 0 3.435-.565 6.539-1.696 9.312-1.109 2.752-2.731 4.939-4.864 6.56-2.133 1.621-4.725 2.432-7.776 2.432Zm0-2.688c2.709 0 4.971-.683 6.784-2.048 1.835-1.365 3.211-3.221 4.128-5.568.917-2.368 1.376-5.035 1.376-8 0-3.008-.469-5.675-1.408-8-.917-2.347-2.293-4.181-4.128-5.504-1.813-1.323-4.064-1.984-6.752-1.984-2.752 0-5.035.683-6.848 2.048-1.792 1.344-3.125 3.189-4 5.536-.875 2.325-1.312 4.96-1.312 7.904 0 2.965.459 5.632 1.376 8 .917 2.347 2.272 4.203 4.064 5.568 1.813 1.365 4.053 2.048 6.72 2.048Zm12.288 1.728v-27.2h-.192V76.04h2.688v46.08h-2.496Zm27.275.96c-3.413 0-6.293-.779-8.64-2.336-2.347-1.557-4.128-3.712-5.344-6.464-1.216-2.752-1.824-5.92-1.824-9.504 0-3.627.619-6.805 1.856-9.536s3.029-4.853 5.376-6.368c2.368-1.515 5.227-2.272 8.576-2.272 3.435 0 6.325.779 8.672 2.336 2.347 1.536 4.117 3.669 5.312 6.4 1.216 2.731 1.824 5.877 1.824 9.44 0 3.648-.608 6.848-1.824 9.6-1.216 2.731-3.008 4.864-5.376 6.4-2.347 1.536-5.216 2.304-8.608 2.304Zm0-2.688c4.352 0 7.595-1.44 9.728-4.32 2.133-2.901 3.2-6.667 3.2-11.296 0-4.715-1.077-8.469-3.232-11.264-2.133-2.816-5.365-4.224-9.696-4.224-2.923 0-5.344.661-7.264 1.984-1.899 1.323-3.317 3.147-4.256 5.472-.939 2.325-1.408 5.003-1.408 8.032 0 4.693 1.088 8.469 3.264 11.328 2.197 2.859 5.419 4.288 9.664 4.288Zm37.39 2.624c-3.904 0-7.147-.811-9.728-2.432-2.581-1.643-4.181-3.904-4.8-6.784l2.752-.512c.576 2.133 1.92 3.84 4.032 5.12 2.133 1.28 4.736 1.92 7.808 1.92 3.136 0 5.621-.672 7.456-2.016 1.856-1.344 2.784-3.168 2.784-5.472 0-1.259-.277-2.283-.832-3.072-.555-.811-1.643-1.547-3.264-2.208-1.6-.661-3.968-1.419-7.104-2.272-3.285-.896-5.845-1.76-7.68-2.592-1.813-.853-3.093-1.803-3.84-2.848-.725-1.067-1.088-2.368-1.088-3.904 0-1.835.544-3.456 1.632-4.864 1.088-1.408 2.592-2.507 4.512-3.296 1.92-.789 4.139-1.184 6.656-1.184 2.539 0 4.821.427 6.848 1.28 2.048.832 3.691 2.005 4.928 3.52 1.259 1.493 1.984 3.221 2.176 5.184l-2.752.512c-.405-2.411-1.643-4.309-3.712-5.696-2.048-1.408-4.608-2.112-7.68-2.112-2.88-.043-5.237.544-7.072 1.76-1.813 1.216-2.72 2.805-2.72 4.768 0 1.088.309 2.027.928 2.816.619.768 1.696 1.472 3.232 2.112 1.536.64 3.669 1.301 6.4 1.984 3.456.875 6.144 1.76 8.064 2.656 1.941.896 3.296 1.941 4.064 3.136.789 1.195 1.184 2.677 1.184 4.448 0 3.136-1.173 5.6-3.52 7.392-2.347 1.771-5.568 2.656-9.664 2.656Z"/><path d="M84.97 82.93c2.62.79 4.37 2.86 5.24 6.23.87 3.37.74 7.28-.39 11.73-2.1 7.69-7.26 14.82-15.47 21.37-3.41 2.8-7.17 5.25-11.28 7.34-3.15 12.85-6.67 28.82-10.56 47.92-3.89 19.1-6.75 34.2-8.59 45.3-.26 1.4-1.09 2.1-2.49 2.1h-.39c-.44-.09-.83-.26-1.18-.52s-.61-.61-.79-1.05c-.17-.44-.22-.87-.13-1.31 2.27-15.3 7.3-44.84 15.08-88.63-1.05.35-2.1.66-3.15.92-.7.26-1.35.22-1.97-.13-.61-.35-1-.88-1.18-1.57-.17-.7-.09-1.35.26-1.97.35-.61.88-1 1.57-1.18 1.75-.44 3.54-1.05 5.38-1.84.61-3.06 1.44-7.6 2.49-13.64 4.54-25.52 6.86-38.85 6.95-39.99 0-.7.24-1.29.72-1.77s1.03-.72 1.64-.72c.7-.09 1.31.11 1.84.59.52.48.83 1.07.92 1.77 0 .7-2.06 12.59-6.16 35.66 1.31-3.67 2.64-6.99 4-9.96 1.35-2.97 2.62-5.42 3.8-7.34 1.18-1.92 2.38-3.54 3.61-4.85 1.22-1.31 2.32-2.29 3.28-2.95.96-.66 1.9-1.13 2.82-1.44.92-.3 1.71-.44 2.36-.39.66.04 1.25.15 1.77.33Zm0 16.65c.79-3.41.98-6.16.59-8.26s-1.07-3.28-2.03-3.54c-.09-.09-.22-.13-.39-.13-.52 0-1.11.2-1.77.59-.66.39-1.51 1.14-2.56 2.23s-2.12 2.49-3.21 4.2c-1.09 1.7-2.32 4.04-3.67 7.01-1.36 2.97-2.69 6.38-4 10.23-.87 2.62-1.92 6.29-3.15 11.01 4.98-3.06 9.29-6.6 12.92-10.62 3.63-4.02 6.05-8.26 7.28-12.72ZM149.54 102.27c.66-.22 1.29-.17 1.9.13.61.31 1.03.79 1.25 1.44.22.66.2 1.29-.07 1.9-9.35 19.32-17.7 28.98-25.04 28.98-.44 0-.92-.04-1.44-.13-5.86-1.14-9.49-9-10.88-23.6-4.28 5.77-8.09 10.49-11.41 14.16-2.97 3.15-5.51 4.24-7.6 3.28-2.1-.79-3.1-3.06-3.02-6.82 0-3.15.7-6.9 2.1-11.28 1.4-4.37 3.45-8.61 6.16-12.72 2.71-4.11 5.64-6.69 8.79-7.74 4.63-1.66 8.92-.13 12.85 4.59.44.52.63 1.14.59 1.84-.04.7-.33 1.27-.85 1.71-.52.44-1.14.63-1.83.59a2.33 2.33 0 0 1-1.71-.85c-3.06-3.67-6.16-4.37-9.31-2.1-3.58 2.54-6.58 7.1-8.98 13.7-2.41 6.6-3.34 11.3-2.82 14.1.52-.44 1.13-1 1.83-1.71 3.5-3.76 7.78-9.13 12.85-16.13l2.36-3.28c.7-.87 1.62-1.16 2.75-.85 1.14.31 1.75 1.07 1.84 2.29.17 4.28.52 8.09 1.05 11.41.52 3.32 1.05 5.83 1.57 7.54s1.14 3.13 1.84 4.26c.7 1.14 1.25 1.86 1.64 2.16.39.31.81.46 1.25.46 1.22.26 2.77-.33 4.65-1.77 1.88-1.44 4.28-4.24 7.21-8.39 2.93-4.15 5.92-9.42 8.98-15.8.35-.7.85-1.16 1.51-1.38Z" class="cls-2" style="fill:#fbf5f5;stroke-width:0" transform="translate(212.817 71.63)"/><path d="M200.94 101.74c.66-.22 1.29-.17 1.9.13.61.31 1.05.79 1.31 1.44.26.66.22 1.29-.13 1.9-2.36 5.07-5.03 10.27-8 15.6-2.97 5.33-6.23 10.73-9.77 16.19-3.54 5.46-7.06 9.92-10.56 13.37-3.5 3.45-6.47 5.18-8.92 5.18-.61 0-1.18-.13-1.7-.39-3.58-1.4-4.72-6.82-3.41-16.26 1.22-8.83 4.46-21.33 9.7-37.5-.09 0-.15.02-.2.07-.04.04-.11.07-.2.07-1.92 1.31-3.52 2.32-4.79 3.02-1.27.7-2.97 1.49-5.11 2.36-2.14.88-4.17 1.27-6.1 1.18-1.92-.09-3.72-.7-5.38-1.84-3.32-2.36-5.03-5.64-5.11-9.83-.09-4.2 1.49-8.78 4.72-13.77 2.01-3.15 4.44-5.9 7.28-8.26 2.84-2.36 5.26-2.88 7.28-1.57 1.22.7 1.94 1.84 2.16 3.41.22 1.57-.55 4.61-2.29 9.11-1.75 4.5-4.68 10.38-8.79 17.64 2.71.35 7.17-1.53 13.37-5.64 1.14-.79 1.99-1.33 2.56-1.64.57-.31 1.22-.63 1.97-.98.74-.35 1.38-.48 1.9-.39.52.09 1.05.31 1.57.66 1.31 1.05 1.53 2.88.66 5.51-8.74 27.1-12.19 43.53-10.36 49.3.17.35.31.61.39.79.7.09 1.77-.48 3.21-1.7 1.44-1.23 3.23-3.15 5.38-5.77 2.14-2.62 4.46-5.77 6.95-9.44s5.25-8.17 8.26-13.5c3.02-5.33 5.92-11.01 8.72-17.04.35-.7.85-1.16 1.51-1.38ZM150 92.89c-.79 3.06-.61 5.51.52 7.34 6.38-11.1 9.79-18.62 10.23-22.55-1.05.61-2.25 1.62-3.61 3.02-1.36 1.4-2.75 3.21-4.2 5.44-1.44 2.23-2.43 4.48-2.95 6.75Z" class="cls-2" style="fill:#fbf5f5;stroke-width:0" transform="translate(212.817 71.63)"/><path d="M250.63 102.27c.66-.22 1.29-.17 1.9.13.61.31 1.03.79 1.25 1.44.22.66.2 1.29-.07 1.9-9.35 19.32-17.7 28.98-25.04 28.98-.44 0-.92-.04-1.44-.13-5.86-1.14-9.49-9-10.88-23.6-4.28 5.77-8.09 10.49-11.41 14.16-2.97 3.15-5.51 4.24-7.6 3.28-2.1-.79-3.1-3.06-3.02-6.82 0-3.15.7-6.9 2.1-11.28 1.4-4.37 3.45-8.61 6.16-12.72 2.71-4.11 5.64-6.69 8.79-7.74 4.63-1.66 8.92-.13 12.85 4.59.44.52.63 1.14.59 1.84-.04.7-.33 1.27-.85 1.71-.52.44-1.14.63-1.83.59a2.33 2.33 0 0 1-1.71-.85c-3.06-3.67-6.16-4.37-9.31-2.1-3.58 2.54-6.58 7.1-8.98 13.7-2.41 6.6-3.34 11.3-2.82 14.1.52-.44 1.13-1 1.83-1.71 3.5-3.76 7.78-9.13 12.85-16.13l2.36-3.28c.7-.87 1.62-1.16 2.75-.85 1.14.31 1.75 1.07 1.84 2.29.17 4.28.52 8.09 1.05 11.41.52 3.32 1.05 5.83 1.57 7.54s1.14 3.13 1.84 4.26c.7 1.14 1.25 1.86 1.64 2.16.39.31.81.46 1.25.46 1.22.26 2.77-.33 4.65-1.77 1.88-1.44 4.28-4.24 7.21-8.39 2.93-4.15 5.92-9.42 8.98-15.8.35-.7.85-1.16 1.51-1.38ZM397.28 54.21c.44.52.61 1.14.52 1.83-.09.7-.44 1.27-1.05 1.71-1.05.7-2.06.66-3.02-.13-4.2-1.49-33.65-1.62-88.37-.39-5.68 23.86-11.45 49.74-17.31 77.62-6.99 33.65-11.23 56.77-12.72 69.36.18 0 .35.04.52.13.7.17 1.18.59 1.44 1.25s.26 1.29 0 1.9c-.44 1.4-.81 2.42-1.12 3.08-.3.66-.76 1.31-1.38 1.97-.61.66-1.27.98-1.97.98-.26 0-.57-.04-.92-.13-1.13-.35-1.81-1.27-2.03-2.75-.22-1.49-.11-3.5.33-6.03.35-3.67 1.14-8.96 2.36-15.87 2.19-13.11 5.46-30.16 9.83-51.14 5.86-28.32 11.75-55.07 17.7-80.24-5.95.09-13.33.26-22.16.52-13.98.35-22.2.52-24.65.52-.7 0-1.29-.24-1.77-.72s-.72-1.07-.72-1.77c0-.44.11-.85.33-1.25.22-.39.52-.7.92-.92.39-.22.81-.33 1.25-.33 2.45 0 10.62-.22 24.52-.66 8.65-.17 16.52-.35 23.6-.52 2.8-11.54 5.29-21.33 7.47-29.37.17-.7.57-1.22 1.18-1.57.61-.35 1.25-.44 1.9-.26.66.18 1.16.57 1.51 1.18.35.61.44 1.27.26 1.97-2.1 7.78-4.5 17.09-7.21 27.93 26.22-.7 46.02-.96 59.4-.79 13.37.18 21.79.46 25.24.85 3.45.39 5.48 1.07 6.1 2.03Z" class="cls-2" style="fill:#fbf5f5;stroke-width:0" transform="translate(212.817 71.63)"/><path d="M349.68 102.46c.7-.09 1.33.09 1.9.52.57.44.9 1.01.98 1.7.09.7-.09 1.31-.52 1.84-3.59 4.63-7.87 8.26-12.85 10.88-4.98 2.62-9.66 3.45-14.03 2.49-1.23 2.97-2.93 5.31-5.11 7.01-2.19 1.7-4.46 2.56-6.82 2.56h-.13c-2.36-.09-4.44-.9-6.23-2.43-1.79-1.53-3.04-3.65-3.74-6.36-1.13-4.28-.94-8.37.59-12.26 1.53-3.89 3.74-6.75 6.62-8.59.61-.44 1.31-.52 2.1-.26.79-1.92 1.9-3.41 3.34-4.46s2.95-1.44 4.52-1.18c.87.18 1.68.55 2.43 1.12.74.57 1.49 1.46 2.23 2.69s1.29 3.1 1.64 5.64c.35 2.54.44 5.55.26 9.05-.09.87-.22 1.75-.39 2.62 3.32.7 7.01-.13 11.08-2.49a35.46 35.46 0 0 0 10.42-9.18c.44-.52 1-.83 1.7-.92Zm-36.45 21.9c1.22 0 2.51-.57 3.87-1.71 1.35-1.13 2.47-2.67 3.34-4.59-5.68-3.15-8.65-7.43-8.92-12.85-1.75 1.66-2.95 3.89-3.61 6.69-.66 2.8-.63 5.25.07 7.34.96 3.41 2.71 5.11 5.25 5.11Zm8.53-12.2c.17-2.1.2-3.91.07-5.44-.13-1.53-.29-2.77-.46-3.74-.18-.96-.39-1.75-.66-2.36-.26-.61-.5-1.05-.72-1.31-.22-.26-.37-.39-.46-.39h-.13c-.35 0-.79.29-1.31.85-.52.57-.92 1.33-1.18 2.29-.52 1.83-.44 3.72.26 5.64.7 1.92 2.23 3.67 4.59 5.25v-.79Z" class="cls-2" style="fill:#fbf5f5;stroke-width:0" transform="translate(212.817 71.63)"/><path d="M402 22.09c2.27 2.27 1.13 10.32-3.41 24.12-.35 1.05-.83 2.49-1.44 4.33-1.92 5.86-3.5 10.53-4.72 14.03-1.23 3.5-3.15 8.39-5.77 14.69s-5.46 12.33-8.52 18.09c-2.54 12.06-4.94 24.91-7.21 38.55-3.93 23.34-6.03 39.16-6.29 47.46.7-.26 1.4-.26 2.1 0 .61.35 1.03.85 1.25 1.51.22.66.2 1.29-.07 1.9-1.57 3.32-3.15 4.98-4.72 4.98-.35 0-.7-.04-1.05-.13-.96-.35-1.64-.98-2.03-1.9-.39-.92-.57-2.84-.52-5.77.04-2.93.41-7.23 1.11-12.92 1.05-9.09 2.8-21.07 5.24-35.93 1.4-8.13 2.84-16.04 4.33-23.73a281.51 281.51 0 0 1-8.65 13.11c-5.77 8.39-10.8 11.41-15.08 9.05-2.8-2.01-4.15-5.57-4.06-10.69.09-5.11 1.36-10.29 3.8-15.54 2.88-6.12 6.29-10.62 10.23-13.5s7.43-3.87 10.49-2.95c3.06.92 4.81 3.21 5.25 6.88.44-.7.83-1.4 1.18-2.1 4.63-21.94 9.29-39.58 13.96-52.91 4.68-13.33 8.5-20.47 11.47-21.44 1.22-.44 2.27-.17 3.15.79Zm-44.45 99.52a250.9 250.9 0 0 0 11.28-17.83c-1.31-.44-1.84-1.31-1.57-2.62.35-3.23-.22-5.07-1.7-5.51h-.79c-1.84 0-4.09 1.2-6.75 3.61-2.67 2.41-5.05 5.83-7.15 10.29-1.4 2.88-2.34 5.83-2.82 8.85-.48 3.02-.59 5.46-.33 7.34.26 1.88.74 3 1.44 3.34.26.18.68.15 1.25-.07s1.51-.96 2.82-2.23c1.31-1.27 2.75-2.99 4.33-5.18Zm36.19-76.97c1.75-5.33 3.02-9.88 3.8-13.64-4.28 9-8.87 23.03-13.77 42.09 2.45-5.94 5.29-13.94 8.52-23.99.61-1.92 1.09-3.41 1.44-4.46ZM440.09 102.27c.66-.22 1.29-.17 1.9.13.61.31 1.03.79 1.25 1.44.22.66.2 1.29-.07 1.9-9.35 19.32-17.7 28.98-25.04 28.98-.44 0-.92-.04-1.44-.13-5.86-1.14-9.49-9-10.88-23.6-4.28 5.77-8.09 10.49-11.41 14.16-2.97 3.15-5.51 4.24-7.6 3.28-2.1-.79-3.1-3.06-3.02-6.82 0-3.15.7-6.9 2.1-11.28 1.4-4.37 3.45-8.61 6.16-12.72 2.71-4.11 5.64-6.69 8.79-7.74 4.63-1.66 8.92-.13 12.85 4.59.44.52.63 1.14.59 1.84-.04.7-.33 1.27-.85 1.71-.52.44-1.14.63-1.83.59a2.33 2.33 0 0 1-1.71-.85c-3.06-3.67-6.16-4.37-9.31-2.1-3.58 2.54-6.58 7.1-8.98 13.7-2.41 6.6-3.34 11.3-2.82 14.1.52-.44 1.13-1 1.83-1.71 3.5-3.76 7.78-9.13 12.85-16.13l2.36-3.28c.7-.87 1.62-1.16 2.75-.85 1.14.31 1.75 1.07 1.84 2.29.17 4.28.52 8.09 1.05 11.41.52 3.32 1.05 5.83 1.57 7.54s1.14 3.13 1.84 4.26c.7 1.14 1.25 1.86 1.64 2.16.39.31.81.46 1.25.46 1.22.26 2.77-.33 4.65-1.77 1.88-1.44 4.28-4.24 7.21-8.39 2.93-4.15 5.92-9.42 8.98-15.8.35-.7.85-1.16 1.51-1.38ZM514.62 8.71c1.83 2.71.94 9.11-2.69 19.21-3.63 10.1-9.51 21.61-17.63 34.55l-.26.26c-5.51 22.03-10.77 45-15.8 68.9s-8.24 40.93-9.64 51.07h.26c.7.26 1.2.7 1.51 1.31.31.61.33 1.27.07 1.97-.52 1.49-.94 2.6-1.25 3.34-.3.74-.76 1.46-1.38 2.16-.61.7-1.27 1.05-1.97 1.05-.26 0-.57-.05-.92-.13-1.22-.44-1.88-1.64-1.97-3.61-.09-1.97.52-6.8 1.84-14.49 1.57-9.44 3.93-21.77 7.08-36.97 7.25-34.62 14.47-65.47 21.63-92.57.61-2.27 1.27-4.66 1.97-7.15s1.71-5.62 3.02-9.38c1.31-3.76 2.6-7.06 3.87-9.9 1.27-2.84 2.69-5.38 4.26-7.6 1.57-2.23 3.06-3.43 4.46-3.61 1.49-.26 2.67.26 3.54 1.57Zm-15.99 36.45c6.99-13.2 10.93-23.56 11.8-31.07-3.85 5.77-7.78 16.13-11.8 31.07ZM549.04 102.27c.66-.22 1.29-.17 1.9.13.61.31 1.03.79 1.25 1.44.22.66.2 1.29-.07 1.9-9.35 19.32-17.7 28.98-25.04 28.98-.44 0-.92-.04-1.44-.13-5.86-1.14-9.49-9-10.88-23.6-4.28 5.77-8.09 10.49-11.41 14.16-2.97 3.15-5.51 4.24-7.6 3.28-2.1-.79-3.1-3.06-3.02-6.82 0-3.15.7-6.9 2.1-11.28 1.4-4.37 3.45-8.61 6.16-12.72 2.71-4.11 5.64-6.69 8.79-7.74 4.63-1.66 8.92-.13 12.85 4.59.44.52.63 1.14.59 1.84-.04.7-.33 1.27-.85 1.71-.52.44-1.14.63-1.83.59a2.33 2.33 0 0 1-1.71-.85c-3.06-3.67-6.16-4.37-9.31-2.1-3.58 2.54-6.58 7.1-8.98 13.7-2.41 6.6-3.34 11.3-2.82 14.1.52-.44 1.13-1 1.83-1.71 3.5-3.76 7.78-9.13 12.85-16.13l2.36-3.28c.7-.87 1.62-1.16 2.75-.85 1.14.31 1.75 1.07 1.84 2.29.17 4.28.52 8.09 1.05 11.41.52 3.32 1.05 5.83 1.57 7.54s1.14 3.13 1.84 4.26c.7 1.14 1.25 1.86 1.64 2.16.39.31.81.46 1.25.46 1.22.26 2.77-.33 4.65-1.77 1.88-1.44 4.28-4.24 7.21-8.39 2.93-4.15 5.92-9.42 8.98-15.8.35-.7.85-1.16 1.51-1.38ZM649.08 102.4c.66-.04 1.27.15 1.84.59.57.44.87 1.01.92 1.7.04.7-.15 1.31-.59 1.84-3.32 3.85-7.12 6.62-11.41 8.33-4.28 1.71-8.35 2.03-12.19.98-4.46-1.13-7.91-3.89-10.36-8.26-2.19 7.6-5.51 15.08-9.96 22.42-2.97 4.98-5.99 9.11-9.05 12.39-3.06 3.28-5.81 5.31-8.26 6.1-.88.26-1.7.39-2.49.39-1.57 0-2.88-.52-3.93-1.57-5.07-5.16-2.53-22.9 7.61-53.23.17-.61.59-1.07 1.25-1.38.66-.31 1.31-.35 1.97-.13.66.22 1.13.63 1.44 1.25.31.61.33 1.27.07 1.97-2.54 7.69-4.59 14.58-6.16 20.65-1.57 6.08-2.6 10.71-3.08 13.9-.48 3.19-.68 5.88-.59 8.06.09 2.18.22 3.56.39 4.13.17.57.39.94.66 1.11.26.26.7.26 1.31 0 2.45-.79 5.51-3.54 9.18-8.26s7.12-10.56 10.36-17.5c3.23-6.95 5.29-13.53 6.16-19.73.09-.61.37-1.11.85-1.51.48-.39 1.03-.63 1.64-.72 1.4 0 2.23.7 2.49 2.1 1.4 7.34 4.67 11.67 9.83 12.98 2.88.79 6.01.48 9.37-.92 3.36-1.4 6.36-3.67 8.98-6.82.52-.52 1.12-.81 1.77-.85Z" class="cls-2" style="fill:#fbf5f5;stroke-width:0" transform="translate(212.817 71.63)"/><path d="M681.86 101.41c.66-.17 1.29-.09 1.9.26.61.35.98.88 1.12 1.57.13.7.02 1.36-.33 1.97-2.45 3.85-5.4 7.85-8.85 12a72.47 72.47 0 0 1-11.67 11.21c-4.33 3.32-7.98 4.98-10.95 4.98-1.05 0-1.97-.18-2.75-.52-5.85-2.53-6.47-12.8-1.83-30.81.17-.7.57-1.22 1.18-1.57.61-.35 1.25-.44 1.9-.26.66.18 1.16.57 1.51 1.18.35.61.44 1.23.26 1.84-1.05 4.2-1.81 7.89-2.29 11.08-.48 3.19-.7 5.62-.66 7.28.04 1.66.22 3.04.52 4.13.31 1.09.57 1.75.79 1.97.22.22.41.37.59.46 2.27.96 6.4-1.31 12.39-6.82s11.17-11.8 15.54-18.88c.44-.53.98-.87 1.64-1.05Zm-29.04-10.22c-2.54-.17-3.32-1.22-2.36-3.15.87-1.57 2.01-2.62 3.41-3.15 2.18-.7 3.5-.13 3.93 1.71.44 1.75-.22 3.06-1.97 3.93-.87.44-1.88.66-3.02.66Z" class="cls-2" style="fill:#fbf5f5;stroke-width:0" transform="translate(212.817 71.63)"/><path d="M733.72 22.09c2.27 2.27 1.13 10.32-3.41 24.12-.35 1.05-.83 2.49-1.44 4.33-1.92 5.86-3.5 10.53-4.72 14.03-1.23 3.5-3.15 8.39-5.77 14.69s-5.46 12.33-8.52 18.09c-2.54 12.06-4.94 24.91-7.21 38.55-3.93 23.34-6.03 39.16-6.29 47.46.7-.26 1.4-.26 2.1 0 .61.35 1.03.85 1.25 1.51.22.66.2 1.29-.07 1.9-1.57 3.32-3.15 4.98-4.72 4.98-.35 0-.7-.04-1.05-.13-.96-.35-1.64-.98-2.03-1.9-.39-.92-.57-2.84-.52-5.77.04-2.93.41-7.23 1.11-12.92 1.05-9.09 2.8-21.07 5.24-35.93 1.4-8.13 2.84-16.04 4.33-23.73a281.51 281.51 0 0 1-8.65 13.11c-5.77 8.39-10.8 11.41-15.08 9.05-2.8-2.01-4.15-5.57-4.06-10.69.09-5.11 1.36-10.29 3.8-15.54 2.88-6.12 6.29-10.62 10.23-13.5s7.43-3.87 10.49-2.95c3.06.92 4.81 3.21 5.25 6.88.44-.7.83-1.4 1.18-2.1 4.63-21.94 9.29-39.58 13.96-52.91 4.68-13.33 8.5-20.47 11.47-21.44 1.22-.44 2.27-.17 3.15.79Zm-44.45 99.52a250.9 250.9 0 0 0 11.28-17.83c-1.31-.44-1.84-1.31-1.57-2.62.35-3.23-.22-5.07-1.7-5.51h-.79c-1.84 0-4.09 1.2-6.75 3.61-2.67 2.41-5.05 5.83-7.15 10.29-1.4 2.88-2.34 5.83-2.82 8.85-.48 3.02-.59 5.46-.33 7.34.26 1.88.74 3 1.44 3.34.26.18.68.15 1.25-.07s1.51-.96 2.82-2.23c1.31-1.27 2.75-2.99 4.33-5.18Zm36.18-76.97c1.75-5.33 3.02-9.88 3.8-13.64-4.28 9-8.87 23.03-13.77 42.09 2.45-5.94 5.29-13.94 8.52-23.99.61-1.92 1.09-3.41 1.44-4.46ZM771.8 102.27c.66-.22 1.29-.17 1.9.13.61.31 1.03.79 1.25 1.44.22.66.2 1.29-.07 1.9-9.35 19.32-17.7 28.98-25.04 28.98-.44 0-.92-.04-1.44-.13-5.86-1.14-9.49-9-10.88-23.6-4.28 5.77-8.09 10.49-11.41 14.16-2.97 3.15-5.51 4.24-7.6 3.28-2.1-.79-3.1-3.06-3.02-6.82 0-3.15.7-6.9 2.1-11.28 1.4-4.37 3.45-8.61 6.16-12.72 2.71-4.11 5.64-6.69 8.79-7.74 4.63-1.66 8.92-.13 12.85 4.59.44.52.63 1.14.59 1.84-.04.7-.33 1.27-.85 1.71-.52.44-1.14.63-1.83.59a2.33 2.33 0 0 1-1.71-.85c-3.06-3.67-6.16-4.37-9.31-2.1-3.58 2.54-6.58 7.1-8.98 13.7-2.41 6.6-3.34 11.3-2.82 14.1.52-.44 1.13-1 1.83-1.71 3.5-3.76 7.78-9.13 12.85-16.13l2.36-3.28c.7-.87 1.62-1.16 2.75-.85 1.14.31 1.75 1.07 1.84 2.29.17 4.28.52 8.09 1.05 11.41.52 3.32 1.05 5.83 1.57 7.54s1.14 3.13 1.84 4.26c.7 1.14 1.25 1.86 1.64 2.16.39.31.81.46 1.25.46 1.22.26 2.77-.33 4.65-1.77 1.88-1.44 4.28-4.24 7.21-8.39 2.93-4.15 5.92-9.42 8.98-15.8.35-.7.85-1.16 1.51-1.38Z" class="cls-2" style="fill:#fbf5f5;stroke-width:0" transform="translate(212.817 71.63)"/></svg>