<svg xmlns="http://www.w3.org/2000/svg" width="655" height="125" fill="none"><g fill="#fff" clip-path="url(#a)"><path d="M64.306 64.787a1.56 1.56 0 0 1 1.293.045c.433.204.715.52.86.947.144.433.13.847-.046 1.248-5.736 12.292-11.445 22.745-17.122 31.358-5.676 8.613-11.143 15.131-16.393 19.552-5.25 4.422-10.113 6.636-14.582 6.636-1.319 0-2.612-.204-3.872-.604-4.075-1.262-7.356-4.468-9.85-9.606C2.1 109.226.624 102.735.164 94.897-.295 87.059.25 78.143 1.8 68.15c1.66-10.453 4.501-21.247 8.518-32.39 4.705-13.093 9.81-22.942 15.316-29.545 4.47-5.348 8.308-7.24 11.524-5.69 2.238 1.091 3.74 3.693 4.515 7.8.775 4.106.906 9.256.387 15.465a233.459 233.459 0 0 1-2.323 18.652c-1.03 6.235-2.35 12.963-3.957 20.203-.118.4-.374.729-.774.992-.4.256-.82.328-1.247.216a1.736 1.736 0 0 1-1.03-.729c-.257-.374-.329-.788-.217-1.248 1.72-7.693 3.097-14.743 4.128-21.149 1.03-6.405 1.706-11.76 2.02-16.063.316-4.31.388-8.009.218-11.11-.171-3.101-.532-5.44-1.077-7.023-.544-1.577-1.247-2.57-2.106-2.97-.808-.4-1.864-.17-3.183.69-1.32.86-2.756 2.214-4.305 4.047-5.106 6.143-9.811 15.091-14.11 26.832-4.304 11.747-7.31 22.929-9.036 33.552-2.297 14.126-2.382 26.103-.256 35.925.978 4.481 2.382 8.114 4.213 10.9 1.838 2.785 3.984 4.553 6.451 5.295 5.447 1.721 12.016-1.439 19.707-9.474 9.063-9.474 18.467-24.696 28.225-45.655.171-.4.473-.69.906-.86v-.026Z"/><path d="M90.076 65.43c.46-.085.873 0 1.247.256.374.257.59.618.643 1.078.06.46-.026.86-.256 1.209-6.483 9.073-12.39 15.505-17.725 19.296-2.12 1.491-4.213 2.24-6.28 2.24-1.608 0-3.012-.433-4.213-1.294-.69-.52-1.306-1.21-1.85-2.07-.546-.86-1.018-2.07-1.418-3.62-.4-1.55-.473-3.587-.217-6.116.256-2.53.906-5.4 1.936-8.614v-.085c1.608-5.223 3.557-9.362 5.854-12.404s4.357-4.592 6.195-4.652c1.319-.059 2.178.52 2.579 1.722.63 1.669-.118 4.02-2.238 7.062-2.12 3.042-5.25 6.32-9.378 9.822-.689 2.24-1.174 4.31-1.463 6.203-.289 1.892-.387 3.403-.302 4.52.085 1.117.289 2.096.604 2.93.315.834.603 1.419.86 1.767.255.348.53.63.82.86 1.719 1.262 3.93.92 6.628-1.03 5.046-3.562 10.67-9.705 16.865-18.436a1.855 1.855 0 0 1 1.123-.644h-.014ZM73.382 54.274c-2.009 1.262-3.99 3.995-5.94 8.187 3.328-3.331 5.303-6.058 5.94-8.187Z"/><path d="M112.527 4.224c1.201 1.78.617 5.986-1.766 12.621-2.382 6.636-6.24 14.198-11.57 22.7l-.17.17C95.405 54.19 91.953 69.28 88.653 84.982c-3.301 15.703-5.408 26.891-6.327 33.553h.17c.46.171.788.46.992.861.203.401.216.834.046 1.294a40.944 40.944 0 0 1-.82 2.194c-.197.487-.5.96-.906 1.42-.4.459-.834.689-1.293.689a2.79 2.79 0 0 1-.604-.085c-.8-.289-1.234-1.077-1.293-2.372-.059-1.294.342-4.467 1.208-9.52 1.03-6.202 2.579-14.302 4.646-24.289 4.758-22.745 9.496-43.013 14.195-60.818.4-1.491.833-3.061 1.293-4.697.459-1.636 1.122-3.693 1.981-6.163.86-2.47 1.707-4.638 2.54-6.504.834-1.866 1.765-3.535 2.796-4.993 1.03-1.465 2.008-2.254 2.927-2.372.977-.171 1.752.17 2.323 1.031v.013Zm-10.494 23.948c4.588-8.672 7.173-15.479 7.744-20.413-2.526 3.791-5.106 10.598-7.744 20.413ZM128.191 65.43a1.6 1.6 0 0 1 1.247.256c.374.257.591.618.643 1.078.059.46-.026.86-.256 1.209-6.483 9.073-12.39 15.505-17.725 19.296-2.119 1.491-4.213 2.24-6.28 2.24-1.608 0-3.012-.433-4.213-1.294-.689-.52-1.306-1.21-1.85-2.07-.546-.86-1.018-2.07-1.418-3.62-.4-1.55-.473-3.587-.217-6.116.256-2.53.906-5.4 1.936-8.614v-.085c1.608-5.223 3.557-9.362 5.854-12.404s4.357-4.592 6.195-4.652c1.319-.059 2.178.52 2.579 1.722.63 1.669-.118 4.02-2.238 7.062-2.12 3.042-5.25 6.32-9.378 9.822-.689 2.24-1.174 4.31-1.463 6.203-.289 1.892-.387 3.403-.302 4.52.085 1.117.289 2.096.604 2.93.315.834.603 1.419.859 1.767.256.348.532.63.821.86 1.719 1.262 3.931.92 6.628-1.03 5.046-3.562 10.67-9.705 16.865-18.436a1.858 1.858 0 0 1 1.122-.644h-.013Zm-16.695-11.156c-2.008 1.262-3.99 3.995-5.939 8.187 3.328-3.331 5.303-6.058 5.939-8.187Z"/><path d="M160.413 65.43a1.748 1.748 0 0 1 1.247.217c.4.23.656.578.774 1.031.112.46.026.861-.256 1.21a55.105 55.105 0 0 1-8.177 10.294c-3.156 3.134-6.398 5.743-9.725 7.838-3.327 2.096-6.326 3.791-8.991 5.086a70.416 70.416 0 0 1-8.045 3.317c-.801.29-1.438.06-1.89-.69a88.197 88.197 0 0 0-2.409 6.807c-.229.742-.774 1.117-1.634 1.117h-.256a1.54 1.54 0 0 1-.991-.558 1.672 1.672 0 0 1-.387-1.078c.059-1.32 1.45-8.153 4.174-20.505a3000.504 3000.504 0 0 1 8.216-36.18c0-.171.026-.342.085-.52a928.493 928.493 0 0 1 2.409-9.992c1.949-7.924 4.2-14.69 6.753-20.288 2.552-5.598 4.744-8.574 6.582-8.916.978-.17 1.719.118 2.238.86 1.26 1.67.544 6.091-2.153 13.265-2.697 7.181-6.917 15.94-12.646 26.274a1910.245 1910.245 0 0 0-8.774 38.677c1.608-3.33 3.157-6.031 4.646-8.1 4.476-6.262 8.033-8.988 10.671-8.187 1.719.52 2.612 2.037 2.664 4.566 0 1.21-.19 2.57-.558 4.093-.374 1.525-.99 3.2-1.85 5.04a32.168 32.168 0 0 1-3.098 5.255c8.952-5.282 15.744-11.688 20.397-19.21.229-.4.557-.644.99-.736l-.006.013Zm-34.118 25.8c2.067-.749 4.003-1.852 5.807-3.317 1.805-1.465 3.301-3.055 4.476-4.783 1.175-1.722 2.12-3.404 2.842-5.04.715-1.635 1.22-3.173 1.502-4.605.401-2.01.401-3.305 0-3.876-.229 0-.531.098-.905.302s-1.136.86-2.277 1.984c-1.149 1.124-2.409 2.654-3.787 4.606-2.467 3.449-5.02 8.357-7.658 14.73Zm20.993-82.866c-3.098 4.592-6.024 12.088-8.774 22.482 4.987-10.105 7.914-17.601 8.774-22.482Z"/><path d="M194.229 65.345a1.582 1.582 0 0 1 1.247.085c.401.204.689.52.86.946.171.434.144.848-.085 1.249a158.922 158.922 0 0 1-5.25 10.249 186.157 186.157 0 0 1-6.412 10.636c-2.323 3.588-4.633 6.518-6.93 8.784-2.297 2.267-4.246 3.404-5.854 3.404-.4 0-.774-.086-1.115-.256-2.35-.92-3.098-4.481-2.238-10.683.801-5.802 2.927-14.014 6.366-24.638-.059 0-.099.014-.132.046a.184.184 0 0 1-.131.046c-1.26.861-2.31 1.525-3.143 1.985-.834.46-1.949.978-3.354 1.55-1.404.578-2.736.834-4.003.775-1.26-.059-2.441-.46-3.53-1.209-2.179-1.55-3.301-3.705-3.354-6.458-.059-2.76.978-5.768 3.098-9.047a23.31 23.31 0 0 1 4.777-5.426c1.864-1.551 3.452-1.893 4.778-1.032.8.46 1.273 1.209 1.417 2.24.144 1.032-.361 3.03-1.503 5.986-1.148 2.956-3.071 6.82-5.768 11.589 1.778.23 4.705-1.005 8.774-3.705.748-.52 1.306-.874 1.68-1.078.374-.204.8-.414 1.293-.644.485-.23.905-.315 1.246-.256.342.06.69.204 1.031.434.859.69 1.004 1.892.433 3.62-5.736 17.804-8 28.599-6.799 32.39.112.23.204.4.256.519.46.059 1.162-.316 2.107-1.117.945-.808 2.119-2.07 3.53-3.791 1.405-1.721 2.927-3.791 4.561-6.202s3.446-5.368 5.421-8.87c1.982-3.501 3.885-7.233 5.722-11.195.23-.46.558-.762.991-.906l.013-.02ZM160.8 59.53c-.518 2.01-.4 3.62.341 4.823 4.187-7.293 6.425-12.233 6.714-14.815-.689.4-1.477 1.064-2.369 1.984-.893.92-1.805 2.109-2.756 3.574-.945 1.465-1.595 2.943-1.936 4.434h.006Z"/><path d="M226.838 65.693a1.582 1.582 0 0 1 1.247.085c.4.204.676.52.82.947.145.433.132.847-.046 1.248-6.135 12.693-11.615 19.04-16.432 19.04-.289 0-.604-.027-.945-.086-3.846-.749-6.228-5.913-7.14-15.505-2.809 3.79-5.309 6.892-7.488 9.303-1.949 2.07-3.616 2.786-4.987 2.155-1.378-.519-2.035-2.01-1.982-4.48 0-2.07.459-4.534 1.378-7.412.919-2.87 2.264-5.656 4.043-8.357 1.778-2.7 3.701-4.395 5.768-5.085 3.038-1.09 5.854-.085 8.433 3.016.289.342.413.749.387 1.209-.026.46-.217.834-.558 1.123a1.65 1.65 0 0 1-1.201.388 1.53 1.53 0 0 1-1.122-.559c-2.008-2.41-4.042-2.87-6.11-1.38-2.349 1.67-4.318 4.665-5.893 9.001-1.581 4.337-2.192 7.425-1.85 9.264.341-.289.741-.657 1.201-1.123 2.296-2.47 5.105-5.999 8.432-10.598l1.549-2.155c.459-.571 1.063-.762 1.805-.558.748.204 1.148.703 1.207 1.504.112 2.812.342 5.316.689 7.497.342 2.181.689 3.83 1.031 4.954.341 1.123.748 2.056 1.207 2.798.46.75.82 1.222 1.076 1.42.256.203.532.302.821.302.8.17 1.818-.217 3.051-1.163 1.234-.946 2.809-2.786 4.732-5.512 1.923-2.727 3.885-6.19 5.893-10.38.23-.46.558-.763.991-.908l-.007.007Z"/><path d="M252.261 65.128c.46-.112.873-.046 1.247.217.374.256.617.617.735 1.077.112.46.026.86-.256 1.21a246.69 246.69 0 0 1-4.948 7.41 144.894 144.894 0 0 1-4.777 6.419c-1.779 2.267-3.4 4.08-4.863 5.427-1.464 1.346-2.999 2.47-4.601 3.357-1.607.887-3.13 1.334-4.56 1.334-.519 0-1.031-.06-1.549-.171-2.067-.46-3.642-1.669-4.732-3.62-1.148-2.582-1.647-5.414-1.503-8.489a30.558 30.558 0 0 1 1.851-9.086c1.149-3.16 2.592-5.597 4.344-7.319 1.753-1.721 3.4-2.326 4.949-1.806.341.118.656.275.945.472.288.204.63.605 1.03 1.21.4.604.604 1.392.604 2.371 0 .98-.171 2.24-.519 3.791-.118.46-.361.808-.735 1.031-.374.23-.787.29-1.247.171a1.555 1.555 0 0 1-1.03-.775c-.23-.4-.289-.801-.171-1.202.571-2.181.604-3.502.086-3.962-.23 0-.591.17-1.077.52-.485.34-1.135 1.103-1.935 2.279-.808 1.176-1.523 2.654-2.153 4.435-1.03 2.7-1.588 5.44-1.68 8.225-.085 2.786.302 4.954 1.162 6.504.571 1.091 1.404 1.755 2.493 1.984.978.23 2.081.086 3.314-.433 1.234-.52 2.553-1.452 3.958-2.799a68.407 68.407 0 0 0 3.825-3.962c1.149-1.294 2.481-3.015 4.004-5.17a591.632 591.632 0 0 0 3.484-4.993c.801-1.176 1.89-2.825 3.268-4.954.23-.348.571-.572 1.031-.69l.006-.013Z"/><path d="M273.471 65.128c.433-.112.847-.06 1.247.17.4.23.643.579.735 1.032.085.46.013.894-.217 1.295-1.607 2.529-3.543 5.157-5.807 7.883a47.56 47.56 0 0 1-7.659 7.365c-2.841 2.182-5.237 3.272-7.186 3.272-.689 0-1.292-.118-1.804-.341-3.839-1.663-4.246-8.41-1.201-20.242a1.57 1.57 0 0 1 .774-1.032c.4-.23.82-.289 1.247-.17.433.118.761.374.991.775.23.4.289.808.171 1.208-.69 2.76-1.188 5.184-1.503 7.28-.315 2.096-.46 3.692-.433 4.783.026 1.09.144 1.997.341 2.713.203.716.374 1.15.518 1.294.145.145.269.244.387.303 1.49.63 4.2-.86 8.131-4.48 3.931-3.621 7.331-7.754 10.198-12.405a2.061 2.061 0 0 1 1.077-.69l-.007-.013Zm-19.057-6.715c-1.667-.111-2.179-.801-1.549-2.069.571-1.032 1.319-1.721 2.238-2.07 1.43-.46 2.297-.085 2.579 1.124.289 1.15-.145 2.01-1.293 2.582-.571.289-1.234.434-1.982.434h.007Z"/><path d="M300.187 65.818c.459-.06.873.059 1.247.341.374.29.59.664.643 1.117.059.46-.059.861-.341 1.21-2.356 3.041-5.165 5.426-8.433 7.147-3.268 1.722-6.339 2.267-9.207 1.636-.807 1.951-1.923 3.489-3.354 4.606-1.437 1.117-2.926 1.682-4.475 1.682h-.086a6.504 6.504 0 0 1-4.088-1.597c-1.175-1.005-1.995-2.398-2.454-4.178-.742-2.812-.617-5.5.387-8.055 1.004-2.556 2.454-4.435 4.344-5.644.401-.289.86-.341 1.378-.17.519-1.262 1.247-2.24 2.192-2.93.945-.69 1.936-.947 2.966-.776a3.918 3.918 0 0 1 1.595.736c.486.374.978.96 1.464 1.767.485.808.846 2.037 1.076 3.706.229 1.669.289 3.646.17 5.946-.059.571-.144 1.15-.256 1.72 2.179.46 4.601-.085 7.272-1.635a23.283 23.283 0 0 0 6.838-6.031 1.69 1.69 0 0 1 1.115-.605l.007.007Zm-23.92 14.388c.8 0 1.647-.374 2.539-1.123.886-.743 1.621-1.755 2.192-3.016-3.727-2.07-5.676-4.881-5.853-8.442-1.149 1.09-1.936 2.555-2.369 4.395-.434 1.84-.414 3.45.045 4.822.63 2.24 1.779 3.358 3.446 3.358v.006Zm5.598-8.009c.111-1.38.131-2.569.045-3.574a28.625 28.625 0 0 0-.301-2.457c-.119-.63-.256-1.15-.434-1.55-.17-.401-.328-.69-.472-.861-.144-.171-.243-.256-.302-.256h-.085c-.23 0-.519.19-.86.558-.341.375-.604.874-.774 1.505-.342 1.202-.289 2.444.17 3.705.46 1.261 1.464 2.411 3.013 3.45v-.52Z"/><path d="M331.162 65.562c.459-.112.886-.06 1.293.17.4.23.656.559.774.993.112.433.059.847-.171 1.248-1.949 3.449-3.642 6.175-5.079 8.186-1.437 2.01-2.901 3.587-4.39 4.737-1.49 1.15-2.953 1.636-4.391 1.465-2.867-.342-5.131-3.443-6.798-9.303-1.208-3.962-2.238-5.946-3.098-5.946-.17-.059-.42.013-.735.217s-.82.716-1.503 1.55c-.689.835-1.45 1.971-2.277 3.404-.833 1.439-1.923 3.56-3.268 6.373-1.345 2.811-2.796 6.142-4.344 9.992-.289.69-.801 1.032-1.549 1.032a.726.726 0 0 1-.341-.086c-.978-.23-1.405-.834-1.293-1.806.571-4.71 2.723-13.469 6.451-26.273.4-1.321.689-2.326.86-3.016.17-.46.459-.788.859-.992a1.717 1.717 0 0 1 1.247-.132c.433.119.761.375.991.776.23.4.256.834.085 1.294-.118.4-.4 1.406-.859 3.016-1.26 4.421-2.238 7.87-2.927 10.334 1.837-3.45 3.445-5.827 4.817-7.148 1.378-1.32 2.697-1.951 3.957-1.892 1.489.059 2.677.834 3.57 2.326.886 1.491 1.732 3.534 2.539 6.116 1.26 4.422 2.612 6.721 4.043 6.892.689.118 1.536-.27 2.54-1.163 1.004-.887 2.08-2.181 3.228-3.876 1.149-1.695 2.022-3.029 2.625-4.008a70.362 70.362 0 0 0 2.107-3.705c.23-.4.571-.657 1.03-.775h.007Z"/><path d="M356.375 65.43c.459-.085.873 0 1.247.256.374.257.59.618.643 1.078.059.46-.026.86-.256 1.209-6.484 9.073-12.39 15.505-17.725 19.296-2.12 1.491-4.213 2.24-6.281 2.24-1.607 0-3.012-.433-4.213-1.294-.689-.52-1.306-1.21-1.85-2.07-.545-.86-1.017-2.07-1.418-3.62-.4-1.55-.472-3.587-.216-6.116.256-2.53.905-5.4 1.936-8.614v-.085c1.607-5.223 3.557-9.362 5.853-12.404 2.297-3.042 4.358-4.592 6.195-4.652 1.319-.059 2.179.52 2.579 1.722.63 1.669-.118 4.02-2.237 7.062-2.12 3.042-5.25 6.32-9.378 9.822-.689 2.24-1.175 4.31-1.464 6.203-.288 1.892-.387 3.403-.301 4.52.085 1.117.288 2.096.603 2.93.315.834.604 1.419.86 1.767.256.348.532.63.82.86 1.72 1.262 3.931.92 6.628-1.03 5.047-3.562 10.671-9.705 16.866-18.436a1.855 1.855 0 0 1 1.122-.644h-.013ZM339.68 54.274c-2.008 1.262-3.99 3.995-5.939 8.187 3.327-3.331 5.302-6.058 5.939-8.187Z"/><path d="M390.618 64.786c.459-.059.86.073 1.207.388.342.315.545.703.604 1.163.059.46-.085.86-.433 1.209-11.13 12.982-17.495 20.472-19.103 22.482a488.93 488.93 0 0 0-2.842 3.706c.801 3.271.86 6.432.171 9.473-.689 3.042-1.667 5.657-2.927 7.838-1.26 2.182-2.756 3.962-4.476 5.342-1.607 1.379-3.097 2.069-4.475 2.069-.86 0-1.582-.289-2.153-.86-3.038-2.931.374-11.11 10.238-24.552-.63-2.181-1.634-4.31-3.012-6.373-2.868-4.31-4.995-7.897-6.366-10.768-1.378-2.871-2.008-5.486-1.89-7.838.112-2.3.735-4.363 1.851-6.202 1.115-1.84 2.625-3.331 4.515-4.481 1.607-.979 3.3-1.55 5.079-1.721 1.778-.171 3.412.085 4.902.775.4.23.676.558.82.992.145.434.112.848-.085 1.248a1.6 1.6 0 0 1-.945.822 1.667 1.667 0 0 1-1.247-.046c-2.067-.98-4.331-.717-6.799.775-2.985 1.78-4.56 4.454-4.731 8.009-.118 1.892.486 4.152 1.805 6.76 1.319 2.615 3.268 5.874 5.853 9.776 1.09 1.669 1.982 3.357 2.665 5.085.459-.578.945-1.209 1.463-1.892 1.608-2.01 8-9.533 19.189-22.568a1.69 1.69 0 0 1 1.122-.604v-.007Zm-26.755 45.484c2.526-3.85 3.642-8.068 3.353-12.66-2.408 3.443-4.344 6.517-5.808 9.217-1.463 2.701-2.349 4.639-2.664 5.815-.315 1.176-.413 1.997-.302 2.457.519-.059 1.293-.506 2.323-1.334 1.031-.834 2.067-1.997 3.098-3.488v-.007ZM449.431 65.693a1.583 1.583 0 0 1 1.247.085c.4.204.676.52.82.947.144.433.131.847-.046 1.248-6.136 12.693-11.616 19.04-16.432 19.04-.289 0-.604-.027-.945-.086-3.846-.749-6.228-5.913-7.14-15.505-2.809 3.79-5.309 6.892-7.488 9.303-1.949 2.07-3.616 2.786-4.988 2.155-1.378-.519-2.034-2.01-1.981-4.48 0-2.07.459-4.534 1.378-7.412.918-2.87 2.264-5.656 4.042-8.357 1.779-2.7 3.701-4.395 5.769-5.085 3.038-1.09 5.853-.085 8.432 3.016.289.342.414.749.388 1.209-.027.46-.217.834-.558 1.123a1.65 1.65 0 0 1-1.201.388 1.526 1.526 0 0 1-1.122-.559c-2.009-2.41-4.043-2.87-6.11-1.38-2.349 1.67-4.318 4.665-5.893 9.001-1.582 4.337-2.192 7.425-1.851 9.264.341-.289.742-.657 1.201-1.123 2.297-2.47 5.106-5.999 8.433-10.598l1.549-2.155c.459-.571 1.063-.762 1.804-.558.748.204 1.149.703 1.208 1.504.111 2.812.341 5.316.689 7.497.341 2.181.689 3.83 1.03 4.954.341 1.123.748 2.056 1.208 2.798.459.75.82 1.222 1.076 1.42.256.203.532.302.82.302.801.17 1.818-.217 3.052-1.163 1.234-.946 2.809-2.786 4.731-5.512 1.923-2.727 3.885-6.19 5.893-10.38.23-.46.558-.763.991-.908l-.006.007ZM520.371 65.26c.459-.027.86.098 1.207.387.342.29.532.664.558 1.117.027.46-.098.86-.387 1.209-7.284 8.56-13.053 12.03-17.292 10.426-3.038-1.15-4.672-4.796-4.902-10.939-.801 1.492-2.067 3.995-3.787 7.497-.978 2.128-1.634 3.475-1.982 4.047-1.489 2.87-3.097 4.08-4.816 3.62-2.35-.572-3.498-3.876-3.446-9.908 0-1.15.027-2.496.086-4.047-3.787 5.4-7.659 11.885-11.616 19.467-.689 1.32-1.431 1.984-2.238 1.984-.289 0-.558-.072-.82-.217a5.243 5.243 0 0 1-.604-.387c-.144-.119-.289-.434-.433-.946-.144-.52-.171-1.176-.085-1.984.085-.809.275-1.985.558-3.535.288-1.55.715-3.416 1.292-5.598 1.838-7.352 4.043-13.928 6.628-19.73.171-.46.473-.775.906-.945.433-.171.86-.158 1.293.046.433.203.715.519.86.946.144.433.131.847-.046 1.248-2.868 6.491-5.224 13.698-7.055 21.622 3.439-6.084 6.996-11.688 10.671-16.8.8-1.15 1.693-1.55 2.664-1.202.689.23 1.089.703 1.201 1.42.111.715.144 2.14.085 4.263a136.07 136.07 0 0 0-.085 4.395c0 3.042.315 5.197.945 6.459.341-.342.748-.92 1.207-1.722.289-.571.919-1.866 1.89-3.876 2.35-4.94 4.043-8.166 5.08-9.69 1.03-1.525 2.093-2.169 3.182-1.939 1.208.29 1.805 1.55 1.805 3.791-.059 5.63.86 8.817 2.756 9.56 1.149.4 2.894-.132 5.25-1.59 2.35-1.466 5.132-4.094 8.348-7.885a1.492 1.492 0 0 1 1.115-.558l.007-.007Z"/><path d="M545.755 65.43a1.6 1.6 0 0 1 1.246.256c.375.257.591.618.644 1.078.059.46-.027.86-.256 1.209-6.484 9.073-12.39 15.505-17.726 19.296-2.119 1.491-4.213 2.24-6.28 2.24-1.608 0-3.012-.433-4.213-1.294-.689-.52-1.306-1.21-1.851-2.07-.544-.86-1.017-2.07-1.417-3.62-.4-1.55-.473-3.587-.217-6.116.256-2.53.906-5.4 1.936-8.614v-.085c1.608-5.223 3.557-9.362 5.854-12.404s4.357-4.592 6.195-4.652c1.319-.059 2.179.52 2.579 1.722.63 1.669-.118 4.02-2.238 7.062-2.119 3.042-5.25 6.32-9.378 9.822-.689 2.24-1.174 4.31-1.463 6.203-.289 1.892-.387 3.403-.302 4.52.085 1.117.289 2.096.604 2.93.315.834.604 1.419.86 1.767.256.348.531.63.82.86 1.719 1.262 3.931.92 6.628-1.03 5.047-3.562 10.671-9.705 16.866-18.436a1.852 1.852 0 0 1 1.122-.644h-.013Zm-16.689-11.156c-2.008 1.262-3.99 3.995-5.939 8.187 3.327-3.331 5.303-6.058 5.939-8.187Z"/><path d="M579.656 13.015c1.49 1.492.742 6.78-2.237 15.847-.23.69-.545 1.636-.945 2.845a527.086 527.086 0 0 1-3.098 9.217c-.807 2.3-2.067 5.513-3.786 9.651-1.72 4.14-3.584 8.101-5.592 11.886-1.667 7.923-3.242 16.365-4.731 25.327-2.579 15.334-3.957 25.728-4.128 31.181a1.915 1.915 0 0 1 1.378 0c.4.23.676.558.82.992.145.433.132.847-.046 1.248-1.03 2.181-2.067 3.272-3.097 3.272-.23 0-.459-.026-.689-.085-.63-.23-1.076-.644-1.332-1.249-.256-.604-.374-1.866-.342-3.791.027-1.925.27-4.75.729-8.488.689-5.972 1.837-13.843 3.439-23.606a755.032 755.032 0 0 1 2.841-15.59 184.755 184.755 0 0 1-5.676 8.613c-3.787 5.512-7.088 7.496-9.897 5.946-1.837-1.32-2.723-3.66-2.664-7.024.059-3.357.893-6.76 2.494-10.21 1.89-4.02 4.128-6.977 6.713-8.869 2.586-1.892 4.876-2.542 6.884-1.938 2.008.605 3.157 2.11 3.446 4.52.288-.46.544-.92.774-1.38 3.038-14.414 6.096-26.003 9.161-34.761 3.071-8.758 5.578-13.449 7.527-14.086.801-.29 1.49-.112 2.067.519l-.013.013ZM550.486 78.4a165.033 165.033 0 0 0 7.403-11.714c-.86-.289-1.208-.86-1.031-1.721.23-2.122-.144-3.331-1.115-3.62h-.519c-1.207 0-2.684.788-4.429 2.371-1.753 1.584-3.314 3.83-4.693 6.76a20.708 20.708 0 0 0-1.85 5.815c-.315 1.984-.387 3.587-.217 4.823.171 1.235.486 1.97.945 2.194.171.118.447.099.821-.046.374-.144.991-.63 1.85-1.465.86-.834 1.805-1.965 2.842-3.403l-.007.006Zm23.75-50.569c1.148-3.502 1.982-6.49 2.493-8.961-2.808 5.913-5.82 15.13-9.036 27.653 1.608-3.903 3.472-9.159 5.591-15.761.401-1.262.716-2.24.945-2.93h.007ZM593.811 65.128c.434-.112.847-.06 1.247.17.401.23.643.579.735 1.032.086.46.013.894-.216 1.295-1.608 2.529-3.544 5.157-5.808 7.883a47.596 47.596 0 0 1-7.658 7.365c-2.842 2.182-5.237 3.272-7.186 3.272-.689 0-1.293-.118-1.805-.341-3.839-1.663-4.246-8.41-1.201-20.242.112-.46.374-.802.774-1.032a1.58 1.58 0 0 1 1.247-.17c.433.118.762.374.991.775.23.4.289.808.171 1.208-.689 2.76-1.188 5.184-1.503 7.28-.315 2.096-.459 3.692-.433 4.783.026 1.09.144 1.997.341 2.713.204.716.374 1.15.519 1.294.144.145.269.244.387.303 1.489.63 4.2-.86 8.131-4.48 3.931-3.621 7.33-7.754 10.198-12.405a2.058 2.058 0 0 1 1.076-.69l-.007-.013Zm-19.064-6.715c-1.666-.111-2.178-.801-1.548-2.069.571-1.032 1.319-1.721 2.238-2.07 1.43-.46 2.296-.085 2.579 1.124.288 1.15-.145 2.01-1.293 2.582-.571.289-1.234.434-1.982.434h.006Z"/><path d="M627.838 13.015c1.49 1.492.742 6.78-2.238 15.847l-.945 2.845a537.132 537.132 0 0 1-3.097 9.217c-.807 2.3-2.067 5.513-3.787 9.651-1.719 4.14-3.583 8.101-5.591 11.886-1.667 7.923-3.242 16.365-4.732 25.327-2.579 15.334-3.957 25.728-4.127 31.181a1.915 1.915 0 0 1 1.378 0c.4.23.676.558.82.992.144.433.131.847-.046 1.248-1.03 2.181-2.067 3.272-3.097 3.272-.23 0-.46-.026-.689-.085-.63-.23-1.077-.644-1.333-1.249-.256-.604-.374-1.866-.341-3.791.026-1.925.269-4.75.729-8.488.689-5.972 1.837-13.843 3.438-23.606a761.692 761.692 0 0 1 2.842-15.59 185.592 185.592 0 0 1-5.677 8.613c-3.786 5.512-7.087 7.496-9.896 5.946-1.837-1.32-2.723-3.66-2.664-7.024.059-3.357.892-6.76 2.493-10.21 1.89-4.02 4.128-6.977 6.714-8.869 2.585-1.892 4.876-2.542 6.884-1.938 2.008.605 3.156 2.11 3.445 4.52.289-.46.545-.92.775-1.38 3.038-14.414 6.096-26.003 9.161-34.761 3.071-8.758 5.578-13.449 7.527-14.086.801-.29 1.49-.112 2.067.519l-.013.013ZM598.668 78.4a165.014 165.014 0 0 0 7.402-11.714c-.859-.289-1.207-.86-1.03-1.721.23-2.122-.144-3.331-1.116-3.62h-.518c-1.208 0-2.684.788-4.43 2.371-1.752 1.584-3.314 3.83-4.692 6.76a20.678 20.678 0 0 0-1.851 5.815c-.315 1.984-.387 3.587-.216 4.823.171 1.235.486 1.97.945 2.194.171.118.446.099.82-.046.374-.144.991-.63 1.851-1.465.86-.834 1.805-1.965 2.841-3.403l-.006.006Zm23.749-50.569c1.149-3.502 1.982-6.49 2.494-8.961-2.809 5.913-5.821 15.13-9.036 27.653 1.607-3.903 3.471-9.159 5.591-15.761.4-1.262.715-2.24.945-2.93h.006ZM652.834 65.693a1.582 1.582 0 0 1 1.247.085c.401.204.676.52.821.947.144.433.131.847-.046 1.248-6.136 12.693-11.616 19.04-16.433 19.04-.289 0-.604-.027-.945-.086-3.845-.749-6.228-5.913-7.14-15.505-2.809 3.79-5.309 6.892-7.488 9.303-1.949 2.07-3.615 2.786-4.987 2.155-1.378-.519-2.034-2.01-1.982-4.48 0-2.07.459-4.534 1.378-7.412.919-2.87 2.264-5.656 4.043-8.357 1.778-2.7 3.701-4.395 5.768-5.085 3.039-1.09 5.854-.085 8.433 3.016.289.342.413.749.387 1.209-.026.46-.216.834-.558 1.123a1.65 1.65 0 0 1-1.201.388 1.53 1.53 0 0 1-1.122-.559c-2.008-2.41-4.042-2.87-6.11-1.38-2.349 1.67-4.318 4.665-5.893 9.001-1.581 4.337-2.191 7.425-1.85 9.264.341-.289.741-.657 1.201-1.123 2.297-2.47 5.105-5.999 8.432-10.598l1.549-2.155c.46-.571 1.063-.762 1.805-.558.748.204 1.148.703 1.207 1.504.112 2.812.342 5.316.689 7.497.342 2.181.689 3.83 1.031 4.954.341 1.123.748 2.056 1.207 2.798.46.75.821 1.222 1.077 1.42.255.203.531.302.82.302.8.17 1.818-.217 3.051-1.163 1.234-.946 2.809-2.786 4.732-5.512 1.923-2.727 3.885-6.19 5.893-10.38.23-.46.558-.763.991-.908l-.007.007Z"/></g><defs><clipPath id="a"><path fill="#fff" d="M0 0h655v125H0z"/></clipPath></defs></svg>