<svg width="87" height="18" viewBox="0 0 87 18" fill="none" xmlns="http://www.w3.org/2000/svg">
<g id="la idea logo">
<g id="Group">
<path id="Vector" d="M5.02354 0.465858L4.95058 17.0765L0 17.0557L0.072956 0.445068L5.02354 0.465858Z" fill="white"/>
<path id="Vector_2" d="M22.0584 10.9852L22.0323 17.1492L17.0817 17.1284V15.6108C15.164 17.0141 13.0171 17.3155 10.8701 17.3051C8.04563 17.2947 5.57555 16.2656 5.58597 13.563C5.6016 10.3251 9.31715 9.48835 12.9285 9.50394C14.6586 9.50914 15.9822 9.74822 17.113 10.164C17.1182 8.66718 15.5497 8.59961 13.903 8.59441C12.2562 8.58922 10.5001 8.72435 8.22802 9.21289L6.63341 5.67872C9.11391 4.87833 11.7977 4.43656 14.0853 4.44696C19.161 4.46775 22.0375 6.22444 22.0584 10.98V10.9852ZM17.0974 12.5392C16.3157 12.3261 15.2422 12.2169 13.8196 12.2117C11.5319 12.2013 10.5366 12.404 10.5366 13.194C10.5366 13.8801 11.1098 13.984 12.3709 13.9892C14.0437 13.9944 15.8571 13.589 17.0974 13.0537V12.534V12.5392Z" fill="white"/>
<path id="Vector_3" d="M27.8798 0.569739L27.8642 3.89082L22.9136 3.87003L22.9292 0.54895L27.8798 0.569739ZM27.859 4.7172L27.8017 17.1752L22.8511 17.1544L22.9084 4.69641L27.859 4.7172Z" fill="white"/>
<path id="Vector_4" d="M45.3316 0.642564L45.2587 17.2532L40.3081 17.2324V15.5277C39.0105 16.853 37.1084 17.4247 35.1907 17.4143C31.9911 17.3987 28.4319 15.9746 28.4527 10.9488C28.4736 5.92303 32.0484 4.53015 35.2481 4.54055C37.1658 4.55094 39.0626 5.13824 40.355 6.47395L40.381 0.616577L45.3316 0.637366V0.642564ZM40.3341 11.006C40.3446 9.17655 39.0835 8.71919 36.8791 8.70879C34.6748 8.6984 33.4137 9.15057 33.4033 10.9748C33.3929 12.8043 34.654 13.2616 36.8583 13.272C39.0678 13.2824 40.3237 12.8303 40.3341 11.006Z" fill="white"/>
<path id="Vector_5" d="M57.6303 12.6379L62.4766 12.6587C61.8409 15.959 59.1728 17.5234 54.0815 17.5026C49.2351 17.4818 45.8792 15.6368 45.9 11.032C45.9208 6.42194 49.2925 4.60808 54.342 4.63406C59.3916 4.66005 62.7111 6.4999 62.6851 11.9363L50.9496 11.8843C51.3561 13.2148 52.737 13.5527 54.0971 13.5579C55.8898 13.5682 56.6141 13.4435 57.6303 12.6379ZM51.1893 9.38961L57.4166 9.41559C56.8642 8.29297 55.6292 8.16304 54.3056 8.15784C52.9819 8.15265 51.7469 8.27218 51.1841 9.38961H51.1893Z" fill="white"/>
<path id="Vector_6" d="M79.1521 11.2346L79.1261 17.3986L74.1755 17.3778V15.8602C72.2578 17.2634 70.1108 17.5649 67.9638 17.5545C65.1394 17.5441 62.6693 16.515 62.6797 13.8124C62.6954 10.5745 66.4109 9.73774 70.0222 9.75333C71.7523 9.75853 73.0759 9.99761 74.2068 10.4134C74.212 8.91656 72.6434 8.849 70.9967 8.8438C69.35 8.8386 67.5938 8.97374 65.3218 9.46228L63.7272 5.92811C66.2077 5.12772 68.8914 4.68595 71.1791 4.69635C76.2547 4.71714 79.1313 6.47383 79.1521 11.2294V11.2346ZM74.1963 12.7938C73.4147 12.5807 72.3412 12.4715 70.9185 12.4663C68.6308 12.4559 67.6355 12.6586 67.6355 13.4486C67.6355 14.1347 68.2087 14.2386 69.4698 14.2438C71.1426 14.249 72.9561 13.8436 74.1963 13.3083V12.7886V12.7938Z" fill="white"/>
</g>
<g id="Group_2">
<path id="Vector_7" d="M80.9287 16.4216C82.3201 15.0444 82.3305 12.8043 80.9496 11.4166C82.3305 12.8043 84.5765 12.8147 85.9679 11.4374C84.5765 12.8147 84.5661 15.0547 85.947 16.4424C84.5661 15.0547 82.3201 15.0444 80.9287 16.4216Z" fill="white"/>
<path id="Vector_8" d="M79.9023 13.9165C81.8617 13.9269 83.4616 12.3469 83.4668 10.3927C83.4563 12.3469 85.0405 13.9425 86.9999 13.9477C85.0405 13.9373 83.4407 15.5173 83.4355 17.4714C83.4459 15.5173 81.8617 13.9217 79.9023 13.9165Z" fill="white"/>
</g>
</g>
</svg>
