<svg width="70" height="71" viewBox="0 0 70 71" fill="none" xmlns="http://www.w3.org/2000/svg">
<g id="solucion 1">
<path id="Vector" d="M24.0625 56.5669V61.75C24.0625 65.3688 27.0062 68.3125 30.625 68.3125H39.375C42.9938 68.3125 45.9375 65.3688 45.9375 61.75V56.5658C52.6986 52.6583 56.875 45.5741 56.875 37.6875C56.875 36.6948 56.6156 35.724 55.6607 35.2371C54.9572 34.8781 54.0577 34.9409 53.4107 35.3937C52.6102 35.9541 52.5 36.7832 52.5 37.6875C52.5 44.376 48.7745 50.3809 42.7768 53.3601C42.0864 53.7026 41.5625 54.5422 41.5625 55.319V61.75C41.5625 62.956 40.581 63.9375 39.375 63.9375H30.625C29.419 63.9375 28.4375 62.956 28.4375 61.75V58.5186C30.555 59.1854 32.7705 59.5625 35 59.5625C36.2079 59.5625 37.1875 58.5829 37.1875 57.375V41.6593C39.7283 40.7535 41.5625 38.3479 41.5625 35.5C41.5625 34.2921 40.5829 33.3125 39.375 33.3125C38.1671 33.3125 37.1875 34.2921 37.1875 35.5C37.1875 36.706 36.206 37.6875 35 37.6875C33.794 37.6875 32.8125 36.706 32.8125 35.5C32.8125 34.2921 31.8329 33.3125 30.625 33.3125C29.4171 33.3125 28.4375 34.2921 28.4375 35.5C28.4375 38.3479 30.2717 40.7535 32.8125 41.6593V55.0497C30.8665 54.8029 28.9673 54.2316 27.223 53.3598C21.2255 50.3809 17.5 44.376 17.5 37.6875C17.5 28.0382 25.3507 20.1875 35 20.1875C41.571 20.1875 47.5226 23.8159 50.5348 29.6563C51.0869 30.7308 52.4051 31.1558 53.4817 30.5974C54.5552 30.0442 54.9771 28.7249 54.4228 27.6504C50.6575 20.3487 43.2149 15.8125 35 15.8125C22.9377 15.8125 13.125 25.6252 13.125 37.6875C13.125 45.5758 17.3036 52.6616 24.0625 56.5669Z" fill="#FBF5F5"/>
<path id="Vector_2" d="M35 11.4375C36.2079 11.4375 37.1875 10.4579 37.1875 9.25V4.875C37.1875 3.66706 36.2079 2.6875 35 2.6875C33.7921 2.6875 32.8125 3.66706 32.8125 4.875V9.25C32.8125 10.4579 33.7921 11.4375 35 11.4375Z" fill="#FBF5F5"/>
<path id="Vector_3" d="M53.5621 19.1169C54.1251 19.1167 54.6878 18.9056 55.1084 18.485L60.6091 12.9841C61.4635 12.1296 61.4635 10.7454 60.6091 9.89073C59.7547 9.03607 58.3704 9.03629 57.5158 9.89073C57.5158 9.89073 52.0232 15.3833 52.0151 15.3914C50.694 16.7127 51.622 19.1176 53.5621 19.1169Z" fill="#FBF5F5"/>
<path id="Vector_4" d="M14.8916 18.485C15.7355 19.3287 17.1419 19.328 17.9849 18.485C18.8394 17.6305 18.8394 16.2463 17.9849 15.3916L12.484 9.89095C11.6296 9.03651 10.2453 9.03651 9.39067 9.89095C8.53601 10.7454 8.53623 12.1296 9.39067 12.9843C9.39088 12.9841 14.8916 18.485 14.8916 18.485Z" fill="#FBF5F5"/>
</g>
</svg>
