<svg width="71" height="70" viewBox="0 0 71 70" fill="none" xmlns="http://www.w3.org/2000/svg">
<g id="latido-del-corazon 1">
<g id="Icons">
<path id="Vector" d="M50.7355 8.75C44.2059 8.75 39.8529 13.475 37.6764 17.0844C35.4999 13.475 31.1469 8.75 24.6174 8.75C20.6029 8.7498 16.7506 10.342 13.8977 13.1807C11.0448 16.0193 9.42197 19.8748 9.38182 23.9094C9.3843 26.369 9.70624 28.8179 10.3395 31.1938C10.5049 31.736 10.8734 32.1925 11.3673 32.467C11.8611 32.7414 12.4417 32.8123 12.9866 32.6648C13.5315 32.5172 13.9981 32.1627 14.2879 31.6761C14.5778 31.1894 14.6682 30.6086 14.5401 30.0562C14.0064 28.0513 13.7357 25.9848 13.7348 23.9094C13.7749 21.0352 14.9391 18.2924 16.9756 16.2742C19.0122 14.256 21.7574 13.1247 24.6174 13.125C32.0175 13.125 35.4999 22.5313 35.6305 22.6406C35.783 23.0629 36.0612 23.4278 36.4272 23.6856C36.7933 23.9435 37.2294 24.0818 37.6764 24.0818C38.1234 24.0818 38.5596 23.9435 38.9256 23.6856C39.2917 23.4278 39.5698 23.0629 39.7223 22.6406C39.7223 22.6406 43.2918 13.125 50.7355 13.125C53.5955 13.1247 56.3407 14.256 58.3772 16.2742C60.4138 18.2924 61.578 21.0352 61.618 23.9094C61.5406 28.5963 60.2262 33.1785 57.8091 37.1875H51.9761L46.0777 27.3219C45.8851 26.9953 45.6112 26.7248 45.283 26.5369C44.9549 26.3489 44.5837 26.2501 44.2059 26.25C43.8261 26.2523 43.4535 26.3545 43.1251 26.5464C42.7968 26.7382 42.5241 27.0131 42.3341 27.3438L35.3693 39.5938L28.6222 29.4219C28.423 29.1179 28.1514 28.8686 27.8322 28.6967C27.5129 28.5248 27.1561 28.4357 26.7939 28.4375C26.445 28.4271 26.0988 28.5012 25.7844 28.6534C25.47 28.8057 25.1966 29.0318 24.9874 29.3125L19.1761 37.1875H7.20532C6.62807 37.1875 6.07447 37.418 5.66629 37.8282C5.25812 38.2384 5.02881 38.7948 5.02881 39.375C5.02881 39.9552 5.25812 40.5116 5.66629 40.9218C6.07447 41.332 6.62807 41.5625 7.20532 41.5625H20.2644C20.6023 41.5625 20.9355 41.4834 21.2377 41.3316C21.5399 41.1797 21.8028 40.9592 22.0056 40.6875L26.7939 34.4094L33.8022 44.9531C33.9889 45.2392 34.2397 45.4773 34.5346 45.6482C34.8294 45.8192 35.1601 45.9183 35.4999 45.9375C35.8686 45.924 36.2278 45.8165 36.5438 45.6252C36.8598 45.4339 37.1222 45.165 37.3064 44.8438L44.2059 32.8125L48.8201 40.5563C49.0246 40.8771 49.3088 41.1387 49.6448 41.3152C49.9807 41.4917 50.3567 41.5769 50.7355 41.5625H54.8708C50.0486 47.5169 44.2299 52.5803 37.6764 56.525C33.5337 54.0173 29.6606 51.085 26.1192 47.775C25.6978 47.3776 25.1366 47.1647 24.559 47.1832C23.9814 47.2016 23.4348 47.4499 23.0394 47.8734C22.644 48.297 22.4322 48.861 22.4505 49.4415C22.4689 50.022 22.716 50.5713 23.1374 50.9688C27.2349 54.8373 31.7715 58.2074 36.6535 61.0094C36.9843 61.2014 37.3597 61.3024 37.7417 61.3024C38.1238 61.3024 38.4991 61.2014 38.83 61.0094C39.8529 60.375 65.971 45.9375 65.971 23.9094C65.9309 19.8748 64.308 16.0193 61.4551 13.1807C58.6022 10.342 54.7499 8.7498 50.7355 8.75Z" fill="#FBF5F5"/>
</g>
</g>
</svg>
