<svg width="219" height="15" viewBox="0 0 219 15" fill="none" xmlns="http://www.w3.org/2000/svg">
<g id="logo">
<path id="Vector" d="M0.0163783 13.9908V13.8587C0.418084 13.8587 0.681387 13.7808 0.799535 13.6285C0.917684 13.4761 0.978446 13.2154 0.978446 12.8463V2.25523C0.978446 1.87939 0.931187 1.60852 0.836668 1.44261C0.742149 1.2767 0.461968 1.18528 -0.00387573 1.17513V1.04308H3.45619V1.17513C3.1355 1.17513 2.90933 1.21576 2.78106 1.29702C2.65278 1.37828 2.56839 1.47647 2.52788 1.58821C2.48737 1.69994 2.46712 1.9505 2.46712 2.34326V11.431C2.46712 12.2098 2.65278 12.7583 3.02748 13.08C3.40218 13.3982 4.04019 13.5608 4.94487 13.5608H6.52131C7.28084 13.5608 7.83445 13.3745 8.18889 12.9987C8.54334 12.6229 8.73913 11.9186 8.77964 10.8791H8.91129V13.9908H0.0163783Z" fill="black"/>
<path id="Vector_2" d="M22.4309 8.03158H18.6434L16.6889 12.9208C16.5539 13.273 16.4864 13.4897 16.4864 13.5709C16.4864 13.7639 16.6282 13.8621 16.9151 13.8621V13.9942H14.9943V13.8621C15.2509 13.8621 15.4669 13.7978 15.6425 13.6725C15.818 13.5472 16.0104 13.2188 16.2197 12.6906L20.9018 0.850082H21.1347L25.7357 12.2843C25.7357 12.3418 25.8539 12.6195 26.0902 13.1172C26.3265 13.6116 26.6877 13.8621 27.1704 13.8621V13.9942H24.1559V13.8621C24.4293 13.8621 24.5677 13.7538 24.5677 13.5371C24.5677 13.3915 24.5002 13.1578 24.3652 12.8328C24.3416 12.8091 24.3213 12.7718 24.3044 12.7177C24.2943 12.6601 24.2842 12.6296 24.2774 12.6296L22.4309 8.03158ZM18.7683 7.67268H22.2588L20.5136 3.26085L18.765 7.67268H18.7683Z" fill="black"/>
<path id="Vector_3" d="M56.5894 13.8587V13.9908H51.3841C50.3849 13.9908 49.5106 13.8824 48.7578 13.6657C48.0084 13.449 47.2422 13.036 46.4624 12.4299C45.6826 11.8238 45.0513 11.0687 44.5686 10.1681C44.0859 9.26405 43.8462 8.34309 43.8462 7.39842C43.8462 6.36572 44.15 5.33979 44.7543 4.31386C45.3585 3.28793 46.2193 2.455 47.3367 1.81507C48.454 1.17174 49.7165 0.85347 51.1309 0.85347C52.4002 0.85347 53.7403 1.1345 55.1547 1.69656L55.6881 3.18974H55.5598C55.1109 2.61414 54.4965 2.14011 53.7167 1.76089C52.9369 1.38167 52.0694 1.19545 51.1107 1.19545C49.4465 1.19545 48.0827 1.82522 47.0194 3.08139C45.956 4.33756 45.426 5.89847 45.426 7.76071C45.426 8.53608 45.5138 9.22342 45.6894 9.8295C45.8649 10.4356 46.1923 11.0349 46.675 11.624C47.1578 12.2132 47.6742 12.6466 48.2245 12.9242C48.7781 13.2019 49.3958 13.3949 50.0777 13.5032C50.7596 13.6116 51.3031 13.659 51.7082 13.6488L52.4002 13.6319C53.1834 13.6014 53.6728 13.5303 53.8686 13.4118C54.0644 13.2933 54.1623 12.9953 54.1623 12.5145V10.5541C54.1623 10.1749 54.0847 9.91753 53.926 9.78548C53.7673 9.65343 53.5446 9.59587 53.2509 9.6128V9.48075H56.5894V9.6128C56.2147 9.6128 55.9649 9.68729 55.84 9.83289C55.7151 9.97848 55.651 10.2595 55.651 10.676V12.7109C55.651 13.1206 55.705 13.4152 55.813 13.5912C55.921 13.7707 56.1168 13.8587 56.4037 13.8587H56.586H56.5894Z" fill="black"/>
<path id="Vector_4" d="M74.997 13.9908H72.553V11.9965C71.3107 13.3847 69.8288 14.0788 68.1038 14.0788C66.8245 14.0788 65.8118 13.7199 65.0624 12.9987C64.313 12.2775 63.9383 11.282 63.9383 10.0089V2.25523C63.9383 1.78797 63.8843 1.49001 63.7729 1.36135C63.6615 1.23607 63.4015 1.17174 62.9931 1.17174V1.03969H66.4194V1.17174C66.0582 1.17174 65.8016 1.2293 65.6531 1.34442C65.5046 1.45954 65.4303 1.73041 65.4303 2.15704V9.26743C65.4303 10.7572 65.778 11.817 66.47 12.4536C67.1654 13.0901 67.9553 13.4084 68.8431 13.4084C70.2373 13.4084 71.4761 12.7786 72.553 11.5191V2.75634C72.553 1.98774 72.4855 1.53403 72.3504 1.38844C72.2154 1.24623 72.0061 1.17174 71.7192 1.17174H71.5977V1.03969H74.997V1.17174C74.575 1.19544 74.3117 1.26654 74.2037 1.38166C74.0957 1.50017 74.0417 1.72025 74.0417 2.04869V12.589C74.0417 13.0055 74.0619 13.2763 74.1024 13.405C74.1429 13.5337 74.2273 13.642 74.3522 13.7267C74.4771 13.8113 74.6932 13.8553 74.997 13.8553V13.9874V13.9908Z" fill="black"/>
<path id="Vector_5" d="M85.1746 1.04308V1.17513C85.0059 1.1582 84.8168 1.18528 84.6109 1.253C84.405 1.32411 84.2801 1.42568 84.243 1.56112C84.2058 1.69655 84.1856 2.01483 84.1856 2.51933V12.4536C84.1856 12.9919 84.2058 13.3237 84.2531 13.4423C84.297 13.5608 84.3814 13.6623 84.5063 13.7402C84.6312 13.8181 84.854 13.8587 85.178 13.8587V13.9908H81.7348V13.8587C82.1669 13.8587 82.437 13.7741 82.5416 13.6082C82.6463 13.4423 82.7003 13.063 82.7003 12.4705V2.63445C82.7003 2.01822 82.6429 1.61868 82.5247 1.42568C82.4066 1.23607 82.1433 1.15142 81.7348 1.17513V1.04308H85.178H85.1746Z" fill="black"/>
<path id="Vector_6" d="M91.3825 13.9908V13.8587C91.7842 13.8587 92.0475 13.7808 92.1657 13.6285C92.2838 13.4761 92.3446 13.2154 92.3446 12.8463V2.25523C92.3446 1.87939 92.2973 1.60852 92.2028 1.44261C92.1083 1.2767 91.8281 1.18528 91.3623 1.17513V1.04308H94.8223V1.17513C94.5016 1.17513 94.2755 1.21576 94.1472 1.29702C94.0189 1.37828 93.9345 1.47647 93.894 1.58821C93.8535 1.69994 93.8333 1.9505 93.8333 2.34326V11.431C93.8333 12.2098 94.0189 12.7583 94.3936 13.08C94.7683 13.3982 95.4063 13.5608 96.311 13.5608H97.8875C98.647 13.5608 99.2006 13.3745 99.555 12.9987C99.9095 12.6229 100.105 11.9186 100.146 10.8791H100.277V13.9908H91.3825Z" fill="black"/>
<path id="Vector_7" d="M106.495 13.9908V13.8587C106.897 13.8587 107.16 13.7808 107.279 13.6285C107.397 13.4761 107.457 13.2154 107.457 12.8463V2.25523C107.457 1.87939 107.41 1.60852 107.316 1.44261C107.221 1.2767 106.941 1.18528 106.475 1.17513V1.04308H109.935V1.17513C109.615 1.17513 109.388 1.21576 109.26 1.29702C109.132 1.37828 109.047 1.47647 109.007 1.58821C108.966 1.69994 108.946 1.9505 108.946 2.34326V11.431C108.946 12.2098 109.132 12.7583 109.507 13.08C109.881 13.3982 110.519 13.5608 111.424 13.5608H113C113.76 13.5608 114.313 13.3745 114.668 12.9987C115.022 12.6229 115.218 11.9186 115.259 10.8791H115.39V13.9908H106.495Z" fill="black"/>
<path id="Vector_8" d="M122.091 1.19206V1.04308H130.206V2.82745H130.075C129.899 2.1672 129.75 1.77443 129.632 1.65931C129.511 1.54419 129.22 1.48324 128.751 1.48324H124.491V7.29345H128.444C128.836 7.29345 129.085 7.25621 129.19 7.1851C129.295 7.11061 129.352 7.00565 129.356 6.86344H129.487V8.08575H129.356C129.325 7.91646 129.258 7.80134 129.15 7.74378C129.042 7.68622 128.842 7.65575 128.549 7.65575H124.491V11.6545C124.491 12.2572 124.545 12.694 124.657 12.9615C124.768 13.2289 124.944 13.3949 125.187 13.4626C125.43 13.5303 125.794 13.5641 126.284 13.5641H128.559C129.281 13.5641 129.744 13.5404 129.946 13.4897C130.149 13.4389 130.318 13.3407 130.459 13.1917C130.598 13.0427 130.706 12.7177 130.783 12.2166H130.915V13.9908H122.091V13.8587C122.388 13.8418 122.614 13.7842 122.77 13.686C122.925 13.5878 123.002 13.3407 123.002 12.9344V2.48547C123.002 2.01144 122.962 1.67624 122.881 1.48324C122.8 1.29025 122.537 1.19206 122.091 1.19206Z" fill="black"/>
<path id="Vector_9" d="M137.204 1.17513V1.04308H140.867C141.795 1.04308 142.467 1.06339 142.882 1.10402C143.297 1.14465 143.722 1.28009 144.158 1.51372C144.593 1.74396 144.921 2.05885 145.144 2.455C145.366 2.85115 145.478 3.33533 145.478 3.91094C145.478 4.5678 145.282 5.19419 144.887 5.79011C144.492 6.38603 143.935 6.88714 143.216 7.30022L144.127 8.70537C144.327 9.05751 144.853 9.82611 145.711 11.0146C146.568 12.203 147.23 12.9276 147.696 13.1883C148.161 13.449 148.617 13.5777 149.053 13.5777C149.488 13.5777 149.981 13.4118 150.541 13.0766L150.595 13.2526C149.893 13.8282 148.985 14.1127 147.864 14.1127C147.118 14.1127 146.477 13.8892 145.937 13.4456C145.4 13.0021 144.465 11.7832 143.132 9.79225C143.118 9.78209 143.115 9.76855 143.115 9.75839L141.819 7.75394L140.667 7.7878H139.621V12.738C139.621 13.1375 139.672 13.4219 139.776 13.5946C139.881 13.7673 140.131 13.8553 140.532 13.8553V13.9874H137.201V13.8553C137.616 13.8384 137.872 13.7504 137.977 13.5912C138.078 13.4321 138.129 13.1104 138.129 12.6263V2.34326C138.129 2.01144 138.085 1.7338 137.997 1.51372C137.909 1.29363 137.643 1.1819 137.201 1.17513H137.204ZM139.621 1.38505V7.45936H140.975C142.041 7.45936 142.831 7.20881 143.344 6.70431C143.861 6.19981 144.117 5.53956 144.117 4.71678C144.117 3.89401 143.864 3.16604 143.358 2.455C142.851 1.74396 141.96 1.38505 140.684 1.38505H139.621Z" fill="black"/>
<path id="Vector_10" d="M168.605 1.04307H170.643V1.17512C169.955 1.20898 169.61 1.57127 169.61 2.25523C169.61 2.40082 169.627 2.60398 169.664 2.8613L171.021 12.6703C171.103 13.1578 171.194 13.4727 171.298 13.6082C171.4 13.7436 171.612 13.8282 171.933 13.8553V13.9874H169.033V13.8553C169.421 13.8689 169.614 13.6793 169.614 13.2967C169.614 13.2086 169.597 13.0359 169.56 12.782L168.233 3.271L163.605 13.9874H163.517L158.862 3.28793L157.553 12.8531C157.529 12.9987 157.519 13.1646 157.519 13.3508C157.519 13.6894 157.715 13.8553 158.11 13.8553V13.9874H156.138V13.8553C156.435 13.8553 156.628 13.8181 156.712 13.747C156.796 13.6725 156.864 13.5574 156.908 13.3948C156.955 13.2357 156.989 13.0529 157.012 12.8531L158.488 2.39405C158.248 1.81506 158.008 1.46293 157.769 1.34781C157.529 1.2293 157.296 1.17174 157.073 1.17174V1.03969H159.507L164.047 11.6308L168.601 1.03969L168.605 1.04307Z" fill="black"/>
<path id="Vector_11" d="M181.425 1.04308V1.17513C181.257 1.1582 181.068 1.18528 180.862 1.253C180.656 1.32411 180.531 1.42568 180.494 1.56112C180.457 1.69655 180.436 2.01483 180.436 2.51933V12.4536C180.436 12.9919 180.457 13.3237 180.504 13.4423C180.548 13.5608 180.632 13.6623 180.757 13.7402C180.882 13.8181 181.105 13.8587 181.429 13.8587V13.9908H177.986V13.8587C178.418 13.8587 178.688 13.7741 178.792 13.6082C178.897 13.4423 178.951 13.063 178.951 12.4705V2.63445C178.951 2.01822 178.894 1.61868 178.775 1.42568C178.657 1.23607 178.394 1.15142 177.986 1.17513V1.04308H181.429H181.425Z" fill="black"/>
<path id="Vector_12" d="M198.702 1.04308H201.2V1.17513C200.822 1.18867 200.559 1.26655 200.41 1.41552C200.265 1.5645 200.191 1.87939 200.191 2.36019V14.1499L189.895 3.15249V12.7278C189.895 13.0326 189.919 13.256 189.966 13.405C190.013 13.5506 190.081 13.6522 190.168 13.703C190.256 13.7571 190.476 13.8079 190.827 13.8621V13.9942H188.345V13.8621C188.791 13.8621 189.064 13.7842 189.173 13.6251C189.281 13.466 189.335 13.0901 189.335 12.4908V3.73148C189.335 2.96288 189.227 2.33649 189.014 1.85231C188.801 1.36474 188.308 1.14127 187.539 1.17513V1.04308H189.966L199.64 11.3769V2.2383C199.64 1.74734 199.553 1.446 199.377 1.33765C199.202 1.2293 198.975 1.17513 198.702 1.17513V1.04308Z" fill="black"/>
<path id="Vector_13" d="M214.264 8.03158H210.476L208.522 12.9208C208.387 13.273 208.319 13.4897 208.319 13.5709C208.319 13.7639 208.461 13.8621 208.748 13.8621V13.9942H206.827V13.8621C207.084 13.8621 207.3 13.7978 207.475 13.6725C207.651 13.5472 207.843 13.2188 208.053 12.6906L212.731 0.850082H212.964L217.565 12.2843C217.565 12.3418 217.683 12.6195 217.92 13.1172C218.156 13.6116 218.517 13.8621 219 13.8621V13.9942H215.986V13.8621C216.259 13.8621 216.397 13.7538 216.397 13.5371C216.397 13.3915 216.33 13.1578 216.195 12.8328C216.171 12.8091 216.151 12.7718 216.134 12.7177C216.124 12.6601 216.114 12.6296 216.107 12.6296L214.261 8.03158H214.264ZM210.598 7.67268H214.088L212.343 3.26085L210.595 7.67268H210.598Z" fill="black"/>
</g>
</svg>
