<svg width="70" height="71" viewBox="0 0 70 71" fill="none" xmlns="http://www.w3.org/2000/svg">
<g id="sonido 1">
<g id="Group">
<path id="Vector" d="M47.3039 4.73828H22.6937C19.3012 4.73828 16.5413 7.49822 16.5413 10.8906V60.1094C16.5413 63.5018 19.3012 66.2617 22.6937 66.2617H47.3039C50.6965 66.2617 53.4564 63.5018 53.4564 60.1094V10.8906C53.4564 7.49822 50.6965 4.73828 47.3039 4.73828ZM49.3547 60.1094C49.3547 61.2402 48.4347 62.1602 47.3039 62.1602H22.6937C21.5628 62.1602 20.6428 61.2402 20.6428 60.1094V10.8906C20.6428 9.75982 21.5628 8.83984 22.6937 8.83984H47.3039C48.4349 8.83984 49.3547 9.75982 49.3547 10.8906V60.1094Z" fill="#FBF5F5"/>
<path id="Vector_2" d="M34.9988 25.2461C36.1314 25.2461 37.0496 24.3279 37.0496 23.1953C37.0496 22.0627 36.1314 21.1445 34.9988 21.1445C33.8662 21.1445 32.948 22.0627 32.948 23.1953C32.948 24.3279 33.8662 25.2461 34.9988 25.2461Z" fill="#FBF5F5"/>
<path id="Vector_3" d="M34.9988 12.9414C29.3445 12.9414 24.7446 17.5413 24.7446 23.1953C24.7446 28.8493 29.3447 33.4492 34.9988 33.4492C40.6529 33.4492 45.253 28.8493 45.253 23.1953C45.253 17.5413 40.6531 12.9414 34.9988 12.9414ZM34.9988 29.3477C31.6063 29.3477 28.8463 26.5877 28.8463 23.1953C28.8463 19.8029 31.6063 17.043 34.9988 17.043C38.3913 17.043 41.1513 19.8029 41.1513 23.1953C41.1513 26.5877 38.3913 29.3477 34.9988 29.3477Z" fill="#FBF5F5"/>
<path id="Vector_4" d="M12.649 30.2191C11.736 29.5497 10.4526 29.7465 9.78239 30.66C7.68785 33.5154 7.65723 37.4305 9.77828 40.3363C10.446 41.2509 11.7286 41.4515 12.644 40.7836C13.559 40.1159 13.7593 38.8329 13.0915 37.918C12.0305 36.4645 12.0484 34.5056 13.09 33.0855C13.7597 32.1724 13.5624 30.889 12.649 30.2191Z" fill="#FBF5F5"/>
<path id="Vector_5" d="M5.30722 26.3338C4.33802 25.7474 3.07707 26.0579 2.49109 27.027C-1.01329 32.8193 -0.598755 39.0886 2.35396 43.9724C2.94021 44.9418 4.20103 45.2521 5.17009 44.6664C6.13929 44.0805 6.45005 42.8196 5.86408 41.8503C3.64636 38.1825 3.32958 33.5649 6.00039 29.1497C6.58664 28.1809 6.27642 26.9199 5.30722 26.3338Z" fill="#FBF5F5"/>
<path id="Vector_6" d="M57.3489 30.2191C56.4355 30.889 56.2382 32.1724 56.908 33.0857C57.9499 34.506 57.9672 36.4649 56.9064 37.9181C56.2387 38.8331 56.439 40.116 57.3539 40.7838C58.2683 41.4512 59.5514 41.2515 60.2197 40.3364C62.342 37.4287 62.3088 33.5139 60.2156 30.6601C59.5455 29.7464 58.2622 29.5497 57.3489 30.2191Z" fill="#FBF5F5"/>
<path id="Vector_7" d="M67.6434 27.027C67.0573 26.0579 65.7964 25.7473 64.8273 26.3338C63.8581 26.9199 63.5478 28.1809 64.1341 29.1499C66.4854 33.0366 66.4879 37.9571 64.1337 41.8506C63.5479 42.8199 63.8585 44.0807 64.8277 44.6667C65.7977 45.2528 67.058 44.9414 67.6438 43.9727C70.7828 38.7806 70.7882 32.225 67.6434 27.027Z" fill="#FBF5F5"/>
<path id="Vector_8" d="M34.9988 49.8555C36.1314 49.8555 37.0496 48.9373 37.0496 47.8047C37.0496 46.6721 36.1314 45.7539 34.9988 45.7539C33.8662 45.7539 32.948 46.6721 32.948 47.8047C32.948 48.9373 33.8662 49.8555 34.9988 49.8555Z" fill="#FBF5F5"/>
<path id="Vector_9" d="M34.9988 37.5508C29.3445 37.5508 24.7446 42.1507 24.7446 47.8047C24.7446 53.4587 29.3447 58.0586 34.9988 58.0586C40.6529 58.0586 45.253 53.4587 45.253 47.8047C45.253 42.1507 40.6531 37.5508 34.9988 37.5508ZM34.9988 53.957C31.6063 53.957 28.8463 51.1971 28.8463 47.8047C28.8463 44.4123 31.6063 41.6523 34.9988 41.6523C38.3913 41.6523 41.1513 44.4123 41.1513 47.8047C41.1513 51.1971 38.3913 53.957 34.9988 53.957Z" fill="#FBF5F5"/>
</g>
</g>
</svg>
