<svg width="174" height="174" viewBox="0 0 174 174" fill="none" xmlns="http://www.w3.org/2000/svg">
<g id="sello">
<circle id="Ellipse 1" cx="87" cy="87" r="87" fill="#E0AC9C"/>
<g id="Group 4">
<path id="Vector" d="M131.426 134.163V135.128H92.1031C84.5532 135.128 77.947 134.333 72.2785 132.745C66.604 131.156 60.8266 128.144 54.9343 123.702C49.042 119.26 44.2749 113.735 40.633 107.122C36.9912 100.509 35.1702 93.7484 35.1702 86.8411C35.1702 79.2866 37.4509 71.7556 42.0244 64.2423C46.5919 56.7349 53.0892 50.6277 61.5223 45.9267C69.9494 41.2257 79.5018 38.8723 90.1793 38.8723C99.7558 38.8723 109.883 40.9375 120.566 45.056L124.608 55.9994H123.634C120.234 51.7926 115.594 48.3037 109.707 45.5384C103.821 42.7731 97.2574 41.3846 90.022 41.3846C77.4509 41.3846 67.1545 45.9856 59.1267 55.1934C51.0988 64.4012 47.088 75.8271 47.088 89.477C47.088 95.1428 47.7474 100.197 49.0722 104.639C50.3971 109.081 52.8774 113.464 56.5193 117.771C60.1612 122.084 64.0632 125.261 68.2374 127.297C72.4056 129.338 77.0759 130.756 82.2422 131.55C87.4086 132.345 91.5102 132.698 94.5592 132.609L99.7861 132.48C105.697 132.262 109.393 131.733 110.875 130.874C112.351 130.015 113.095 127.826 113.095 124.308V109.952C113.095 107.163 112.496 105.28 111.305 104.315C110.113 103.35 108.413 102.927 106.205 103.062V102.097H131.426V103.062C128.6 103.062 126.713 103.598 125.763 104.668C124.813 105.739 124.341 107.793 124.341 110.834V125.743C124.341 128.744 124.747 130.897 125.563 132.198C126.38 133.504 127.868 134.157 130.034 134.157H131.426V134.163Z" fill="#FCF6EF"/>
<g id="Group">
<path id="Vector_2" d="M119.496 96.4899C119.496 96.4899 98.6427 94.9602 93.3251 71.1023C93.3251 71.1023 116.562 73.6322 119.496 96.4899Z" fill="#FCF6EF"/>
<path id="Vector_3" d="M119.326 96.4961C119.326 96.4961 109.29 78.6512 126.979 61.324C126.979 61.324 137.445 81.6577 119.326 96.4961Z" fill="#FCF6EF"/>
</g>
</g>
</g>
</svg>
