<svg width="70" height="71" viewBox="0 0 70 71" fill="none" xmlns="http://www.w3.org/2000/svg">
<g id="g2091">
<g id="g2093">
<g id="Clip path group">
<mask id="mask0_42_301" style="mask-type:luminance" maskUnits="userSpaceOnUse" x="0" y="0" width="70" height="71">
<g id="clipPath2099">
<path id="path2097" d="M0 0.5H70V70.5H0V0.5Z" fill="white"/>
</g>
</mask>
<g mask="url(#mask0_42_301)">
<g id="g2095">
<g id="g2101">
<path id="path2103" d="M38.9803 9.56377L35 12.9754L31.0196 9.56377C28.2773 7.21316 24.0367 8.25469 22.6953 11.6083L26.7969 24.6992H43.2031L47.3047 11.6083C45.9632 8.25469 41.7227 7.21316 38.9803 9.56377Z" stroke="#FBF5F5" stroke-width="4" stroke-miterlimit="10" stroke-linecap="round" stroke-linejoin="round"/>
</g>
<g id="g2105">
<path id="path2107" d="M31.4083 24.6992C25.642 37.3662 22.0857 50.9264 20.8927 64.7928L20.6445 67.6777C30.1682 68.7064 39.8316 68.7064 49.3555 67.6777L49.1072 64.7928C47.9142 50.9264 44.3579 37.3662 38.5917 24.6992H38.5916" stroke="#FBF5F5" stroke-width="4" stroke-miterlimit="10" stroke-linecap="round" stroke-linejoin="round"/>
</g>
<g id="g2109">
<path id="path2111" d="M26.7969 24.6992L26.5954 24.8839C16.2697 34.3492 10.3906 47.7136 10.3906 61.7213C13.8519 62.8749 17.3764 63.7633 20.933 64.4171" stroke="#FBF5F5" stroke-width="4" stroke-miterlimit="10" stroke-linecap="round" stroke-linejoin="round"/>
</g>
<g id="g2113">
<path id="path2115" d="M49.067 64.4171C52.6237 63.7633 56.1481 62.8751 59.6094 61.7213C59.6094 47.7138 53.7303 34.3491 43.4046 24.8838L43.2031 24.6992" stroke="#FBF5F5" stroke-width="4" stroke-miterlimit="10" stroke-linecap="round" stroke-linejoin="round"/>
</g>
<g id="g2117">
<path id="path2119" d="M22.6953 11.6082V2.55067" stroke="#FBF5F5" stroke-width="4" stroke-miterlimit="10" stroke-linecap="round" stroke-linejoin="round"/>
</g>
<g id="g2121">
<path id="path2123" d="M47.3047 11.6082V2.55067" stroke="#FBF5F5" stroke-width="4" stroke-miterlimit="10" stroke-linecap="round" stroke-linejoin="round"/>
</g>
</g>
</g>
</g>
</g>
</g>
</svg>
